<svg xmlns="http://www.w3.org/2000/svg" xmlns:xlink="http://www.w3.org/1999/xlink" contentStyleType="text/css" data-diagram-type="SEQUENCE" height="1823px" preserveAspectRatio="none" style="width:896px;height:1823px;background:#FFFFFF;" version="1.1" viewBox="0 0 896 1823" width="896px" zoomAndPan="magnify"><defs/><g><rect fill="none" height="294.1328" style="stroke:#000000;stroke-width:1.5;" width="879.3398" x="10" y="302.2266"/><rect fill="none" height="75.3984" style="stroke:#000000;stroke-width:1.5;" width="412.4272" x="10" y="610.3594"/><rect fill="none" height="206.7344" style="stroke:#000000;stroke-width:1.5;" width="673.5537" x="10" y="699.7578"/><rect fill="none" height="46.2656" style="stroke:#000000;stroke-width:1.5;" width="412.4272" x="10" y="949.625"/><rect fill="none" height="119.3359" style="stroke:#000000;stroke-width:1.5;" width="814.8916" x="10" y="1068.1563"/><rect fill="none" height="119.3359" style="stroke:#000000;stroke-width:1.5;" width="412.4272" x="10" y="1230.625"/><rect fill="none" height="148.4688" style="stroke:#000000;stroke-width:1.5;" width="729.4229" x="10" y="1451.3594"/><g><title>Player</title><rect fill="#000000" fill-opacity="0.00000" height="1661.8672" width="8" x="40.7827" y="81.2969"/><line style="stroke:#181818;stroke-width:0.5;stroke-dasharray:5.0,5.0;" x1="44" x2="44" y1="81.2969" y2="1743.1641"/></g><g><title>Engine</title><rect fill="#000000" fill-opacity="0.00000" height="1661.8672" width="8" x="377.4365" y="81.2969"/><line style="stroke:#181818;stroke-width:0.5;stroke-dasharray:5.0,5.0;" x1="380.4458" x2="380.4458" y1="81.2969" y2="1743.1641"/></g><g><title>Room</title><rect fill="#000000" fill-opacity="0.00000" height="1661.8672" width="8" x="557.0938" y="81.2969"/><line style="stroke:#181818;stroke-width:0.5;stroke-dasharray:5.0,5.0;" x1="560.8457" x2="560.8457" y1="81.2969" y2="1743.1641"/></g><g><title>Enemy</title><rect fill="#000000" fill-opacity="0.00000" height="1661.8672" width="8" x="638.4263" y="81.2969"/><line style="stroke:#181818;stroke-width:0.5;stroke-dasharray:5.0,5.0;" x1="642.2988" x2="642.2988" y1="81.2969" y2="1743.1641"/></g><g><title>Item</title><rect fill="#000000" fill-opacity="0.00000" height="1661.8672" width="8" x="702.4883" y="81.2969"/><line style="stroke:#181818;stroke-width:0.5;stroke-dasharray:5.0,5.0;" x1="705.5537" x2="705.5537" y1="81.2969" y2="1743.1641"/></g><g><title>Obstacle</title><rect fill="#000000" fill-opacity="0.00000" height="1661.8672" width="8" x="773.1572" y="81.2969"/><line style="stroke:#181818;stroke-width:0.5;stroke-dasharray:5.0,5.0;" x1="776.4229" x2="776.4229" y1="81.2969" y2="1743.1641"/></g><g><title>Timer</title><rect fill="#000000" fill-opacity="0.00000" height="1661.8672" width="8" x="848.1157" y="81.2969"/><line style="stroke:#181818;stroke-width:0.5;stroke-dasharray:5.0,5.0;" x1="851.8916" x2="851.8916" y1="81.2969" y2="1743.1641"/></g><g class="participant participant-head" data-participant="Player"><text fill="#000000" font-family="sans-serif" font-size="14" lengthAdjust="spacing" textLength="43.5654" x="20" y="77.9951">Player</text><ellipse cx="44.7827" cy="13.5" fill="#FF0000" rx="8" ry="8" style="stroke:#181818;stroke-width:0.5;"/><path d="M44.7827,21.5 L44.7827,48.5 M31.7827,29.5 L57.7827,29.5 M44.7827,48.5 L31.7827,63.5 M44.7827,48.5 L57.7827,63.5" fill="none" style="stroke:#181818;stroke-width:0.5;"/></g><g class="participant participant-tail" data-participant="Player"><text fill="#000000" font-family="sans-serif" font-size="14" lengthAdjust="spacing" textLength="43.5654" x="20" y="1755.1592">Player</text><ellipse cx="44.7827" cy="1766.9609" fill="#FF0000" rx="8" ry="8" style="stroke:#181818;stroke-width:0.5;"/><path d="M44.7827,1774.9609 L44.7827,1801.9609 M31.7827,1782.9609 L57.7827,1782.9609 M44.7827,1801.9609 L31.7827,1816.9609 M44.7827,1801.9609 L57.7827,1816.9609" fill="none" style="stroke:#181818;stroke-width:0.5;"/></g><g class="participant participant-head" data-participant="Engine"><rect fill="#E2E2F0" height="30.2969" rx="2.5" ry="2.5" style="stroke:#181818;stroke-width:0.5;" width="61.9814" x="350.4458" y="50"/><text fill="#000000" font-family="sans-serif" font-size="14" lengthAdjust="spacing" textLength="47.9814" x="357.4458" y="69.9951">Engine</text></g><g class="participant participant-tail" data-participant="Engine"><rect fill="#E2E2F0" height="30.2969" rx="2.5" ry="2.5" style="stroke:#181818;stroke-width:0.5;" width="61.9814" x="350.4458" y="1742.1641"/><text fill="#000000" font-family="sans-serif" font-size="14" lengthAdjust="spacing" textLength="47.9814" x="357.4458" y="1762.1592">Engine</text></g><g class="participant participant-head" data-participant="Room"><rect fill="#E2E2F0" height="30.2969" rx="2.5" ry="2.5" style="stroke:#181818;stroke-width:0.5;" width="54.4961" x="533.8457" y="50"/><text fill="#000000" font-family="sans-serif" font-size="14" lengthAdjust="spacing" textLength="40.4961" x="540.8457" y="69.9951">Room</text></g><g class="participant participant-tail" data-participant="Room"><rect fill="#E2E2F0" height="30.2969" rx="2.5" ry="2.5" style="stroke:#181818;stroke-width:0.5;" width="54.4961" x="533.8457" y="1742.1641"/><text fill="#000000" font-family="sans-serif" font-size="14" lengthAdjust="spacing" textLength="40.4961" x="540.8457" y="1762.1592">Room</text></g><g class="participant participant-head" data-participant="Enemy"><rect fill="#E2E2F0" height="30.2969" rx="2.5" ry="2.5" style="stroke:#181818;stroke-width:0.5;" width="62.2549" x="611.2988" y="50"/><text fill="#000000" font-family="sans-serif" font-size="14" lengthAdjust="spacing" textLength="48.2549" x="618.2988" y="69.9951">Enemy</text></g><g class="participant participant-tail" data-participant="Enemy"><rect fill="#E2E2F0" height="30.2969" rx="2.5" ry="2.5" style="stroke:#181818;stroke-width:0.5;" width="62.2549" x="611.2988" y="1742.1641"/><text fill="#000000" font-family="sans-serif" font-size="14" lengthAdjust="spacing" textLength="48.2549" x="618.2988" y="1762.1592">Enemy</text></g><g class="participant participant-head" data-participant="Item"><rect fill="#E2E2F0" height="30.2969" rx="2.5" ry="2.5" style="stroke:#181818;stroke-width:0.5;" width="45.8691" x="683.5537" y="50"/><text fill="#000000" font-family="sans-serif" font-size="14" lengthAdjust="spacing" textLength="31.8691" x="690.5537" y="69.9951">Item</text></g><g class="participant participant-tail" data-participant="Item"><rect fill="#E2E2F0" height="30.2969" rx="2.5" ry="2.5" style="stroke:#181818;stroke-width:0.5;" width="45.8691" x="683.5537" y="1742.1641"/><text fill="#000000" font-family="sans-serif" font-size="14" lengthAdjust="spacing" textLength="31.8691" x="690.5537" y="1762.1592">Item</text></g><g class="participant participant-head" data-participant="Obstacle"><rect fill="#E2E2F0" height="30.2969" rx="2.5" ry="2.5" style="stroke:#181818;stroke-width:0.5;" width="75.4688" x="739.4229" y="50"/><text fill="#000000" font-family="sans-serif" font-size="14" lengthAdjust="spacing" textLength="61.4688" x="746.4229" y="69.9951">Obstacle</text></g><g class="participant participant-tail" data-participant="Obstacle"><rect fill="#E2E2F0" height="30.2969" rx="2.5" ry="2.5" style="stroke:#181818;stroke-width:0.5;" width="75.4688" x="739.4229" y="1742.1641"/><text fill="#000000" font-family="sans-serif" font-size="14" lengthAdjust="spacing" textLength="61.4688" x="746.4229" y="1762.1592">Obstacle</text></g><g class="participant participant-head" data-participant="Timer"><rect fill="#E2E2F0" height="30.2969" rx="2.5" ry="2.5" style="stroke:#181818;stroke-width:0.5;" width="54.4482" x="824.8916" y="50"/><text fill="#000000" font-family="sans-serif" font-size="14" lengthAdjust="spacing" textLength="40.4482" x="831.8916" y="69.9951">Timer</text></g><g class="participant participant-tail" data-participant="Timer"><rect fill="#E2E2F0" height="30.2969" rx="2.5" ry="2.5" style="stroke:#181818;stroke-width:0.5;" width="54.4482" x="824.8916" y="1742.1641"/><text fill="#000000" font-family="sans-serif" font-size="14" lengthAdjust="spacing" textLength="40.4482" x="831.8916" y="1762.1592">Timer</text></g><g class="message" data-participant-1="Player" data-participant-2="Engine"><polygon fill="#181818" points="369.4365,108.4297,379.4365,112.4297,369.4365,116.4297,373.4365,112.4297" style="stroke:#181818;stroke-width:1;"/><line style="stroke:#181818;stroke-width:1;" x1="44.7827" x2="375.4365" y1="112.4297" y2="112.4297"/><text fill="#000000" font-family="sans-serif" font-size="13" lengthAdjust="spacing" textLength="72.7695" x="51.7827" y="107.3638">Start game</text></g><g class="message" data-participant-1="Engine" data-participant-2="Timer"><polygon fill="#181818" points="840.1157,137.5625,850.1157,141.5625,840.1157,145.5625,844.1157,141.5625" style="stroke:#181818;stroke-width:1;"/><line style="stroke:#181818;stroke-width:1;" x1="381.4365" x2="846.1157" y1="141.5625" y2="141.5625"/><text fill="#000000" font-family="sans-serif" font-size="13" lengthAdjust="spacing" textLength="110.208" x="388.4365" y="136.4966">Start 5 Min timer</text></g><g class="message" data-participant-1="Timer" data-participant-2="Player"><polygon fill="#181818" points="55.7827,166.6953,45.7827,170.6953,55.7827,174.6953,51.7827,170.6953" style="stroke:#181818;stroke-width:1;"/><line style="stroke:#181818;stroke-width:1;" x1="49.7827" x2="851.1157" y1="170.6953" y2="170.6953"/><text fill="#000000" font-family="sans-serif" font-size="13" lengthAdjust="spacing" textLength="136.0684" x="61.7827" y="165.6294">Show timer in corner</text></g><g class="message" data-participant-1="Engine" data-participant-2="Enemy"><polygon fill="#181818" points="630.4263,195.8281,640.4263,199.8281,630.4263,203.8281,634.4263,199.8281" style="stroke:#181818;stroke-width:1;"/><line style="stroke:#181818;stroke-width:1;" x1="381.4365" x2="636.4263" y1="199.8281" y2="199.8281"/><text fill="#000000" font-family="sans-serif" font-size="13" lengthAdjust="spacing" textLength="236.9897" x="388.4365" y="194.7622">Spawn enemies at random locations</text></g><g class="message" data-participant-1="Engine" data-participant-2="Item"><polygon fill="#181818" points="694.4883,224.9609,704.4883,228.9609,694.4883,232.9609,698.4883,228.9609" style="stroke:#181818;stroke-width:1;"/><line style="stroke:#181818;stroke-width:1;" x1="381.4365" x2="700.4883" y1="228.9609" y2="228.9609"/><text fill="#000000" font-family="sans-serif" font-size="13" lengthAdjust="spacing" textLength="212.2593" x="388.4365" y="223.895">Spawn keys, food/drink, LongBoi</text></g><g class="message" data-participant-1="Engine" data-participant-2="Player"><polygon fill="#181818" points="55.7827,254.0938,45.7827,258.0938,55.7827,262.0938,51.7827,258.0938" style="stroke:#181818;stroke-width:1;"/><line style="stroke:#181818;stroke-width:1;" x1="49.7827" x2="380.4365" y1="258.0938" y2="258.0938"/><text fill="#000000" font-family="sans-serif" font-size="13" lengthAdjust="spacing" textLength="236.4565" x="61.7827" y="253.0278">Set initial position and energy to full</text></g><g class="message" data-participant-1="Engine" data-participant-2="Player"><polygon fill="#181818" points="55.7827,283.2266,45.7827,287.2266,55.7827,291.2266,51.7827,287.2266" style="stroke:#181818;stroke-width:1;"/><line style="stroke:#181818;stroke-width:1;" x1="49.7827" x2="380.4365" y1="287.2266" y2="287.2266"/><text fill="#000000" font-family="sans-serif" font-size="13" lengthAdjust="spacing" textLength="123.2715" x="61.7827" y="282.1606">Display energy bar</text></g><path d="M10,302.2266 L74.4429,302.2266 L74.4429,309.3594 L64.4429,319.3594 L10,319.3594 L10,302.2266" fill="#EEEEEE" style="stroke:#000000;stroke-width:1.5;"/><rect fill="none" height="294.1328" style="stroke:#000000;stroke-width:1.5;" width="879.3398" x="10" y="302.2266"/><text fill="#000000" font-family="sans-serif" font-size="13" font-weight="bold" lengthAdjust="spacing" textLength="19.4429" x="25" y="315.2935">alt</text><text fill="#000000" font-family="sans-serif" font-size="11" font-weight="bold" lengthAdjust="spacing" textLength="75.2222" x="89.4429" y="314.437">[Timer != 0]</text><g class="message" data-participant-1="Engine" data-participant-2="Timer"><polygon fill="#181818" points="840.1157,336.4922,850.1157,340.4922,840.1157,344.4922,844.1157,340.4922" style="stroke:#181818;stroke-width:1;"/><line style="stroke:#181818;stroke-width:1;" x1="381.4365" x2="846.1157" y1="340.4922" y2="340.4922"/><text fill="#000000" font-family="sans-serif" font-size="13" lengthAdjust="spacing" textLength="170.4917" x="388.4365" y="335.4263">Reduce timer by 1 second</text></g><g class="message" data-participant-1="Timer" data-participant-2="Engine"><polygon fill="#181818" points="392.4365,365.625,382.4365,369.625,392.4365,373.625,388.4365,369.625" style="stroke:#181818;stroke-width:1;"/><line style="stroke:#181818;stroke-width:1;" x1="386.4365" x2="851.1157" y1="369.625" y2="369.625"/><text fill="#000000" font-family="sans-serif" font-size="13" lengthAdjust="spacing" textLength="80.5835" x="398.4365" y="364.5591">Update time</text></g><g class="message" data-participant-1="Engine" data-participant-2="Player"><polygon fill="#181818" points="55.7827,394.7578,45.7827,398.7578,55.7827,402.7578,51.7827,398.7578" style="stroke:#181818;stroke-width:1;"/><line style="stroke:#181818;stroke-width:1;" x1="49.7827" x2="380.4365" y1="398.7578" y2="398.7578"/><text fill="#000000" font-family="sans-serif" font-size="13" lengthAdjust="spacing" textLength="126.769" x="61.7827" y="393.6919">Show updated time</text></g><line style="stroke:#000000;stroke-width:1;stroke-dasharray:2.0,2.0;" x1="10" x2="889.3398" y1="407.7578" y2="407.7578"/><text fill="#000000" font-family="sans-serif" font-size="11" font-weight="bold" lengthAdjust="spacing" textLength="64.7808" x="15" y="417.9683">[Time = 0]</text><g class="message" data-participant-1="Timer" data-participant-2="Engine"><polygon fill="#181818" points="392.4365,438.6953,382.4365,442.6953,392.4365,446.6953,388.4365,442.6953" style="stroke:#181818;stroke-width:1;"/><line style="stroke:#181818;stroke-width:1;" x1="386.4365" x2="851.1157" y1="442.6953" y2="442.6953"/><text fill="#000000" font-family="sans-serif" font-size="13" lengthAdjust="spacing" textLength="110.1699" x="398.4365" y="437.6294">Update time to 0</text></g><g class="message" data-participant-1="Engine" data-participant-2="Player"><polygon fill="#181818" points="55.7827,467.8281,45.7827,471.8281,55.7827,475.8281,51.7827,471.8281" style="stroke:#181818;stroke-width:1;"/><line style="stroke:#181818;stroke-width:1;" x1="49.7827" x2="380.4365" y1="471.8281" y2="471.8281"/><text fill="#000000" font-family="sans-serif" font-size="13" lengthAdjust="spacing" textLength="187.6177" x="61.7827" y="466.7622">Alert player that time is over</text></g><g class="message" data-participant-1="Player" data-participant-2="Engine"><polygon fill="#181818" points="369.4365,496.9609,379.4365,500.9609,369.4365,504.9609,373.4365,500.9609" style="stroke:#181818;stroke-width:1;"/><line style="stroke:#181818;stroke-width:1;" x1="44.7827" x2="375.4365" y1="500.9609" y2="500.9609"/><text fill="#000000" font-family="sans-serif" font-size="13" lengthAdjust="spacing" textLength="241.8965" x="51.7827" y="495.895">Can no longer make any more inputs</text></g><g class="message" data-participant-1="Engine" data-participant-2="Player"><polygon fill="#181818" points="55.7827,526.0938,45.7827,530.0938,55.7827,534.0938,51.7827,530.0938" style="stroke:#181818;stroke-width:1;"/><line style="stroke:#181818;stroke-width:1;" x1="49.7827" x2="380.4365" y1="530.0938" y2="530.0938"/><text fill="#000000" font-family="sans-serif" font-size="13" lengthAdjust="spacing" textLength="65.7173" x="61.7827" y="525.0278">End game</text></g><g class="message" data-participant-1="Engine" data-participant-2="Player"><polygon fill="#181818" points="55.7827,555.2266,45.7827,559.2266,55.7827,563.2266,51.7827,559.2266" style="stroke:#181818;stroke-width:1;"/><line style="stroke:#181818;stroke-width:1;" x1="49.7827" x2="380.4365" y1="559.2266" y2="559.2266"/><text fill="#000000" font-family="sans-serif" font-size="13" lengthAdjust="spacing" textLength="290.7163" x="61.7827" y="554.1606">Show player end screen, e.g. time/score etc.</text></g><g class="message" data-participant-1="Engine" data-participant-2="Player"><polygon fill="#181818" points="55.7827,584.3594,45.7827,588.3594,55.7827,592.3594,51.7827,588.3594" style="stroke:#181818;stroke-width:1;"/><line style="stroke:#181818;stroke-width:1;" x1="49.7827" x2="380.4365" y1="588.3594" y2="588.3594"/><text fill="#000000" font-family="sans-serif" font-size="13" lengthAdjust="spacing" textLength="180.7114" x="61.7827" y="583.2935">Return Player to Main Menu</text></g><path d="M10,610.3594 L74.4429,610.3594 L74.4429,617.4922 L64.4429,627.4922 L10,627.4922 L10,610.3594" fill="#EEEEEE" style="stroke:#000000;stroke-width:1.5;"/><rect fill="none" height="75.3984" style="stroke:#000000;stroke-width:1.5;" width="412.4272" x="10" y="610.3594"/><text fill="#000000" font-family="sans-serif" font-size="13" font-weight="bold" lengthAdjust="spacing" textLength="19.4429" x="25" y="623.4263">alt</text><text fill="#000000" font-family="sans-serif" font-size="11" font-weight="bold" lengthAdjust="spacing" textLength="129.2715" x="89.4429" y="622.5698">[Time &lt;= 60 second]</text><g class="message" data-participant-1="Engine" data-participant-2="Player"><polygon fill="#181818" points="55.7827,644.625,45.7827,648.625,55.7827,652.625,51.7827,648.625" style="stroke:#181818;stroke-width:1;"/><line style="stroke:#181818;stroke-width:1;" x1="49.7827" x2="380.4365" y1="648.625" y2="648.625"/><text fill="#000000" font-family="sans-serif" font-size="13" lengthAdjust="spacing" textLength="175.9126" x="61.7827" y="643.5591">Change timer colour to red</text></g><g class="message" data-participant-1="Engine" data-participant-2="Player"><polygon fill="#181818" points="55.7827,673.7578,45.7827,677.7578,55.7827,681.7578,51.7827,677.7578" style="stroke:#181818;stroke-width:1;"/><line style="stroke:#181818;stroke-width:1;" x1="49.7827" x2="380.4365" y1="677.7578" y2="677.7578"/><text fill="#000000" font-family="sans-serif" font-size="13" lengthAdjust="spacing" textLength="192.772" x="61.7827" y="672.6919">Alert player with sound effect</text></g><path d="M10,699.7578 L74.4429,699.7578 L74.4429,706.8906 L64.4429,716.8906 L10,716.8906 L10,699.7578" fill="#EEEEEE" style="stroke:#000000;stroke-width:1.5;"/><rect fill="none" height="206.7344" style="stroke:#000000;stroke-width:1.5;" width="673.5537" x="10" y="699.7578"/><text fill="#000000" font-family="sans-serif" font-size="13" font-weight="bold" lengthAdjust="spacing" textLength="19.4429" x="25" y="712.8247">alt</text><text fill="#000000" font-family="sans-serif" font-size="11" font-weight="bold" lengthAdjust="spacing" textLength="146.9639" x="89.4429" y="711.9683">[Player close to Enemy]</text><g class="message" data-participant-1="Enemy" data-participant-2="Engine"><polygon fill="#181818" points="392.4365,734.0234,382.4365,738.0234,392.4365,742.0234,388.4365,738.0234" style="stroke:#181818;stroke-width:1;"/><line style="stroke:#181818;stroke-width:1;" x1="386.4365" x2="641.4263" y1="738.0234" y2="738.0234"/><text fill="#000000" font-family="sans-serif" font-size="13" lengthAdjust="spacing" textLength="144.0601" x="398.4365" y="732.9575">Detect player location</text></g><g class="message" data-participant-1="Engine" data-participant-2="Player"><polygon fill="#181818" points="55.7827,763.1563,45.7827,767.1563,55.7827,771.1563,51.7827,767.1563" style="stroke:#181818;stroke-width:1;"/><line style="stroke:#181818;stroke-width:1;" x1="49.7827" x2="380.4365" y1="767.1563" y2="767.1563"/><text fill="#000000" font-family="sans-serif" font-size="13" lengthAdjust="spacing" textLength="79.625" x="61.7827" y="762.0903">Lose energy</text></g><g class="message" data-participant-1="Engine" data-participant-2="Player"><polygon fill="#181818" points="55.7827,792.2891,45.7827,796.2891,55.7827,800.2891,51.7827,796.2891" style="stroke:#181818;stroke-width:1;"/><line style="stroke:#181818;stroke-width:1;" x1="49.7827" x2="380.4365" y1="796.2891" y2="796.2891"/><text fill="#000000" font-family="sans-serif" font-size="13" lengthAdjust="spacing" textLength="104.6411" x="61.7827" y="791.2231">Decrease speed</text></g><line style="stroke:#000000;stroke-width:1;stroke-dasharray:2.0,2.0;" x1="10" x2="683.5537" y1="805.2891" y2="805.2891"/><text fill="#000000" font-family="sans-serif" font-size="11" font-weight="bold" lengthAdjust="spacing" textLength="139.9707" x="15" y="815.4995">[Player has duck food]</text><g class="message" data-participant-1="Player" data-participant-2="Engine"><polygon fill="#181818" points="369.4365,836.2266,379.4365,840.2266,369.4365,844.2266,373.4365,840.2266" style="stroke:#181818;stroke-width:1;"/><line style="stroke:#181818;stroke-width:1;" x1="44.7827" x2="375.4365" y1="840.2266" y2="840.2266"/><text fill="#000000" font-family="sans-serif" font-size="13" lengthAdjust="spacing" textLength="183.6948" x="51.7827" y="835.1606">Duck food in Player's hotbar</text></g><g class="message" data-participant-1="Engine" data-participant-2="Enemy"><polygon fill="#181818" points="630.4263,865.3594,640.4263,869.3594,630.4263,873.3594,634.4263,869.3594" style="stroke:#181818;stroke-width:1;"/><line style="stroke:#181818;stroke-width:1;" x1="381.4365" x2="636.4263" y1="869.3594" y2="869.3594"/><text fill="#000000" font-family="sans-serif" font-size="13" lengthAdjust="spacing" textLength="86.6201" x="388.4365" y="864.2935">Ignore player</text></g><g class="message" data-participant-1="Enemy" data-participant-2="Player"><polygon fill="#181818" points="55.7827,894.4922,45.7827,898.4922,55.7827,902.4922,51.7827,898.4922" style="stroke:#181818;stroke-width:1;"/><line style="stroke:#181818;stroke-width:1;" x1="49.7827" x2="641.4263" y1="898.4922" y2="898.4922"/><text fill="#000000" font-family="sans-serif" font-size="13" lengthAdjust="spacing" textLength="66.5488" x="61.7827" y="893.4263">No impact</text></g><g class="message" data-participant-1="Engine" data-participant-2="Player"><polygon fill="#181818" points="55.7827,930.625,45.7827,934.625,55.7827,938.625,51.7827,934.625" style="stroke:#181818;stroke-width:1;"/><line style="stroke:#181818;stroke-width:1;" x1="49.7827" x2="380.4365" y1="934.625" y2="934.625"/><text fill="#000000" font-family="sans-serif" font-size="13" lengthAdjust="spacing" textLength="161.5288" x="61.7827" y="929.5591">Gradually reduce energy</text></g><path d="M10,949.625 L74.4429,949.625 L74.4429,956.7578 L64.4429,966.7578 L10,966.7578 L10,949.625" fill="#EEEEEE" style="stroke:#000000;stroke-width:1.5;"/><rect fill="none" height="46.2656" style="stroke:#000000;stroke-width:1.5;" width="412.4272" x="10" y="949.625"/><text fill="#000000" font-family="sans-serif" font-size="13" font-weight="bold" lengthAdjust="spacing" textLength="19.4429" x="25" y="962.6919">alt</text><text fill="#000000" font-family="sans-serif" font-size="11" font-weight="bold" lengthAdjust="spacing" textLength="143.3223" x="89.4429" y="961.8354">[energy &lt;= threshold:]</text><g class="message" data-participant-1="Engine" data-participant-2="Player"><polygon fill="#181818" points="55.7827,983.8906,45.7827,987.8906,55.7827,991.8906,51.7827,987.8906" style="stroke:#181818;stroke-width:1;"/><line style="stroke:#181818;stroke-width:1;" x1="49.7827" x2="380.4365" y1="987.8906" y2="987.8906"/><text fill="#000000" font-family="sans-serif" font-size="13" lengthAdjust="spacing" textLength="215.6616" x="61.7827" y="982.8247">Player movement speed reduced</text></g><g class="message" data-participant-1="Player" data-participant-2="Engine"><polygon fill="#181818" points="369.4365,1020.0234,379.4365,1024.0234,369.4365,1028.0234,373.4365,1024.0234" style="stroke:#181818;stroke-width:1;"/><line style="stroke:#181818;stroke-width:1;" x1="44.7827" x2="375.4365" y1="1024.0234" y2="1024.0234"/><text fill="#000000" font-family="sans-serif" font-size="13" lengthAdjust="spacing" textLength="158.812" x="51.7827" y="1018.9575">Player chooses direction</text></g><g class="message" data-participant-1="Engine" data-participant-2="Obstacle"><polygon fill="#181818" points="765.1572,1049.1563,775.1572,1053.1563,765.1572,1057.1563,769.1572,1053.1563" style="stroke:#181818;stroke-width:1;"/><line style="stroke:#181818;stroke-width:1;" x1="381.4365" x2="771.1572" y1="1053.1563" y2="1053.1563"/><text fill="#000000" font-family="sans-serif" font-size="13" lengthAdjust="spacing" textLength="187.5098" x="388.4365" y="1048.0903">Checks if there's an obstacle</text></g><path d="M10,1068.1563 L74.4429,1068.1563 L74.4429,1075.2891 L64.4429,1085.2891 L10,1085.2891 L10,1068.1563" fill="#EEEEEE" style="stroke:#000000;stroke-width:1.5;"/><rect fill="none" height="119.3359" style="stroke:#000000;stroke-width:1.5;" width="814.8916" x="10" y="1068.1563"/><text fill="#000000" font-family="sans-serif" font-size="13" font-weight="bold" lengthAdjust="spacing" textLength="19.4429" x="25" y="1081.2231">alt</text><text fill="#000000" font-family="sans-serif" font-size="11" font-weight="bold" lengthAdjust="spacing" textLength="173.5024" x="89.4429" y="1080.3667">[Obstacle in front of player]</text><g class="message" data-participant-1="Obstacle" data-participant-2="Engine"><polygon fill="#181818" points="392.4365,1102.4219,382.4365,1106.4219,392.4365,1110.4219,388.4365,1106.4219" style="stroke:#181818;stroke-width:1;"/><line style="stroke:#181818;stroke-width:1;" x1="386.4365" x2="776.1572" y1="1106.4219" y2="1106.4219"/><text fill="#000000" font-family="sans-serif" font-size="13" lengthAdjust="spacing" textLength="166.0039" x="398.4365" y="1101.356">Player can't pass through</text></g><g class="message" data-participant-1="Engine" data-participant-2="Player"><polygon fill="#181818" points="55.7827,1131.5547,45.7827,1135.5547,55.7827,1139.5547,51.7827,1135.5547" style="stroke:#181818;stroke-width:1;"/><line style="stroke:#181818;stroke-width:1;" x1="49.7827" x2="380.4365" y1="1135.5547" y2="1135.5547"/><text fill="#000000" font-family="sans-serif" font-size="13" lengthAdjust="spacing" textLength="79.4346" x="61.7827" y="1130.4888">Player stops</text></g><line style="stroke:#000000;stroke-width:1;stroke-dasharray:2.0,2.0;" x1="10" x2="824.8916" y1="1144.5547" y2="1144.5547"/><text fill="#000000" font-family="sans-serif" font-size="11" font-weight="bold" lengthAdjust="spacing" textLength="84.8525" x="15" y="1154.7651">[No Obstacle]</text><g class="message" data-participant-1="Engine" data-participant-2="Player"><polygon fill="#181818" points="55.7827,1175.4922,45.7827,1179.4922,55.7827,1183.4922,51.7827,1179.4922" style="stroke:#181818;stroke-width:1;"/><line style="stroke:#181818;stroke-width:1;" x1="49.7827" x2="380.4365" y1="1179.4922" y2="1179.4922"/><text fill="#000000" font-family="sans-serif" font-size="13" lengthAdjust="spacing" textLength="176.668" x="61.7827" y="1174.4263">Player continues as normal</text></g><g class="message" data-participant-1="Engine" data-participant-2="Room"><polygon fill="#181818" points="549.0938,1211.625,559.0938,1215.625,549.0938,1219.625,553.0938,1215.625" style="stroke:#181818;stroke-width:1;"/><line style="stroke:#181818;stroke-width:1;" x1="381.4365" x2="555.0938" y1="1215.625" y2="1215.625"/><text fill="#000000" font-family="sans-serif" font-size="13" lengthAdjust="spacing" textLength="155.6572" x="388.4365" y="1210.5591">Check room is unlocked</text></g><path d="M10,1230.625 L74.4429,1230.625 L74.4429,1237.7578 L64.4429,1247.7578 L10,1247.7578 L10,1230.625" fill="#EEEEEE" style="stroke:#000000;stroke-width:1.5;"/><rect fill="none" height="119.3359" style="stroke:#000000;stroke-width:1.5;" width="412.4272" x="10" y="1230.625"/><text fill="#000000" font-family="sans-serif" font-size="13" font-weight="bold" lengthAdjust="spacing" textLength="19.4429" x="25" y="1243.6919">alt</text><text fill="#000000" font-family="sans-serif" font-size="11" font-weight="bold" lengthAdjust="spacing" textLength="119.2383" x="89.4429" y="1242.8354">[Room is unlocked]</text><g class="message" data-participant-1="Engine" data-participant-2="Player"><polygon fill="#181818" points="55.7827,1264.8906,45.7827,1268.8906,55.7827,1272.8906,51.7827,1268.8906" style="stroke:#181818;stroke-width:1;"/><line style="stroke:#181818;stroke-width:1;" x1="49.7827" x2="380.4365" y1="1268.8906" y2="1268.8906"/><text fill="#000000" font-family="sans-serif" font-size="13" lengthAdjust="spacing" textLength="72.9409" x="61.7827" y="1263.8247">Enter room</text></g><line style="stroke:#000000;stroke-width:1;stroke-dasharray:2.0,2.0;" x1="10" x2="422.4272" y1="1277.8906" y2="1277.8906"/><text fill="#000000" font-family="sans-serif" font-size="11" font-weight="bold" lengthAdjust="spacing" textLength="103.5762" x="15" y="1288.1011">[Room is locked]</text><g class="message" data-participant-1="Engine" data-participant-2="Player"><polygon fill="#181818" points="55.7827,1308.8281,45.7827,1312.8281,55.7827,1316.8281,51.7827,1312.8281" style="stroke:#181818;stroke-width:1;"/><line style="stroke:#181818;stroke-width:1;" x1="49.7827" x2="380.4365" y1="1312.8281" y2="1312.8281"/><text fill="#000000" font-family="sans-serif" font-size="13" lengthAdjust="spacing" textLength="153.4863" x="61.7827" y="1307.7622">Cannot enter, need key</text></g><g class="message" data-participant-1="Engine" data-participant-2="Player"><polygon fill="#181818" points="55.7827,1337.9609,45.7827,1341.9609,55.7827,1345.9609,51.7827,1341.9609" style="stroke:#181818;stroke-width:1;"/><line style="stroke:#181818;stroke-width:1;" x1="49.7827" x2="380.4365" y1="1341.9609" y2="1341.9609"/><text fill="#000000" font-family="sans-serif" font-size="13" lengthAdjust="spacing" textLength="112.9375" x="61.7827" y="1336.895">Hint where key is</text></g><g class="message" data-participant-1="Item" data-participant-2="Engine"><polygon fill="#181818" points="392.4365,1374.0938,382.4365,1378.0938,392.4365,1382.0938,388.4365,1378.0938" style="stroke:#181818;stroke-width:1;"/><line style="stroke:#181818;stroke-width:1;" x1="386.4365" x2="705.4883" y1="1378.0938" y2="1378.0938"/><text fill="#000000" font-family="sans-serif" font-size="13" lengthAdjust="spacing" textLength="187.4653" x="398.4365" y="1373.0278">Place items on the floor/map</text></g><g class="message" data-participant-1="Engine" data-participant-2="Player"><polygon fill="#181818" points="55.7827,1403.2266,45.7827,1407.2266,55.7827,1411.2266,51.7827,1407.2266" style="stroke:#181818;stroke-width:1;"/><line style="stroke:#181818;stroke-width:1;" x1="49.7827" x2="380.4365" y1="1407.2266" y2="1407.2266"/><text fill="#000000" font-family="sans-serif" font-size="13" lengthAdjust="spacing" textLength="203.3789" x="61.7827" y="1402.1606">Make items interactable/visible</text></g><g class="message" data-participant-1="Player" data-participant-2="Engine"><polygon fill="#181818" points="369.4365,1432.3594,379.4365,1436.3594,369.4365,1440.3594,373.4365,1436.3594" style="stroke:#181818;stroke-width:1;"/><line style="stroke:#181818;stroke-width:1;" x1="44.7827" x2="375.4365" y1="1436.3594" y2="1436.3594"/><text fill="#000000" font-family="sans-serif" font-size="13" lengthAdjust="spacing" textLength="116.1621" x="51.7827" y="1431.2935">Interact with Item</text></g><path d="M10,1451.3594 L74.4429,1451.3594 L74.4429,1458.4922 L64.4429,1468.4922 L10,1468.4922 L10,1451.3594" fill="#EEEEEE" style="stroke:#000000;stroke-width:1.5;"/><rect fill="none" height="148.4688" style="stroke:#000000;stroke-width:1.5;" width="729.4229" x="10" y="1451.3594"/><text fill="#000000" font-family="sans-serif" font-size="13" font-weight="bold" lengthAdjust="spacing" textLength="19.4429" x="25" y="1464.4263">alt</text><text fill="#000000" font-family="sans-serif" font-size="11" font-weight="bold" lengthAdjust="spacing" textLength="132.2524" x="89.4429" y="1463.5698">[Item is key/LongBoi]</text><g class="message" data-participant-1="Engine" data-participant-2="Player"><polygon fill="#181818" points="55.7827,1485.625,45.7827,1489.625,55.7827,1493.625,51.7827,1489.625" style="stroke:#181818;stroke-width:1;"/><line style="stroke:#181818;stroke-width:1;" x1="49.7827" x2="380.4365" y1="1489.625" y2="1489.625"/><text fill="#000000" font-family="sans-serif" font-size="13" lengthAdjust="spacing" textLength="205.2451" x="61.7827" y="1484.5591">Player sees Item in their hotbar</text></g><line style="stroke:#000000;stroke-width:1;stroke-dasharray:2.0,2.0;" x1="10" x2="739.4229" y1="1498.625" y2="1498.625"/><text fill="#000000" font-family="sans-serif" font-size="11" font-weight="bold" lengthAdjust="spacing" textLength="120.3125" x="15" y="1508.8354">[Item is food/drink]</text><g class="message" data-participant-1="Engine" data-participant-2="Item"><polygon fill="#181818" points="694.4883,1529.5625,704.4883,1533.5625,694.4883,1537.5625,698.4883,1533.5625" style="stroke:#181818;stroke-width:1;"/><line style="stroke:#181818;stroke-width:1;" x1="381.4365" x2="700.4883" y1="1533.5625" y2="1533.5625"/><text fill="#000000" font-family="sans-serif" font-size="13" lengthAdjust="spacing" textLength="169.3428" x="388.4365" y="1528.4966">Player consumes the item</text></g><g class="message" data-participant-1="Item" data-participant-2="Engine"><polygon fill="#181818" points="392.4365,1558.6953,382.4365,1562.6953,392.4365,1566.6953,388.4365,1562.6953" style="stroke:#181818;stroke-width:1;"/><line style="stroke:#181818;stroke-width:1;" x1="386.4365" x2="705.4883" y1="1562.6953" y2="1562.6953"/><text fill="#000000" font-family="sans-serif" font-size="13" lengthAdjust="spacing" textLength="179.9941" x="398.4365" y="1557.6294">Remove item from the map</text></g><g class="message" data-participant-1="Engine" data-participant-2="Player"><polygon fill="#181818" points="55.7827,1587.8281,45.7827,1591.8281,55.7827,1595.8281,51.7827,1591.8281" style="stroke:#181818;stroke-width:1;"/><line style="stroke:#181818;stroke-width:1;" x1="49.7827" x2="380.4365" y1="1591.8281" y2="1591.8281"/><text fill="#000000" font-family="sans-serif" font-size="13" lengthAdjust="spacing" textLength="137.4204" x="61.7827" y="1586.7622">Energy bar increases</text></g><g class="message" data-participant-1="Player" data-participant-2="Engine"><polygon fill="#181818" points="369.4365,1648.0938,379.4365,1652.0938,369.4365,1656.0938,373.4365,1652.0938" style="stroke:#181818;stroke-width:1;"/><line style="stroke:#181818;stroke-width:1;" x1="44.7827" x2="375.4365" y1="1652.0938" y2="1652.0938"/><text fill="#000000" font-family="sans-serif" font-size="13" lengthAdjust="spacing" textLength="106.4565" x="51.7827" y="1647.0278">Reach exit (bus)</text></g><g class="message" data-participant-1="Engine" data-participant-2="Player"><polygon fill="#181818" points="55.7827,1677.2266,45.7827,1681.2266,55.7827,1685.2266,51.7827,1681.2266" style="stroke:#181818;stroke-width:1;"/><line style="stroke:#181818;stroke-width:1;" x1="49.7827" x2="380.4365" y1="1681.2266" y2="1681.2266"/><text fill="#000000" font-family="sans-serif" font-size="13" lengthAdjust="spacing" textLength="312.6538" x="61.7827" y="1676.1606">Display that the player has won and show score</text></g><g class="message" data-participant-1="Engine" data-participant-2="Player"><polygon fill="#181818" points="55.7827,1721.1641,45.7827,1725.1641,55.7827,1729.1641,51.7827,1725.1641" style="stroke:#181818;stroke-width:1;"/><line style="stroke:#181818;stroke-width:1;" x1="49.7827" x2="380.4365" y1="1725.1641" y2="1725.1641"/><text fill="#000000" font-family="sans-serif" font-size="13" lengthAdjust="spacing" textLength="71.8237" x="61.7827" y="1720.0981">Game over</text></g><!--SRC=[ZLRRZkD447ttLnJYmOCqCnaUu674Wc1djQoqmwu2V437hjYjsDsckxqXV3sd-fB9TI1FaRkkfqvTQi-JSYemjLfrJesqjev6fGsDREQVID_pFNaEGPlEqy2gPRUoohLrLTLG3RhHapB1Fz8qg1sxMtBMZhV4fjE6RwcprdDTrPx_cjaqBuxkefjXHoqtscjhF4og9i3_vsY9lbvoMntue7VHvj6d9PoToF2uE_ho8V2noAUL3wePZWtzeKTs5PB2cmjarnHwfawD2BxA0Ttzc4DufD-Zb3nNwPCyHXlbxJjw1eeXceqF8f4CGQIts_H646giCybvurW5O57yZ-eVhWuynEoWFgcj0SGyQlQa0ZbbMZlIO9kexWzK9FsYiU6TlqM9RRjedJQRM_feJVUBrGVo-n0v83OTj1feibx7iE16tBfkHy7IUXw62vfFsWiNYk1AnTHYjezIuo6ZJL-zeOUAy3k349MVmPM4q6f7tuA3ZJLjbDwZMOhnvzGAXKNwnDmHtdCKQvDSnOFdQ8eaYgXNZse3pAq3IpaeFK3uJbg0T2f7eZZrojDMYkJ8s82Seh8Ql2NLjYZdO6T7JQzCX_98H-bniYu8pyGvQi3ttJso6b7zWTUXhlupCm7yuKfwFmyCnkNeGg-I6zAUx1SGIvJEAVnM6OGFpY1AwNcahimkfQ_DD0T_nTixa20o_nMiSomCKGzIiyafIrmBtuWF3itz5HDB3hCp9MOa_YmJwHaJ2NK32_OSeX_UqFSFX-GuD_OsrY5pATS69Xst_mVDhGuzUJiByTThRaAEeAhZPACRwSBTDuNOEUHca3TuIUCe-S6_G_oVEC1SyLDQzqfC7yLUQgWh4ayimmDIVcAablZz-OMmQAXDRFqhT7WgxpAHqdFjgRT1-lVOPPv27peZTKm97ETOWlhD2lNL0MfvAFYTnroggmlZuxrJxQm6R0QNfa1EE-ARrL7sq3lslHtQnok0v1H7j01sMKYuP9ljFfxfMEhnuhGlLUsbv81IErHEYlNYjImLuHit6vz7XcE0Y4QpPUV4B8gmGBrsriHzSu3Z_lr23ChK88toNX2mSzU_dhuFTlAP3QZ6VlUzgeHkmiAVPRTup0Wtgc4FcAntlsYjTVwmUhA8S-xn0f3XCnkmUiEvNvUdNwzDbu08n4IEkkYzgeLXXb4CUWGvGOnK6ilkYl2l6eXlfJWY1Dlxv3H8wOK3iZLFq0SJupDXyiioM0_0O36gwGA7dsMQ9caj8Q43r6hWnHTSEYjXmJd7FcIvD77YqH9XYv4WVKIwADlwzOepwfQqOg3QbIvEU1Q3BsV0YRrqCRnGmSzOMJ5boIWAdyApP6cW-2w47lFnCbsjSRaC46CQM_wq8xVQ-FqDHZUofbPMI-0kRWTKMAwHkBT4R3NxqoaiOoz35cNZnjWV7USbMB9gUkA_TQ0RCNTjqkRx9YtQyxD0N7bPWd7F7K_YrhAN1kuLu2gnuK08vH2vxFAzO22x_5y0]--></g></svg>