<svg xmlns="http://www.w3.org/2000/svg" xmlns:xlink="http://www.w3.org/1999/xlink" contentStyleType="text/css" data-diagram-type="SEQUENCE" height="782px" preserveAspectRatio="none" style="width:750px;height:782px;background:#FFFFFF;" version="1.1" viewBox="0 0 750 782" width="750px" zoomAndPan="magnify"><defs/><g><rect fill="none" height="177.6016" style="stroke:#000000;stroke-width:1.5;" width="670.9927" x="10" y="331.3594"/><rect fill="none" height="161.4688" style="stroke:#000000;stroke-width:1.5;" width="615.1235" x="10" y="522.9609"/><g><title>Player</title><rect fill="#000000" fill-opacity="0.00000" height="620.1328" width="8" x="40.7827" y="81.2969"/><line style="stroke:#181818;stroke-width:0.5;stroke-dasharray:5.0,5.0;" x1="44" x2="44" y1="81.2969" y2="701.4297"/></g><g><title>Engine</title><rect fill="#000000" fill-opacity="0.00000" height="620.1328" width="8" x="377.4365" y="81.2969"/><line style="stroke:#181818;stroke-width:0.5;stroke-dasharray:5.0,5.0;" x1="380.4458" x2="380.4458" y1="81.2969" y2="701.4297"/></g><g><title>Timer</title><rect fill="#000000" fill-opacity="0.00000" height="620.1328" width="8" x="511.6445" y="81.2969"/><line style="stroke:#181818;stroke-width:0.5;stroke-dasharray:5.0,5.0;" x1="515.4204" x2="515.4204" y1="81.2969" y2="701.4297"/></g><g><title>Enemy</title><rect fill="#000000" fill-opacity="0.00000" height="620.1328" width="8" x="579.9961" y="81.2969"/><line style="stroke:#181818;stroke-width:0.5;stroke-dasharray:5.0,5.0;" x1="583.8687" x2="583.8687" y1="81.2969" y2="701.4297"/></g><g><title>Item</title><rect fill="#000000" fill-opacity="0.00000" height="620.1328" width="8" x="644.0581" y="81.2969"/><line style="stroke:#181818;stroke-width:0.5;stroke-dasharray:5.0,5.0;" x1="647.1235" x2="647.1235" y1="81.2969" y2="701.4297"/></g><g><title>Energy</title><rect fill="#000000" fill-opacity="0.00000" height="620.1328" width="8" x="708.6226" y="81.2969"/><line style="stroke:#181818;stroke-width:0.5;stroke-dasharray:5.0,5.0;" x1="711.9927" x2="711.9927" y1="81.2969" y2="701.4297"/></g><g class="participant participant-head" data-participant="Player"><text fill="#000000" font-family="sans-serif" font-size="14" lengthAdjust="spacing" textLength="43.5654" x="20" y="77.9951">Player</text><ellipse cx="44.7827" cy="13.5" fill="#FF0000" rx="8" ry="8" style="stroke:#181818;stroke-width:0.5;"/><path d="M44.7827,21.5 L44.7827,48.5 M31.7827,29.5 L57.7827,29.5 M44.7827,48.5 L31.7827,63.5 M44.7827,48.5 L57.7827,63.5" fill="none" style="stroke:#181818;stroke-width:0.5;"/></g><g class="participant participant-tail" data-participant="Player"><text fill="#000000" font-family="sans-serif" font-size="14" lengthAdjust="spacing" textLength="43.5654" x="20" y="713.4248">Player</text><ellipse cx="44.7827" cy="725.2266" fill="#FF0000" rx="8" ry="8" style="stroke:#181818;stroke-width:0.5;"/><path d="M44.7827,733.2266 L44.7827,760.2266 M31.7827,741.2266 L57.7827,741.2266 M44.7827,760.2266 L31.7827,775.2266 M44.7827,760.2266 L57.7827,775.2266" fill="none" style="stroke:#181818;stroke-width:0.5;"/></g><g class="participant participant-head" data-participant="Engine"><rect fill="#E2E2F0" height="30.2969" rx="2.5" ry="2.5" style="stroke:#181818;stroke-width:0.5;" width="61.9814" x="350.4458" y="50"/><text fill="#000000" font-family="sans-serif" font-size="14" lengthAdjust="spacing" textLength="47.9814" x="357.4458" y="69.9951">Engine</text></g><g class="participant participant-tail" data-participant="Engine"><rect fill="#E2E2F0" height="30.2969" rx="2.5" ry="2.5" style="stroke:#181818;stroke-width:0.5;" width="61.9814" x="350.4458" y="700.4297"/><text fill="#000000" font-family="sans-serif" font-size="14" lengthAdjust="spacing" textLength="47.9814" x="357.4458" y="720.4248">Engine</text></g><g class="participant participant-head" data-participant="Timer"><rect fill="#E2E2F0" height="30.2969" rx="2.5" ry="2.5" style="stroke:#181818;stroke-width:0.5;" width="54.4482" x="488.4204" y="50"/><text fill="#000000" font-family="sans-serif" font-size="14" lengthAdjust="spacing" textLength="40.4482" x="495.4204" y="69.9951">Timer</text></g><g class="participant participant-tail" data-participant="Timer"><rect fill="#E2E2F0" height="30.2969" rx="2.5" ry="2.5" style="stroke:#181818;stroke-width:0.5;" width="54.4482" x="488.4204" y="700.4297"/><text fill="#000000" font-family="sans-serif" font-size="14" lengthAdjust="spacing" textLength="40.4482" x="495.4204" y="720.4248">Timer</text></g><g class="participant participant-head" data-participant="Enemy"><rect fill="#E2E2F0" height="30.2969" rx="2.5" ry="2.5" style="stroke:#181818;stroke-width:0.5;" width="62.2549" x="552.8687" y="50"/><text fill="#000000" font-family="sans-serif" font-size="14" lengthAdjust="spacing" textLength="48.2549" x="559.8687" y="69.9951">Enemy</text></g><g class="participant participant-tail" data-participant="Enemy"><rect fill="#E2E2F0" height="30.2969" rx="2.5" ry="2.5" style="stroke:#181818;stroke-width:0.5;" width="62.2549" x="552.8687" y="700.4297"/><text fill="#000000" font-family="sans-serif" font-size="14" lengthAdjust="spacing" textLength="48.2549" x="559.8687" y="720.4248">Enemy</text></g><g class="participant participant-head" data-participant="Item"><rect fill="#E2E2F0" height="30.2969" rx="2.5" ry="2.5" style="stroke:#181818;stroke-width:0.5;" width="45.8691" x="625.1235" y="50"/><text fill="#000000" font-family="sans-serif" font-size="14" lengthAdjust="spacing" textLength="31.8691" x="632.1235" y="69.9951">Item</text></g><g class="participant participant-tail" data-participant="Item"><rect fill="#E2E2F0" height="30.2969" rx="2.5" ry="2.5" style="stroke:#181818;stroke-width:0.5;" width="45.8691" x="625.1235" y="700.4297"/><text fill="#000000" font-family="sans-serif" font-size="14" lengthAdjust="spacing" textLength="31.8691" x="632.1235" y="720.4248">Item</text></g><g class="participant participant-head" data-participant="Energy"><rect fill="#E2E2F0" height="30.2969" rx="2.5" ry="2.5" style="stroke:#181818;stroke-width:0.5;" width="63.2598" x="680.9927" y="50"/><text fill="#000000" font-family="sans-serif" font-size="14" lengthAdjust="spacing" textLength="49.2598" x="687.9927" y="69.9951">Energy</text></g><g class="participant participant-tail" data-participant="Energy"><rect fill="#E2E2F0" height="30.2969" rx="2.5" ry="2.5" style="stroke:#181818;stroke-width:0.5;" width="63.2598" x="680.9927" y="700.4297"/><text fill="#000000" font-family="sans-serif" font-size="14" lengthAdjust="spacing" textLength="49.2598" x="687.9927" y="720.4248">Energy</text></g><g class="message" data-participant-1="Player" data-participant-2="Engine"><polygon fill="#181818" points="369.4365,108.4297,379.4365,112.4297,369.4365,116.4297,373.4365,112.4297" style="stroke:#181818;stroke-width:1;"/><line style="stroke:#181818;stroke-width:1;" x1="44.7827" x2="375.4365" y1="112.4297" y2="112.4297"/><text fill="#000000" font-family="sans-serif" font-size="13" lengthAdjust="spacing" textLength="72.7695" x="51.7827" y="107.3638">Start game</text></g><g class="message" data-participant-1="Engine" data-participant-2="Timer"><polygon fill="#181818" points="503.6445,137.5625,513.6445,141.5625,503.6445,145.5625,507.6445,141.5625" style="stroke:#181818;stroke-width:1;"/><line style="stroke:#181818;stroke-width:1;" x1="381.4365" x2="509.6445" y1="141.5625" y2="141.5625"/><text fill="#000000" font-family="sans-serif" font-size="13" lengthAdjust="spacing" textLength="110.208" x="388.4365" y="136.4966">Start 5 Min timer</text></g><g class="message" data-participant-1="Timer" data-participant-2="Engine"><polygon fill="#181818" points="392.4365,166.6953,382.4365,170.6953,392.4365,174.6953,388.4365,170.6953" style="stroke:#181818;stroke-width:1;"/><line style="stroke:#181818;stroke-width:1;" x1="386.4365" x2="514.6445" y1="170.6953" y2="170.6953"/><text fill="#000000" font-family="sans-serif" font-size="13" lengthAdjust="spacing" textLength="85.7124" x="398.4365" y="165.6294">Render timer</text></g><g class="message" data-participant-1="Engine" data-participant-2="Enemy"><polygon fill="#181818" points="571.9961,195.8281,581.9961,199.8281,571.9961,203.8281,575.9961,199.8281" style="stroke:#181818;stroke-width:1;"/><line style="stroke:#181818;stroke-width:1;" x1="381.4365" x2="577.9961" y1="199.8281" y2="199.8281"/><text fill="#000000" font-family="sans-serif" font-size="13" lengthAdjust="spacing" textLength="113.769" x="388.4365" y="194.7622">Initialise enemies</text></g><g class="message" data-participant-1="Engine" data-participant-2="Item"><polygon fill="#181818" points="636.0581,224.9609,646.0581,228.9609,636.0581,232.9609,640.0581,228.9609" style="stroke:#181818;stroke-width:1;"/><line style="stroke:#181818;stroke-width:1;" x1="381.4365" x2="642.0581" y1="228.9609" y2="228.9609"/><text fill="#000000" font-family="sans-serif" font-size="13" lengthAdjust="spacing" textLength="161.0718" x="388.4365" y="223.895">Initialise game obstacles</text></g><g class="message" data-participant-1="Engine" data-participant-2="Player"><polygon fill="#181818" points="55.7827,254.0938,45.7827,258.0938,55.7827,262.0938,51.7827,258.0938" style="stroke:#181818;stroke-width:1;"/><line style="stroke:#181818;stroke-width:1;" x1="49.7827" x2="380.4365" y1="258.0938" y2="258.0938"/><text fill="#000000" font-family="sans-serif" font-size="13" lengthAdjust="spacing" textLength="128.1846" x="61.7827" y="253.0278">Initialise full energy</text></g><g class="message" data-participant-1="Player" data-participant-2="Energy"><polygon fill="#181818" points="700.6226,283.2266,710.6226,287.2266,700.6226,291.2266,704.6226,287.2266" style="stroke:#181818;stroke-width:1;"/><line style="stroke:#181818;stroke-width:1;" x1="44.7827" x2="706.6226" y1="287.2266" y2="287.2266"/><text fill="#000000" font-family="sans-serif" font-size="13" lengthAdjust="spacing" textLength="118.8345" x="51.7827" y="282.1606">Create energy bar</text></g><g class="message" data-participant-1="Player" data-participant-2="Item"><polygon fill="#181818" points="636.0581,312.3594,646.0581,316.3594,636.0581,320.3594,640.0581,316.3594" style="stroke:#181818;stroke-width:1;"/><line style="stroke:#181818;stroke-width:1;" x1="44.7827" x2="642.0581" y1="316.3594" y2="316.3594"/><text fill="#000000" font-family="sans-serif" font-size="13" lengthAdjust="spacing" textLength="116.1621" x="51.7827" y="311.2935">Interact with Item</text></g><path d="M10,331.3594 L74.4429,331.3594 L74.4429,338.4922 L64.4429,348.4922 L10,348.4922 L10,331.3594" fill="#EEEEEE" style="stroke:#000000;stroke-width:1.5;"/><rect fill="none" height="177.6016" style="stroke:#000000;stroke-width:1.5;" width="670.9927" x="10" y="331.3594"/><text fill="#000000" font-family="sans-serif" font-size="13" font-weight="bold" lengthAdjust="spacing" textLength="19.4429" x="25" y="344.4263">alt</text><text fill="#000000" font-family="sans-serif" font-size="11" font-weight="bold" lengthAdjust="spacing" textLength="158.3667" x="89.4429" y="343.5698">[Item is non-consumable]</text><g class="message" data-participant-1="Item" data-participant-2="Player"><polygon fill="#181818" points="55.7827,365.625,45.7827,369.625,55.7827,373.625,51.7827,369.625" style="stroke:#181818;stroke-width:1;"/><line style="stroke:#181818;stroke-width:1;" x1="49.7827" x2="647.0581" y1="369.625" y2="369.625"/><text fill="#000000" font-family="sans-serif" font-size="13" lengthAdjust="spacing" textLength="159.9927" x="61.7827" y="364.5591">Item moves to inventory</text></g><g class="message" data-participant-1="Item" data-participant-2="Engine"><polygon fill="#181818" points="392.4365,394.7578,382.4365,398.7578,392.4365,402.7578,388.4365,398.7578" style="stroke:#181818;stroke-width:1;"/><line style="stroke:#181818;stroke-width:1;" x1="386.4365" x2="647.0581" y1="398.7578" y2="398.7578"/><text fill="#000000" font-family="sans-serif" font-size="13" lengthAdjust="spacing" textLength="194.6128" x="398.4365" y="393.6919">Remove item from the screen</text></g><line style="stroke:#000000;stroke-width:1;stroke-dasharray:2.0,2.0;" x1="10" x2="680.9927" y1="407.7578" y2="407.7578"/><text fill="#000000" font-family="sans-serif" font-size="11" font-weight="bold" lengthAdjust="spacing" textLength="130.582" x="15" y="417.9683">[Item is consumable]</text><g class="message" data-participant-1="Engine" data-participant-2="Item"><polygon fill="#181818" points="636.0581,438.6953,646.0581,442.6953,636.0581,446.6953,640.0581,442.6953" style="stroke:#181818;stroke-width:1;"/><line style="stroke:#181818;stroke-width:1;" x1="381.4365" x2="642.0581" y1="442.6953" y2="442.6953"/><text fill="#000000" font-family="sans-serif" font-size="13" lengthAdjust="spacing" textLength="169.3428" x="388.4365" y="437.6294">Player consumes the item</text></g><g class="message" data-participant-1="Item" data-participant-2="Engine"><polygon fill="#181818" points="392.4365,467.8281,382.4365,471.8281,392.4365,475.8281,388.4365,471.8281" style="stroke:#181818;stroke-width:1;"/><line style="stroke:#181818;stroke-width:1;" x1="386.4365" x2="647.0581" y1="471.8281" y2="471.8281"/><text fill="#000000" font-family="sans-serif" font-size="13" lengthAdjust="spacing" textLength="194.6128" x="398.4365" y="466.7622">Remove item from the screen</text></g><g class="message" data-participant-1="Engine" data-participant-2="Player"><polygon fill="#181818" points="55.7827,496.9609,45.7827,500.9609,55.7827,504.9609,51.7827,500.9609" style="stroke:#181818;stroke-width:1;"/><line style="stroke:#181818;stroke-width:1;" x1="49.7827" x2="380.4365" y1="500.9609" y2="500.9609"/><text fill="#000000" font-family="sans-serif" font-size="13" lengthAdjust="spacing" textLength="137.4204" x="61.7827" y="495.895">Energy bar increases</text></g><path d="M10,522.9609 L74.4429,522.9609 L74.4429,530.0938 L64.4429,540.0938 L10,540.0938 L10,522.9609" fill="#EEEEEE" style="stroke:#000000;stroke-width:1.5;"/><rect fill="none" height="161.4688" style="stroke:#000000;stroke-width:1.5;" width="615.1235" x="10" y="522.9609"/><text fill="#000000" font-family="sans-serif" font-size="13" font-weight="bold" lengthAdjust="spacing" textLength="19.4429" x="25" y="536.0278">alt</text><text fill="#000000" font-family="sans-serif" font-size="11" font-weight="bold" lengthAdjust="spacing" textLength="219.3394" x="89.4429" y="535.1714">[Player has LongBoi and Time != 0]</text><g class="message" data-participant-1="Player" data-participant-2="Player"><line style="stroke:#181818;stroke-width:1;" x1="44.7827" x2="86.7827" y1="561.2266" y2="561.2266"/><line style="stroke:#181818;stroke-width:1;" x1="86.7827" x2="86.7827" y1="561.2266" y2="574.2266"/><line style="stroke:#181818;stroke-width:1;" x1="45.7827" x2="86.7827" y1="574.2266" y2="574.2266"/><polygon fill="#181818" points="55.7827,570.2266,45.7827,574.2266,55.7827,578.2266,51.7827,574.2266" style="stroke:#181818;stroke-width:1;"/><text fill="#000000" font-family="sans-serif" font-size="13" lengthAdjust="spacing" textLength="106.4565" x="51.7827" y="556.1606">Reach exit (bus)</text></g><g class="message" data-participant-1="Player" data-participant-2="Enemy"><polygon fill="#181818" points="571.9961,599.3594,581.9961,603.3594,571.9961,607.3594,575.9961,603.3594" style="stroke:#181818;stroke-width:1;"/><line style="stroke:#181818;stroke-width:1;" x1="44.7827" x2="577.9961" y1="603.3594" y2="603.3594"/><text fill="#000000" font-family="sans-serif" font-size="13" lengthAdjust="spacing" textLength="359.252" x="51.7827" y="598.2935">Distract Dean Enemy with Long Boi Statue in inventory</text></g><g class="message" data-participant-1="Engine" data-participant-2="Player"><polygon fill="#181818" points="55.7827,628.4922,45.7827,632.4922,55.7827,636.4922,51.7827,632.4922" style="stroke:#181818;stroke-width:1;"/><line style="stroke:#181818;stroke-width:1;" x1="49.7827" x2="380.4365" y1="632.4922" y2="632.4922"/><text fill="#000000" font-family="sans-serif" font-size="13" lengthAdjust="spacing" textLength="312.6538" x="61.7827" y="627.4263">Display that the player has won and show score</text></g><line style="stroke:#000000;stroke-width:1;stroke-dasharray:2.0,2.0;" x1="10" x2="625.1235" y1="641.4922" y2="641.4922"/><text fill="#000000" font-family="sans-serif" font-size="11" font-weight="bold" lengthAdjust="spacing" textLength="259.7407" x="15" y="651.7026">[Player doesn't have LongBoi or time = 0]</text><g class="message" data-participant-1="Engine" data-participant-2="Player"><polygon fill="#181818" points="55.7827,672.4297,45.7827,676.4297,55.7827,680.4297,51.7827,676.4297" style="stroke:#181818;stroke-width:1;"/><line style="stroke:#181818;stroke-width:1;" x1="49.7827" x2="380.4365" y1="676.4297" y2="676.4297"/><text fill="#000000" font-family="sans-serif" font-size="13" lengthAdjust="spacing" textLength="71.8237" x="61.7827" y="671.3638">Game over</text></g><!--SRC=[bLFDZjD03BxFKnXno7BO5HSkbG09Mg6LG4A55t0IDncHyQncd9RozDYJPDjqJzjJElx6tuyzrTPZbp308IO8w1a2yVWP_0CzG2OHprs6WR2bL4TCRUKSDgBWdmEUAS7RFRNELLam2SG3I4_GOI35pOZxJx3ZpZDju5T1MTbDHrRyxGEbfVO1VgW6iIDN2jVNzyGgOwugQPC8nKTUU0F-8tVLUSSKpXjuP2yU1vy9I4yyvIlCer1OGKmTn5eDDSCAETbPOG_ZC5ZFr9rNRkrW0rzD7irrg54rLrxfycOLpg90A6coSFBIbpE7WvGFy1auydqJEOy1wu4SwA-KhdNP_n2Fb44YU3uIwvpEA-mbIGE2gO53Yg74bpLFOaU3EbjuRpXlSvjTJ2WZxgUchoPTDryixPwZKpysxQmJqING89ycvfFd_BnpS3T4xkheJNaY6HDJ2yYjRiOVAh1wpEyiVijs5jzZXkzwxulUCwoj7Rpv2E-BgCkS5b5xmgO7-ki5xgpT3MnUkgtFKkQv9UJfS1gjKO5nwSBBg77mpQnUng2zpAuQG2akdYxAJxh-fZhtyQHXnaJJ06T1RQJCbIXKarzSnkaDmUBn9UEtyWYE-imqxVy0]--></g></svg>