<svg xmlns="http://www.w3.org/2000/svg" xmlns:xlink="http://www.w3.org/1999/xlink" contentStyleType="text/css" data-diagram-type="SEQUENCE" height="1547px" preserveAspectRatio="none" style="width:950px;height:1547px;background:#FFFFFF;" version="1.1" viewBox="0 0 950 1547" width="950px" zoomAndPan="magnify"><defs/><g><rect fill="none" height="294.1328" style="stroke:#000000;stroke-width:1.5;" width="933.9043" x="10" y="185.6953"/><rect fill="none" height="206.7344" style="stroke:#000000;stroke-width:1.5;" width="728.1182" x="10" y="522.9609"/><rect fill="none" height="119.3359" style="stroke:#000000;stroke-width:1.5;" width="869.4561" x="10" y="801.9609"/><rect fill="none" height="148.4688" style="stroke:#000000;stroke-width:1.5;" width="566.4043" x="10" y="964.4297"/><rect fill="none" height="148.4688" style="stroke:#000000;stroke-width:1.5;" width="783.9873" x="10" y="1301.6953"/><g><title>Player</title><rect fill="#000000" fill-opacity="0.00000" height="1385.8672" width="8" x="40.7827" y="81.2969"/><line style="stroke:#181818;stroke-width:0.5;stroke-dasharray:5.0,5.0;" x1="44" x2="44" y1="81.2969" y2="1467.1641"/></g><g><title>Engine</title><rect fill="#000000" fill-opacity="0.00000" height="1385.8672" width="8" x="355.499" y="81.2969"/><line style="stroke:#181818;stroke-width:0.5;stroke-dasharray:5.0,5.0;" x1="358.5083" x2="358.5083" y1="81.2969" y2="1467.1641"/></g><g><title>Room</title><rect fill="#000000" fill-opacity="0.00000" height="1385.8672" width="8" x="535.1563" y="81.2969"/><line style="stroke:#181818;stroke-width:0.5;stroke-dasharray:5.0,5.0;" x1="538.9082" x2="538.9082" y1="81.2969" y2="1467.1641"/></g><g><title>Enemy</title><rect fill="#000000" fill-opacity="0.00000" height="1385.8672" width="8" x="692.9907" y="81.2969"/><line style="stroke:#181818;stroke-width:0.5;stroke-dasharray:5.0,5.0;" x1="696.8633" x2="696.8633" y1="81.2969" y2="1467.1641"/></g><g><title>Item</title><rect fill="#000000" fill-opacity="0.00000" height="1385.8672" width="8" x="757.0527" y="81.2969"/><line style="stroke:#181818;stroke-width:0.5;stroke-dasharray:5.0,5.0;" x1="760.1182" x2="760.1182" y1="81.2969" y2="1467.1641"/></g><g><title>Obstacle</title><rect fill="#000000" fill-opacity="0.00000" height="1385.8672" width="8" x="827.7217" y="81.2969"/><line style="stroke:#181818;stroke-width:0.5;stroke-dasharray:5.0,5.0;" x1="830.9873" x2="830.9873" y1="81.2969" y2="1467.1641"/></g><g><title>Timer</title><rect fill="#000000" fill-opacity="0.00000" height="1385.8672" width="8" x="902.6802" y="81.2969"/><line style="stroke:#181818;stroke-width:0.5;stroke-dasharray:5.0,5.0;" x1="906.4561" x2="906.4561" y1="81.2969" y2="1467.1641"/></g><g class="participant participant-head" data-participant="Player"><text fill="#000000" font-family="sans-serif" font-size="14" lengthAdjust="spacing" textLength="43.5654" x="20" y="77.9951">Player</text><ellipse cx="44.7827" cy="13.5" fill="#FF0000" rx="8" ry="8" style="stroke:#181818;stroke-width:0.5;"/><path d="M44.7827,21.5 L44.7827,48.5 M31.7827,29.5 L57.7827,29.5 M44.7827,48.5 L31.7827,63.5 M44.7827,48.5 L57.7827,63.5" fill="none" style="stroke:#181818;stroke-width:0.5;"/></g><g class="participant participant-tail" data-participant="Player"><text fill="#000000" font-family="sans-serif" font-size="14" lengthAdjust="spacing" textLength="43.5654" x="20" y="1479.1592">Player</text><ellipse cx="44.7827" cy="1490.9609" fill="#FF0000" rx="8" ry="8" style="stroke:#181818;stroke-width:0.5;"/><path d="M44.7827,1498.9609 L44.7827,1525.9609 M31.7827,1506.9609 L57.7827,1506.9609 M44.7827,1525.9609 L31.7827,1540.9609 M44.7827,1525.9609 L57.7827,1540.9609" fill="none" style="stroke:#181818;stroke-width:0.5;"/></g><g class="participant participant-head" data-participant="Engine"><rect fill="#E2E2F0" height="30.2969" rx="2.5" ry="2.5" style="stroke:#181818;stroke-width:0.5;" width="61.9814" x="328.5083" y="50"/><text fill="#000000" font-family="sans-serif" font-size="14" lengthAdjust="spacing" textLength="47.9814" x="335.5083" y="69.9951">Engine</text></g><g class="participant participant-tail" data-participant="Engine"><rect fill="#E2E2F0" height="30.2969" rx="2.5" ry="2.5" style="stroke:#181818;stroke-width:0.5;" width="61.9814" x="328.5083" y="1466.1641"/><text fill="#000000" font-family="sans-serif" font-size="14" lengthAdjust="spacing" textLength="47.9814" x="335.5083" y="1486.1592">Engine</text></g><g class="participant participant-head" data-participant="Room"><rect fill="#E2E2F0" height="30.2969" rx="2.5" ry="2.5" style="stroke:#181818;stroke-width:0.5;" width="54.4961" x="511.9082" y="50"/><text fill="#000000" font-family="sans-serif" font-size="14" lengthAdjust="spacing" textLength="40.4961" x="518.9082" y="69.9951">Room</text></g><g class="participant participant-tail" data-participant="Room"><rect fill="#E2E2F0" height="30.2969" rx="2.5" ry="2.5" style="stroke:#181818;stroke-width:0.5;" width="54.4961" x="511.9082" y="1466.1641"/><text fill="#000000" font-family="sans-serif" font-size="14" lengthAdjust="spacing" textLength="40.4961" x="518.9082" y="1486.1592">Room</text></g><g class="participant participant-head" data-participant="Enemy"><rect fill="#E2E2F0" height="30.2969" rx="2.5" ry="2.5" style="stroke:#181818;stroke-width:0.5;" width="62.2549" x="665.8633" y="50"/><text fill="#000000" font-family="sans-serif" font-size="14" lengthAdjust="spacing" textLength="48.2549" x="672.8633" y="69.9951">Enemy</text></g><g class="participant participant-tail" data-participant="Enemy"><rect fill="#E2E2F0" height="30.2969" rx="2.5" ry="2.5" style="stroke:#181818;stroke-width:0.5;" width="62.2549" x="665.8633" y="1466.1641"/><text fill="#000000" font-family="sans-serif" font-size="14" lengthAdjust="spacing" textLength="48.2549" x="672.8633" y="1486.1592">Enemy</text></g><g class="participant participant-head" data-participant="Item"><rect fill="#E2E2F0" height="30.2969" rx="2.5" ry="2.5" style="stroke:#181818;stroke-width:0.5;" width="45.8691" x="738.1182" y="50"/><text fill="#000000" font-family="sans-serif" font-size="14" lengthAdjust="spacing" textLength="31.8691" x="745.1182" y="69.9951">Item</text></g><g class="participant participant-tail" data-participant="Item"><rect fill="#E2E2F0" height="30.2969" rx="2.5" ry="2.5" style="stroke:#181818;stroke-width:0.5;" width="45.8691" x="738.1182" y="1466.1641"/><text fill="#000000" font-family="sans-serif" font-size="14" lengthAdjust="spacing" textLength="31.8691" x="745.1182" y="1486.1592">Item</text></g><g class="participant participant-head" data-participant="Obstacle"><rect fill="#E2E2F0" height="30.2969" rx="2.5" ry="2.5" style="stroke:#181818;stroke-width:0.5;" width="75.4688" x="793.9873" y="50"/><text fill="#000000" font-family="sans-serif" font-size="14" lengthAdjust="spacing" textLength="61.4688" x="800.9873" y="69.9951">Obstacle</text></g><g class="participant participant-tail" data-participant="Obstacle"><rect fill="#E2E2F0" height="30.2969" rx="2.5" ry="2.5" style="stroke:#181818;stroke-width:0.5;" width="75.4688" x="793.9873" y="1466.1641"/><text fill="#000000" font-family="sans-serif" font-size="14" lengthAdjust="spacing" textLength="61.4688" x="800.9873" y="1486.1592">Obstacle</text></g><g class="participant participant-head" data-participant="Timer"><rect fill="#E2E2F0" height="30.2969" rx="2.5" ry="2.5" style="stroke:#181818;stroke-width:0.5;" width="54.4482" x="879.4561" y="50"/><text fill="#000000" font-family="sans-serif" font-size="14" lengthAdjust="spacing" textLength="40.4482" x="886.4561" y="69.9951">Timer</text></g><g class="participant participant-tail" data-participant="Timer"><rect fill="#E2E2F0" height="30.2969" rx="2.5" ry="2.5" style="stroke:#181818;stroke-width:0.5;" width="54.4482" x="879.4561" y="1466.1641"/><text fill="#000000" font-family="sans-serif" font-size="14" lengthAdjust="spacing" textLength="40.4482" x="886.4561" y="1486.1592">Timer</text></g><g class="message" data-participant-1="Player" data-participant-2="Engine"><polygon fill="#181818" points="347.499,108.4297,357.499,112.4297,347.499,116.4297,351.499,112.4297" style="stroke:#181818;stroke-width:1;"/><line style="stroke:#181818;stroke-width:1;" x1="44.7827" x2="353.499" y1="112.4297" y2="112.4297"/><text fill="#000000" font-family="sans-serif" font-size="13" lengthAdjust="spacing" textLength="72.7695" x="51.7827" y="107.3638">Start game</text></g><g class="message" data-participant-1="Engine" data-participant-2="Timer"><polygon fill="#181818" points="894.6802,137.5625,904.6802,141.5625,894.6802,145.5625,898.6802,141.5625" style="stroke:#181818;stroke-width:1;"/><line style="stroke:#181818;stroke-width:1;" x1="359.499" x2="900.6802" y1="141.5625" y2="141.5625"/><text fill="#000000" font-family="sans-serif" font-size="13" lengthAdjust="spacing" textLength="110.208" x="366.499" y="136.4966">Start 5 Min timer</text></g><g class="message" data-participant-1="Timer" data-participant-2="Player"><polygon fill="#181818" points="55.7827,166.6953,45.7827,170.6953,55.7827,174.6953,51.7827,170.6953" style="stroke:#181818;stroke-width:1;"/><line style="stroke:#181818;stroke-width:1;" x1="49.7827" x2="905.6802" y1="170.6953" y2="170.6953"/><text fill="#000000" font-family="sans-serif" font-size="13" lengthAdjust="spacing" textLength="136.0684" x="61.7827" y="165.6294">Show timer in corner</text></g><path d="M10,185.6953 L74.4429,185.6953 L74.4429,192.8281 L64.4429,202.8281 L10,202.8281 L10,185.6953" fill="#EEEEEE" style="stroke:#000000;stroke-width:1.5;"/><rect fill="none" height="294.1328" style="stroke:#000000;stroke-width:1.5;" width="933.9043" x="10" y="185.6953"/><text fill="#000000" font-family="sans-serif" font-size="13" font-weight="bold" lengthAdjust="spacing" textLength="19.4429" x="25" y="198.7622">alt</text><text fill="#000000" font-family="sans-serif" font-size="11" font-weight="bold" lengthAdjust="spacing" textLength="75.2222" x="89.4429" y="197.9058">[Timer != 0]</text><g class="message" data-participant-1="Engine" data-participant-2="Timer"><polygon fill="#181818" points="894.6802,219.9609,904.6802,223.9609,894.6802,227.9609,898.6802,223.9609" style="stroke:#181818;stroke-width:1;"/><line style="stroke:#181818;stroke-width:1;" x1="359.499" x2="900.6802" y1="223.9609" y2="223.9609"/><text fill="#000000" font-family="sans-serif" font-size="13" lengthAdjust="spacing" textLength="170.4917" x="366.499" y="218.895">Reduce timer by 1 second</text></g><g class="message" data-participant-1="Timer" data-participant-2="Engine"><polygon fill="#181818" points="370.499,249.0938,360.499,253.0938,370.499,257.0938,366.499,253.0938" style="stroke:#181818;stroke-width:1;"/><line style="stroke:#181818;stroke-width:1;" x1="364.499" x2="905.6802" y1="253.0938" y2="253.0938"/><text fill="#000000" font-family="sans-serif" font-size="13" lengthAdjust="spacing" textLength="80.5835" x="376.499" y="248.0278">Update time</text></g><g class="message" data-participant-1="Engine" data-participant-2="Player"><polygon fill="#181818" points="55.7827,278.2266,45.7827,282.2266,55.7827,286.2266,51.7827,282.2266" style="stroke:#181818;stroke-width:1;"/><line style="stroke:#181818;stroke-width:1;" x1="49.7827" x2="358.499" y1="282.2266" y2="282.2266"/><text fill="#000000" font-family="sans-serif" font-size="13" lengthAdjust="spacing" textLength="126.769" x="61.7827" y="277.1606">Show updated time</text></g><line style="stroke:#000000;stroke-width:1;stroke-dasharray:2.0,2.0;" x1="10" x2="943.9043" y1="291.2266" y2="291.2266"/><text fill="#000000" font-family="sans-serif" font-size="11" font-weight="bold" lengthAdjust="spacing" textLength="64.7808" x="15" y="301.437">[Time = 0]</text><g class="message" data-participant-1="Timer" data-participant-2="Engine"><polygon fill="#181818" points="370.499,322.1641,360.499,326.1641,370.499,330.1641,366.499,326.1641" style="stroke:#181818;stroke-width:1;"/><line style="stroke:#181818;stroke-width:1;" x1="364.499" x2="905.6802" y1="326.1641" y2="326.1641"/><text fill="#000000" font-family="sans-serif" font-size="13" lengthAdjust="spacing" textLength="110.1699" x="376.499" y="321.0981">Update time to 0</text></g><g class="message" data-participant-1="Engine" data-participant-2="Player"><polygon fill="#181818" points="55.7827,351.2969,45.7827,355.2969,55.7827,359.2969,51.7827,355.2969" style="stroke:#181818;stroke-width:1;"/><line style="stroke:#181818;stroke-width:1;" x1="49.7827" x2="358.499" y1="355.2969" y2="355.2969"/><text fill="#000000" font-family="sans-serif" font-size="13" lengthAdjust="spacing" textLength="187.6177" x="61.7827" y="350.231">Alert player that time is over</text></g><g class="message" data-participant-1="Player" data-participant-2="Engine"><polygon fill="#181818" points="347.499,380.4297,357.499,384.4297,347.499,388.4297,351.499,384.4297" style="stroke:#181818;stroke-width:1;"/><line style="stroke:#181818;stroke-width:1;" x1="44.7827" x2="353.499" y1="384.4297" y2="384.4297"/><text fill="#000000" font-family="sans-serif" font-size="13" lengthAdjust="spacing" textLength="241.8965" x="51.7827" y="379.3638">Can no longer make any more inputs</text></g><g class="message" data-participant-1="Engine" data-participant-2="Player"><polygon fill="#181818" points="55.7827,409.5625,45.7827,413.5625,55.7827,417.5625,51.7827,413.5625" style="stroke:#181818;stroke-width:1;"/><line style="stroke:#181818;stroke-width:1;" x1="49.7827" x2="358.499" y1="413.5625" y2="413.5625"/><text fill="#000000" font-family="sans-serif" font-size="13" lengthAdjust="spacing" textLength="65.7173" x="61.7827" y="408.4966">End game</text></g><g class="message" data-participant-1="Engine" data-participant-2="Player"><polygon fill="#181818" points="55.7827,438.6953,45.7827,442.6953,55.7827,446.6953,51.7827,442.6953" style="stroke:#181818;stroke-width:1;"/><line style="stroke:#181818;stroke-width:1;" x1="49.7827" x2="358.499" y1="442.6953" y2="442.6953"/><text fill="#000000" font-family="sans-serif" font-size="13" lengthAdjust="spacing" textLength="290.7163" x="61.7827" y="437.6294">Show player end screen, e.g. time/score etc.</text></g><g class="message" data-participant-1="Engine" data-participant-2="Player"><polygon fill="#181818" points="55.7827,467.8281,45.7827,471.8281,55.7827,475.8281,51.7827,471.8281" style="stroke:#181818;stroke-width:1;"/><line style="stroke:#181818;stroke-width:1;" x1="49.7827" x2="358.499" y1="471.8281" y2="471.8281"/><text fill="#000000" font-family="sans-serif" font-size="13" lengthAdjust="spacing" textLength="180.7114" x="61.7827" y="466.7622">Return Player to Main Menu</text></g><g class="message" data-participant-1="Engine" data-participant-2="Enemy"><polygon fill="#181818" points="684.9907,503.9609,694.9907,507.9609,684.9907,511.9609,688.9907,507.9609" style="stroke:#181818;stroke-width:1;"/><line style="stroke:#181818;stroke-width:1;" x1="359.499" x2="690.9907" y1="507.9609" y2="507.9609"/><text fill="#000000" font-family="sans-serif" font-size="13" lengthAdjust="spacing" textLength="145.0757" x="366.499" y="502.895">Random Geese spawn</text></g><path d="M10,522.9609 L74.4429,522.9609 L74.4429,530.0938 L64.4429,540.0938 L10,540.0938 L10,522.9609" fill="#EEEEEE" style="stroke:#000000;stroke-width:1.5;"/><rect fill="none" height="206.7344" style="stroke:#000000;stroke-width:1.5;" width="728.1182" x="10" y="522.9609"/><text fill="#000000" font-family="sans-serif" font-size="13" font-weight="bold" lengthAdjust="spacing" textLength="19.4429" x="25" y="536.0278">alt</text><text fill="#000000" font-family="sans-serif" font-size="11" font-weight="bold" lengthAdjust="spacing" textLength="146.9639" x="89.4429" y="535.1714">[Player close to Enemy]</text><g class="message" data-participant-1="Enemy" data-participant-2="Engine"><polygon fill="#181818" points="370.499,557.2266,360.499,561.2266,370.499,565.2266,366.499,561.2266" style="stroke:#181818;stroke-width:1;"/><line style="stroke:#181818;stroke-width:1;" x1="364.499" x2="695.9907" y1="561.2266" y2="561.2266"/><text fill="#000000" font-family="sans-serif" font-size="13" lengthAdjust="spacing" textLength="313.4917" x="376.499" y="556.1606">Detect enemy and check there is energy to lose</text></g><g class="message" data-participant-1="Engine" data-participant-2="Player"><polygon fill="#181818" points="55.7827,586.3594,45.7827,590.3594,55.7827,594.3594,51.7827,590.3594" style="stroke:#181818;stroke-width:1;"/><line style="stroke:#181818;stroke-width:1;" x1="49.7827" x2="358.499" y1="590.3594" y2="590.3594"/><text fill="#000000" font-family="sans-serif" font-size="13" lengthAdjust="spacing" textLength="79.625" x="61.7827" y="585.2935">Lose energy</text></g><g class="message" data-participant-1="Engine" data-participant-2="Player"><polygon fill="#181818" points="55.7827,615.4922,45.7827,619.4922,55.7827,623.4922,51.7827,619.4922" style="stroke:#181818;stroke-width:1;"/><line style="stroke:#181818;stroke-width:1;" x1="49.7827" x2="358.499" y1="619.4922" y2="619.4922"/><text fill="#000000" font-family="sans-serif" font-size="13" lengthAdjust="spacing" textLength="104.6411" x="61.7827" y="614.4263">Decrease speed</text></g><line style="stroke:#000000;stroke-width:1;stroke-dasharray:2.0,2.0;" x1="10" x2="738.1182" y1="628.4922" y2="628.4922"/><text fill="#000000" font-family="sans-serif" font-size="11" font-weight="bold" lengthAdjust="spacing" textLength="139.9707" x="15" y="638.7026">[Player has duck food]</text><g class="message" data-participant-1="Player" data-participant-2="Engine"><polygon fill="#181818" points="347.499,659.4297,357.499,663.4297,347.499,667.4297,351.499,663.4297" style="stroke:#181818;stroke-width:1;"/><line style="stroke:#181818;stroke-width:1;" x1="44.7827" x2="353.499" y1="663.4297" y2="663.4297"/><text fill="#000000" font-family="sans-serif" font-size="13" lengthAdjust="spacing" textLength="183.6948" x="51.7827" y="658.3638">Duck food in Player's hotbar</text></g><g class="message" data-participant-1="Engine" data-participant-2="Enemy"><polygon fill="#181818" points="684.9907,688.5625,694.9907,692.5625,684.9907,696.5625,688.9907,692.5625" style="stroke:#181818;stroke-width:1;"/><line style="stroke:#181818;stroke-width:1;" x1="359.499" x2="690.9907" y1="692.5625" y2="692.5625"/><text fill="#000000" font-family="sans-serif" font-size="13" lengthAdjust="spacing" textLength="86.6201" x="366.499" y="687.4966">Ignore player</text></g><g class="message" data-participant-1="Enemy" data-participant-2="Player"><polygon fill="#181818" points="55.7827,717.6953,45.7827,721.6953,55.7827,725.6953,51.7827,721.6953" style="stroke:#181818;stroke-width:1;"/><line style="stroke:#181818;stroke-width:1;" x1="49.7827" x2="695.9907" y1="721.6953" y2="721.6953"/><text fill="#000000" font-family="sans-serif" font-size="13" lengthAdjust="spacing" textLength="190.6963" x="61.7827" y="716.6294">Enemy doesn't impact player</text></g><g class="message" data-participant-1="Player" data-participant-2="Engine"><polygon fill="#181818" points="347.499,753.8281,357.499,757.8281,347.499,761.8281,351.499,757.8281" style="stroke:#181818;stroke-width:1;"/><line style="stroke:#181818;stroke-width:1;" x1="44.7827" x2="353.499" y1="757.8281" y2="757.8281"/><text fill="#000000" font-family="sans-serif" font-size="13" lengthAdjust="spacing" textLength="158.812" x="51.7827" y="752.7622">Player chooses direction</text></g><g class="message" data-participant-1="Engine" data-participant-2="Obstacle"><polygon fill="#181818" points="819.7217,782.9609,829.7217,786.9609,819.7217,790.9609,823.7217,786.9609" style="stroke:#181818;stroke-width:1;"/><line style="stroke:#181818;stroke-width:1;" x1="359.499" x2="825.7217" y1="786.9609" y2="786.9609"/><text fill="#000000" font-family="sans-serif" font-size="13" lengthAdjust="spacing" textLength="187.5098" x="366.499" y="781.895">Checks if there's an obstacle</text></g><path d="M10,801.9609 L74.4429,801.9609 L74.4429,809.0938 L64.4429,819.0938 L10,819.0938 L10,801.9609" fill="#EEEEEE" style="stroke:#000000;stroke-width:1.5;"/><rect fill="none" height="119.3359" style="stroke:#000000;stroke-width:1.5;" width="869.4561" x="10" y="801.9609"/><text fill="#000000" font-family="sans-serif" font-size="13" font-weight="bold" lengthAdjust="spacing" textLength="19.4429" x="25" y="815.0278">alt</text><text fill="#000000" font-family="sans-serif" font-size="11" font-weight="bold" lengthAdjust="spacing" textLength="173.5024" x="89.4429" y="814.1714">[Obstacle in front of player]</text><g class="message" data-participant-1="Obstacle" data-participant-2="Engine"><polygon fill="#181818" points="370.499,836.2266,360.499,840.2266,370.499,844.2266,366.499,840.2266" style="stroke:#181818;stroke-width:1;"/><line style="stroke:#181818;stroke-width:1;" x1="364.499" x2="830.7217" y1="840.2266" y2="840.2266"/><text fill="#000000" font-family="sans-serif" font-size="13" lengthAdjust="spacing" textLength="166.0039" x="376.499" y="835.1606">Player can't pass through</text></g><g class="message" data-participant-1="Engine" data-participant-2="Player"><polygon fill="#181818" points="55.7827,865.3594,45.7827,869.3594,55.7827,873.3594,51.7827,869.3594" style="stroke:#181818;stroke-width:1;"/><line style="stroke:#181818;stroke-width:1;" x1="49.7827" x2="358.499" y1="869.3594" y2="869.3594"/><text fill="#000000" font-family="sans-serif" font-size="13" lengthAdjust="spacing" textLength="79.4346" x="61.7827" y="864.2935">Player stops</text></g><line style="stroke:#000000;stroke-width:1;stroke-dasharray:2.0,2.0;" x1="10" x2="879.4561" y1="878.3594" y2="878.3594"/><text fill="#000000" font-family="sans-serif" font-size="11" font-weight="bold" lengthAdjust="spacing" textLength="35.3472" x="15" y="888.5698">[Else]</text><g class="message" data-participant-1="Engine" data-participant-2="Player"><polygon fill="#181818" points="55.7827,909.2969,45.7827,913.2969,55.7827,917.2969,51.7827,913.2969" style="stroke:#181818;stroke-width:1;"/><line style="stroke:#181818;stroke-width:1;" x1="49.7827" x2="358.499" y1="913.2969" y2="913.2969"/><text fill="#000000" font-family="sans-serif" font-size="13" lengthAdjust="spacing" textLength="176.668" x="61.7827" y="908.231">Player continues as normal</text></g><g class="message" data-participant-1="Engine" data-participant-2="Room"><polygon fill="#181818" points="527.1563,945.4297,537.1563,949.4297,527.1563,953.4297,531.1563,949.4297" style="stroke:#181818;stroke-width:1;"/><line style="stroke:#181818;stroke-width:1;" x1="359.499" x2="533.1563" y1="949.4297" y2="949.4297"/><text fill="#000000" font-family="sans-serif" font-size="13" lengthAdjust="spacing" textLength="155.6572" x="366.499" y="944.3638">Check room is unlocked</text></g><path d="M10,964.4297 L74.4429,964.4297 L74.4429,971.5625 L64.4429,981.5625 L10,981.5625 L10,964.4297" fill="#EEEEEE" style="stroke:#000000;stroke-width:1.5;"/><rect fill="none" height="148.4688" style="stroke:#000000;stroke-width:1.5;" width="566.4043" x="10" y="964.4297"/><text fill="#000000" font-family="sans-serif" font-size="13" font-weight="bold" lengthAdjust="spacing" textLength="19.4429" x="25" y="977.4966">alt</text><text fill="#000000" font-family="sans-serif" font-size="11" font-weight="bold" lengthAdjust="spacing" textLength="119.2383" x="89.4429" y="976.6401">[Room is unlocked]</text><g class="message" data-participant-1="Engine" data-participant-2="Player"><polygon fill="#181818" points="55.7827,998.6953,45.7827,1002.6953,55.7827,1006.6953,51.7827,1002.6953" style="stroke:#181818;stroke-width:1;"/><line style="stroke:#181818;stroke-width:1;" x1="49.7827" x2="358.499" y1="1002.6953" y2="1002.6953"/><text fill="#000000" font-family="sans-serif" font-size="13" lengthAdjust="spacing" textLength="72.9409" x="61.7827" y="997.6294">Enter room</text></g><g class="message" data-participant-1="Player" data-participant-2="Room"><polygon fill="#181818" points="527.1563,1027.8281,537.1563,1031.8281,527.1563,1035.8281,531.1563,1031.8281" style="stroke:#181818;stroke-width:1;"/><line style="stroke:#181818;stroke-width:1;" x1="44.7827" x2="533.1563" y1="1031.8281" y2="1031.8281"/><text fill="#000000" font-family="sans-serif" font-size="13" lengthAdjust="spacing" textLength="94.9165" x="51.7827" y="1026.7622">Player has key</text></g><line style="stroke:#000000;stroke-width:1;stroke-dasharray:2.0,2.0;" x1="10" x2="576.4043" y1="1040.8281" y2="1040.8281"/><text fill="#000000" font-family="sans-serif" font-size="11" font-weight="bold" lengthAdjust="spacing" textLength="103.5762" x="15" y="1051.0386">[Room is locked]</text><g class="message" data-participant-1="Engine" data-participant-2="Player"><polygon fill="#181818" points="55.7827,1071.7656,45.7827,1075.7656,55.7827,1079.7656,51.7827,1075.7656" style="stroke:#181818;stroke-width:1;"/><line style="stroke:#181818;stroke-width:1;" x1="49.7827" x2="358.499" y1="1075.7656" y2="1075.7656"/><text fill="#000000" font-family="sans-serif" font-size="13" lengthAdjust="spacing" textLength="153.4863" x="61.7827" y="1070.6997">Cannot enter, need key</text></g><g class="message" data-participant-1="Engine" data-participant-2="Player"><polygon fill="#181818" points="55.7827,1100.8984,45.7827,1104.8984,55.7827,1108.8984,51.7827,1104.8984" style="stroke:#181818;stroke-width:1;"/><line style="stroke:#181818;stroke-width:1;" x1="49.7827" x2="358.499" y1="1104.8984" y2="1104.8984"/><text fill="#000000" font-family="sans-serif" font-size="13" lengthAdjust="spacing" textLength="112.9375" x="61.7827" y="1099.8325">Hint where key is</text></g><g class="message" data-participant-1="Engine" data-participant-2="Item"><polygon fill="#181818" points="749.0527,1137.0313,759.0527,1141.0313,749.0527,1145.0313,753.0527,1141.0313" style="stroke:#181818;stroke-width:1;"/><line style="stroke:#181818;stroke-width:1;" x1="359.499" x2="755.0527" y1="1141.0313" y2="1141.0313"/><text fill="#000000" font-family="sans-serif" font-size="13" lengthAdjust="spacing" textLength="145.5327" x="366.499" y="1135.9653">Randomly spawn keys</text></g><g class="message" data-participant-1="Engine" data-participant-2="Item"><polygon fill="#181818" points="749.0527,1166.1641,759.0527,1170.1641,749.0527,1174.1641,753.0527,1170.1641" style="stroke:#181818;stroke-width:1;"/><line style="stroke:#181818;stroke-width:1;" x1="359.499" x2="755.0527" y1="1170.1641" y2="1170.1641"/><text fill="#000000" font-family="sans-serif" font-size="13" lengthAdjust="spacing" textLength="181.6318" x="366.499" y="1165.0981">Randomly spawn food/drink</text></g><g class="message" data-participant-1="Engine" data-participant-2="Item"><polygon fill="#181818" points="749.0527,1195.2969,759.0527,1199.2969,749.0527,1203.2969,753.0527,1199.2969" style="stroke:#181818;stroke-width:1;"/><line style="stroke:#181818;stroke-width:1;" x1="359.499" x2="755.0527" y1="1199.2969" y2="1199.2969"/><text fill="#000000" font-family="sans-serif" font-size="13" lengthAdjust="spacing" textLength="167.7114" x="366.499" y="1194.231">Randomly spawn LongBoi</text></g><g class="message" data-participant-1="Item" data-participant-2="Engine"><polygon fill="#181818" points="370.499,1224.4297,360.499,1228.4297,370.499,1232.4297,366.499,1228.4297" style="stroke:#181818;stroke-width:1;"/><line style="stroke:#181818;stroke-width:1;" x1="364.499" x2="760.0527" y1="1228.4297" y2="1228.4297"/><text fill="#000000" font-family="sans-serif" font-size="13" lengthAdjust="spacing" textLength="187.4653" x="376.499" y="1223.3638">Place items on the floor/map</text></g><g class="message" data-participant-1="Engine" data-participant-2="Player"><polygon fill="#181818" points="55.7827,1253.5625,45.7827,1257.5625,55.7827,1261.5625,51.7827,1257.5625" style="stroke:#181818;stroke-width:1;"/><line style="stroke:#181818;stroke-width:1;" x1="49.7827" x2="358.499" y1="1257.5625" y2="1257.5625"/><text fill="#000000" font-family="sans-serif" font-size="13" lengthAdjust="spacing" textLength="203.3789" x="61.7827" y="1252.4966">Make items interactable/visible</text></g><g class="message" data-participant-1="Player" data-participant-2="Engine"><polygon fill="#181818" points="347.499,1282.6953,357.499,1286.6953,347.499,1290.6953,351.499,1286.6953" style="stroke:#181818;stroke-width:1;"/><line style="stroke:#181818;stroke-width:1;" x1="44.7827" x2="353.499" y1="1286.6953" y2="1286.6953"/><text fill="#000000" font-family="sans-serif" font-size="13" lengthAdjust="spacing" textLength="116.1621" x="51.7827" y="1281.6294">Interact with Item</text></g><path d="M10,1301.6953 L74.4429,1301.6953 L74.4429,1308.8281 L64.4429,1318.8281 L10,1318.8281 L10,1301.6953" fill="#EEEEEE" style="stroke:#000000;stroke-width:1.5;"/><rect fill="none" height="148.4688" style="stroke:#000000;stroke-width:1.5;" width="783.9873" x="10" y="1301.6953"/><text fill="#000000" font-family="sans-serif" font-size="13" font-weight="bold" lengthAdjust="spacing" textLength="19.4429" x="25" y="1314.7622">alt</text><text fill="#000000" font-family="sans-serif" font-size="11" font-weight="bold" lengthAdjust="spacing" textLength="132.2524" x="89.4429" y="1313.9058">[Item is key/LongBoi]</text><g class="message" data-participant-1="Engine" data-participant-2="Player"><polygon fill="#181818" points="55.7827,1335.9609,45.7827,1339.9609,55.7827,1343.9609,51.7827,1339.9609" style="stroke:#181818;stroke-width:1;"/><line style="stroke:#181818;stroke-width:1;" x1="49.7827" x2="358.499" y1="1339.9609" y2="1339.9609"/><text fill="#000000" font-family="sans-serif" font-size="13" lengthAdjust="spacing" textLength="205.2451" x="61.7827" y="1334.895">Player sees Item in their hotbar</text></g><line style="stroke:#000000;stroke-width:1;stroke-dasharray:2.0,2.0;" x1="10" x2="793.9873" y1="1348.9609" y2="1348.9609"/><text fill="#000000" font-family="sans-serif" font-size="11" font-weight="bold" lengthAdjust="spacing" textLength="120.3125" x="15" y="1359.1714">[Item is food/drink]</text><g class="message" data-participant-1="Engine" data-participant-2="Item"><polygon fill="#181818" points="749.0527,1379.8984,759.0527,1383.8984,749.0527,1387.8984,753.0527,1383.8984" style="stroke:#181818;stroke-width:1;"/><line style="stroke:#181818;stroke-width:1;" x1="359.499" x2="755.0527" y1="1383.8984" y2="1383.8984"/><text fill="#000000" font-family="sans-serif" font-size="13" lengthAdjust="spacing" textLength="169.3428" x="366.499" y="1378.8325">Player consumes the item</text></g><g class="message" data-participant-1="Item" data-participant-2="Engine"><polygon fill="#181818" points="370.499,1409.0313,360.499,1413.0313,370.499,1417.0313,366.499,1413.0313" style="stroke:#181818;stroke-width:1;"/><line style="stroke:#181818;stroke-width:1;" x1="364.499" x2="760.0527" y1="1413.0313" y2="1413.0313"/><text fill="#000000" font-family="sans-serif" font-size="13" lengthAdjust="spacing" textLength="179.9941" x="376.499" y="1407.9653">Remove item from the map</text></g><g class="message" data-participant-1="Engine" data-participant-2="Player"><polygon fill="#181818" points="55.7827,1438.1641,45.7827,1442.1641,55.7827,1446.1641,51.7827,1442.1641" style="stroke:#181818;stroke-width:1;"/><line style="stroke:#181818;stroke-width:1;" x1="49.7827" x2="358.499" y1="1442.1641" y2="1442.1641"/><text fill="#000000" font-family="sans-serif" font-size="13" lengthAdjust="spacing" textLength="137.4204" x="61.7827" y="1437.0981">Energy bar increases</text></g><!--SRC=[XLRRRkCs47tNLqpH1ss1nDu-z2L0MxHDq0ROe8ji-m6qD9O9KwHAKZ7yzpqpb1nVuYHFCJaySpbdPbJlh7Cq3gt9J3cG2s5Bdl4hqYsbR6AslgCNqurChJLTD7rTrOa74-N9T4Jh4AatrbFFVloLx88Nb3ZBuqIEJSjn5Kniwwgg1m5jx61yJdSqEBFdU4CnXFw6s7VMymrr8IHMH_-Dx9jNHxVgnksfvSOc6tm2f6ao_7zL9Fh-cTlgo0SzAER9qJESdTbmlpyvUSnyQlBt2kLet2dGFxRdM24fBHM5DUKDKsTw15zD0Tt-CeLmHz_KIgwhSYINYZ7V_KHFg69MMBqGYm84aqtObJk2KHEYByxrw4uAuQQGwBkVwND5-BlmW_ACA6Y1MUtfHn3L1D-gzS7b7F6_apHmVWPt4bHHK5liAdQ95Oea2drNzsRBr8S8AZaRws1yApeXMsfMT40RasWNF85F7p9oqiV6fK2cRP6p2sEaPcDynqbbP_iXn2naYFC43Isw1RBgKIB7wrnN7sOcolzy9RtV78EMARgyCSKDsKJX1TMNHvSy_s4ymaSt8Kff3AHk_BwaR_qmvdJ5suDlYppUgVKK2yCqDP7PJobBNClKY0_EpU8An3FdCVevPYJ-96txXBO5Rr01vAJDHvzOUk87aTKhYlO9G8nlGqz_CiCm3MRdY_OcrCO90B1BMvL0yDznYUuvSvD9dQ0ue7R3pLQa4BMwk8ZTlioaTAqUNyHFiRnYSSyeaT4e6NEXIFFhgzRG2rl8ABHNcBoVxwNZodMTQ1FooiGpbrDj7Zil51IMJdD_PLaEsi39rra4Z04sFpYmCD7SGsOOgj8AjNI0oWTzu7CCBk5dQrziEng7cIYrUtFkpBniX5aaRIDgZ-5vnEmytY1U8I9DVGd017eepDDFUPwDfIZhY5XayXrbVBX_8mOZEGyc9S37C7QRAynDzYc78LNLnDo3kwg56H_HM3yYIx0B9dhZvf8UPIiBOCfKDuyeRlGkD5iHYQJuV7vwhM5bLGh4cO2AXoEbRNa_9J53lmkC4O81275dsOuUubM4jut_ig1Wfwq38s0VL6Innj9f3yjccriOej7sbMVf8njfWsKRhTz-PFa5W-_tO2kvFDC0Le_6H1ZoClVN-EI8ozuCrMLQJp8uYxMLEg1DpChnyWMRVoLQl5JwusH7EvitPOahdHg9LHQMStJlwmwpRNgbWTeuTtqXSGOyAiefNYdCgohJYEsaAKj6QdnUdcUMRjTxQQjUhQKqrxId8n8n8SOovjBv-DXPdmxV9FH9Dj8gM0aywYA0h6JuweeIizMOTEJNQ7_qSDRPK_RinPwUm1Rqk9PbVJFrDgV63FBnfg0EbIbaw1V7pJJdRTPFb5hQieO41dmftjN_0m00]--></g></svg>