<svg xmlns="http://www.w3.org/2000/svg" xmlns:xlink="http://www.w3.org/1999/xlink" contentStyleType="text/css" data-diagram-type="CLASS" height="440px" preserveAspectRatio="none" style="width:2373px;height:440px;background:#FFFFFF;" version="1.1" viewBox="0 0 2373 440" width="2373px" zoomAndPan="magnify"><defs/><g><!--class Timer--><g class="entity" data-entity="Timer" data-source-line="4" data-uid="ent0002" id="entity_Timer"><rect fill="#F1F1F1" height="113.1875" rx="2.5" ry="2.5" style="stroke:#181818;stroke-width:0.5;" width="166.793" x="7" y="7"/><ellipse cx="65.9224" cy="23" fill="#ADD1B2" rx="11" ry="11" style="stroke:#181818;stroke-width:1;"/><path d="M68.8911,28.6406 Q68.313,28.9375 67.6724,29.0781 Q67.0317,29.2344 66.3286,29.2344 Q63.8286,29.2344 62.5005,27.5938 Q61.188,25.9375 61.188,22.8125 Q61.188,19.6875 62.5005,18.0313 Q63.8286,16.375 66.3286,16.375 Q67.0317,16.375 67.6724,16.5313 Q68.3286,16.6875 68.8911,16.9844 L68.8911,19.7031 Q68.2661,19.125 67.6724,18.8594 Q67.0786,18.5781 66.4536,18.5781 Q65.1099,18.5781 64.4224,19.6563 Q63.7349,20.7188 63.7349,22.8125 Q63.7349,24.9063 64.4224,25.9844 Q65.1099,27.0469 66.4536,27.0469 Q67.0786,27.0469 67.6724,26.7813 Q68.2661,26.5 68.8911,25.9219 L68.8911,28.6406 Z " fill="#000000"/><text fill="#000000" font-family="sans-serif" font-size="14" lengthAdjust="spacing" textLength="40.4482" x="86.4224" y="27.8467">Timer</text><line style="stroke:#181818;stroke-width:0.5;" x1="8" x2="172.793" y1="39" y2="39"/><text fill="#000000" font-family="sans-serif" font-size="14" lengthAdjust="spacing" textLength="154.793" x="13" y="55.9951">timeRemaining : Float</text><text fill="#000000" font-family="sans-serif" font-size="14" lengthAdjust="spacing" textLength="138.7695" x="13" y="72.292">isRunning : boolean</text><text fill="#000000" font-family="sans-serif" font-size="14" lengthAdjust="spacing" textLength="126.54" x="13" y="88.5889">timerLabel : Label</text><line style="stroke:#181818;stroke-width:0.5;" x1="8" x2="172.793" y1="95.8906" y2="95.8906"/><text fill="#000000" font-family="sans-serif" font-size="14" lengthAdjust="spacing" textLength="100.7002" x="13" y="112.8857">updateTimer()</text></g><!--class CharacterElement--><g class="entity" data-entity="CharacterElement" data-source-line="12" data-uid="ent0003" id="entity_CharacterElement"><rect fill="#F1F1F1" height="48" rx="2.5" ry="2.5" style="stroke:#181818;stroke-width:0.5;" width="159.0801" x="209" y="39.5"/><ellipse cx="224" cy="55.5" fill="#ADD1B2" rx="11" ry="11" style="stroke:#181818;stroke-width:1;"/><path d="M226.9688,61.1406 Q226.3906,61.4375 225.75,61.5781 Q225.1094,61.7344 224.4063,61.7344 Q221.9063,61.7344 220.5781,60.0938 Q219.2656,58.4375 219.2656,55.3125 Q219.2656,52.1875 220.5781,50.5313 Q221.9063,48.875 224.4063,48.875 Q225.1094,48.875 225.75,49.0313 Q226.4063,49.1875 226.9688,49.4844 L226.9688,52.2031 Q226.3438,51.625 225.75,51.3594 Q225.1563,51.0781 224.5313,51.0781 Q223.1875,51.0781 222.5,52.1563 Q221.8125,53.2188 221.8125,55.3125 Q221.8125,57.4063 222.5,58.4844 Q223.1875,59.5469 224.5313,59.5469 Q225.1563,59.5469 225.75,59.2813 Q226.3438,59 226.9688,58.4219 L226.9688,61.1406 Z " fill="#000000"/><text fill="#000000" font-family="sans-serif" font-size="14" lengthAdjust="spacing" textLength="127.0801" x="238" y="60.3467">CharacterElement</text><line style="stroke:#181818;stroke-width:0.5;" x1="210" x2="367.0801" y1="71.5" y2="71.5"/><line style="stroke:#181818;stroke-width:0.5;" x1="210" x2="367.0801" y1="79.5" y2="79.5"/></g><!--class Inventory--><g class="entity" data-entity="Inventory" data-source-line="15" data-uid="ent0004" id="entity_Inventory"><rect fill="#F1F1F1" height="48" rx="2.5" ry="2.5" style="stroke:#181818;stroke-width:0.5;" width="98.8691" x="41" y="220.5"/><ellipse cx="56" cy="236.5" fill="#ADD1B2" rx="11" ry="11" style="stroke:#181818;stroke-width:1;"/><path d="M58.9688,242.1406 Q58.3906,242.4375 57.75,242.5781 Q57.1094,242.7344 56.4063,242.7344 Q53.9063,242.7344 52.5781,241.0938 Q51.2656,239.4375 51.2656,236.3125 Q51.2656,233.1875 52.5781,231.5313 Q53.9063,229.875 56.4063,229.875 Q57.1094,229.875 57.75,230.0313 Q58.4063,230.1875 58.9688,230.4844 L58.9688,233.2031 Q58.3438,232.625 57.75,232.3594 Q57.1563,232.0781 56.5313,232.0781 Q55.1875,232.0781 54.5,233.1563 Q53.8125,234.2188 53.8125,236.3125 Q53.8125,238.4063 54.5,239.4844 Q55.1875,240.5469 56.5313,240.5469 Q57.1563,240.5469 57.75,240.2813 Q58.3438,240 58.9688,239.4219 L58.9688,242.1406 Z " fill="#000000"/><text fill="#000000" font-family="sans-serif" font-size="14" lengthAdjust="spacing" textLength="66.8691" x="70" y="241.3467">Inventory</text><line style="stroke:#181818;stroke-width:0.5;" x1="42" x2="138.8691" y1="252.5" y2="252.5"/><line style="stroke:#181818;stroke-width:0.5;" x1="42" x2="138.8691" y1="260.5" y2="260.5"/></g><!--class Screen--><g class="entity" data-entity="Screen" data-source-line="18" data-uid="ent0005" id="entity_Screen"><rect fill="#F1F1F1" height="80.5938" rx="2.5" ry="2.5" style="stroke:#181818;stroke-width:0.5;" width="107.0127" x="542" y="23"/><ellipse cx="568.958" cy="39" fill="#A9DCDF" rx="11" ry="11" style="stroke:#181818;stroke-width:1;"/><path d="M569.0673,34.3438 L567.9111,39.4219 L570.2392,39.4219 L569.0673,34.3438 Z M567.583,32.1094 L570.5673,32.1094 L573.9267,44.5 L571.4736,44.5 L570.708,41.4375 L567.4267,41.4375 L566.6767,44.5 L564.2392,44.5 L567.583,32.1094 Z " fill="#000000"/><text fill="#000000" font-family="sans-serif" font-size="14" font-style="italic" lengthAdjust="spacing" textLength="48.4395" x="585.6153" y="43.8467">Screen</text><line style="stroke:#181818;stroke-width:0.5;" x1="543" x2="648.0127" y1="55" y2="55"/><text fill="#000000" font-family="sans-serif" font-size="14" lengthAdjust="spacing" textLength="95.0127" x="548" y="71.9951">game : Game</text><line style="stroke:#181818;stroke-width:0.5;" x1="543" x2="648.0127" y1="79.2969" y2="79.2969"/><text fill="#000000" font-family="sans-serif" font-size="14" lengthAdjust="spacing" textLength="57.4219" x="548" y="96.292">render()</text></g><!--class InstructionScreen--><g class="entity" data-entity="InstructionScreen" data-source-line="23" data-uid="ent0006" id="entity_InstructionScreen"><rect fill="#F1F1F1" height="96.8906" rx="2.5" ry="2.5" style="stroke:#181818;stroke-width:0.5;" width="173.0273" x="735" y="196"/><ellipse cx="757.9466" cy="212" fill="#ADD1B2" rx="11" ry="11" style="stroke:#181818;stroke-width:1;"/><path d="M760.9154,217.6406 Q760.3373,217.9375 759.6966,218.0781 Q759.056,218.2344 758.3529,218.2344 Q755.8529,218.2344 754.5248,216.5938 Q753.2123,214.9375 753.2123,211.8125 Q753.2123,208.6875 754.5248,207.0313 Q755.8529,205.375 758.3529,205.375 Q759.056,205.375 759.6966,205.5313 Q760.3529,205.6875 760.9154,205.9844 L760.9154,208.7031 Q760.2904,208.125 759.6966,207.8594 Q759.1029,207.5781 758.4779,207.5781 Q757.1341,207.5781 756.4466,208.6563 Q755.7591,209.7188 755.7591,211.8125 Q755.7591,213.9063 756.4466,214.9844 Q757.1341,216.0469 758.4779,216.0469 Q759.1029,216.0469 759.6966,215.7813 Q760.2904,215.5 760.9154,214.9219 L760.9154,217.6406 Z " fill="#000000"/><text fill="#000000" font-family="sans-serif" font-size="14" lengthAdjust="spacing" textLength="123.3682" x="773.7125" y="216.8467">InstructionScreen</text><line style="stroke:#181818;stroke-width:0.5;" x1="736" x2="907.0273" y1="228" y2="228"/><text fill="#000000" font-family="sans-serif" font-size="14" lengthAdjust="spacing" textLength="161.0273" x="741" y="244.9951">instructionText : String</text><text fill="#000000" font-family="sans-serif" font-size="14" lengthAdjust="spacing" textLength="140.6768" x="741" y="261.292">backButton : Button</text><line style="stroke:#181818;stroke-width:0.5;" x1="736" x2="907.0273" y1="268.5938" y2="268.5938"/><text fill="#000000" font-family="sans-serif" font-size="14" lengthAdjust="spacing" textLength="129.3291" x="741" y="285.5889">showInstructions()</text></g><!--class PauseScreen--><g class="entity" data-entity="PauseScreen" data-source-line="29" data-uid="ent0007" id="entity_PauseScreen"><rect fill="#F1F1F1" height="96.8906" rx="2.5" ry="2.5" style="stroke:#181818;stroke-width:0.5;" width="172.1934" x="943.5" y="196"/><ellipse cx="980.9785" cy="212" fill="#ADD1B2" rx="11" ry="11" style="stroke:#181818;stroke-width:1;"/><path d="M983.9472,217.6406 Q983.3691,217.9375 982.7285,218.0781 Q982.0878,218.2344 981.3847,218.2344 Q978.8847,218.2344 977.5566,216.5938 Q976.2441,214.9375 976.2441,211.8125 Q976.2441,208.6875 977.5566,207.0313 Q978.8847,205.375 981.3847,205.375 Q982.0878,205.375 982.7285,205.5313 Q983.3847,205.6875 983.9472,205.9844 L983.9472,208.7031 Q983.3222,208.125 982.7285,207.8594 Q982.1347,207.5781 981.5097,207.5781 Q980.166,207.5781 979.4785,208.6563 Q978.791,209.7188 978.791,211.8125 Q978.791,213.9063 979.4785,214.9844 Q980.166,216.0469 981.5097,216.0469 Q982.1347,216.0469 982.7285,215.7813 Q983.3222,215.5 983.9472,214.9219 L983.9472,217.6406 Z " fill="#000000"/><text fill="#000000" font-family="sans-serif" font-size="14" lengthAdjust="spacing" textLength="90.2412" x="999.9737" y="216.8467">PauseScreen</text><line style="stroke:#181818;stroke-width:0.5;" x1="944.5" x2="1114.6934" y1="228" y2="228"/><text fill="#000000" font-family="sans-serif" font-size="14" lengthAdjust="spacing" textLength="160.1934" x="949.5" y="244.9951">resumeButton : Button</text><text fill="#000000" font-family="sans-serif" font-size="14" lengthAdjust="spacing" textLength="134.5449" x="949.5" y="261.292">quitButton : Button</text><line style="stroke:#181818;stroke-width:0.5;" x1="944.5" x2="1114.6934" y1="268.5938" y2="268.5938"/><text fill="#000000" font-family="sans-serif" font-size="14" lengthAdjust="spacing" textLength="85.5449" x="949.5" y="285.5889">showMenu()</text></g><!--class HomeScreen--><g class="entity" data-entity="HomeScreen" data-source-line="35" data-uid="ent0008" id="entity_HomeScreen"><rect fill="#F1F1F1" height="129.4844" rx="2.5" ry="2.5" style="stroke:#181818;stroke-width:0.5;" width="238.8916" x="175" y="180"/><ellipse cx="245.3042" cy="196" fill="#ADD1B2" rx="11" ry="11" style="stroke:#181818;stroke-width:1;"/><path d="M248.2729,201.6406 Q247.6948,201.9375 247.0542,202.0781 Q246.4136,202.2344 245.7104,202.2344 Q243.2104,202.2344 241.8823,200.5938 Q240.5698,198.9375 240.5698,195.8125 Q240.5698,192.6875 241.8823,191.0313 Q243.2104,189.375 245.7104,189.375 Q246.4136,189.375 247.0542,189.5313 Q247.7104,189.6875 248.2729,189.9844 L248.2729,192.7031 Q247.6479,192.125 247.0542,191.8594 Q246.4604,191.5781 245.8354,191.5781 Q244.4917,191.5781 243.8042,192.6563 Q243.1167,193.7188 243.1167,195.8125 Q243.1167,197.9063 243.8042,198.9844 Q244.4917,200.0469 245.8354,200.0469 Q246.4604,200.0469 247.0542,199.7813 Q247.6479,199.5 248.2729,198.9219 L248.2729,201.6406 Z " fill="#000000"/><text fill="#000000" font-family="sans-serif" font-size="14" lengthAdjust="spacing" textLength="89.7832" x="265.8042" y="200.8467">HomeScreen</text><line style="stroke:#181818;stroke-width:0.5;" x1="176" x2="412.8916" y1="212" y2="212"/><text fill="#000000" font-family="sans-serif" font-size="14" lengthAdjust="spacing" textLength="140.0137" x="181" y="228.9951">startButton : Button</text><text fill="#000000" font-family="sans-serif" font-size="14" lengthAdjust="spacing" textLength="148.7979" x="181" y="245.292">musicButton : Button</text><text fill="#000000" font-family="sans-serif" font-size="14" lengthAdjust="spacing" textLength="149.8984" x="181" y="261.5889">soundButton : Button</text><text fill="#000000" font-family="sans-serif" font-size="14" lengthAdjust="spacing" textLength="173.8994" x="181" y="277.8857">wardrobeButton : Button</text><line style="stroke:#181818;stroke-width:0.5;" x1="176" x2="412.8916" y1="285.1875" y2="285.1875"/><text fill="#000000" font-family="sans-serif" font-size="14" lengthAdjust="spacing" textLength="226.8916" x="181" y="302.1826">openScreen(Screen nextScreen)</text></g><!--class CharacterCustomisationScreen--><g class="entity" data-entity="CharacterCustomisationScreen" data-source-line="43" data-uid="ent0009" id="entity_CharacterCustomisationScreen"><rect fill="#F1F1F1" height="113.1875" rx="2.5" ry="2.5" style="stroke:#181818;stroke-width:0.5;" width="249.7725" x="449.5" y="188"/><ellipse cx="464.5" cy="204" fill="#ADD1B2" rx="11" ry="11" style="stroke:#181818;stroke-width:1;"/><path d="M467.4688,209.6406 Q466.8906,209.9375 466.25,210.0781 Q465.6094,210.2344 464.9063,210.2344 Q462.4063,210.2344 461.0781,208.5938 Q459.7656,206.9375 459.7656,203.8125 Q459.7656,200.6875 461.0781,199.0313 Q462.4063,197.375 464.9063,197.375 Q465.6094,197.375 466.25,197.5313 Q466.9063,197.6875 467.4688,197.9844 L467.4688,200.7031 Q466.8438,200.125 466.25,199.8594 Q465.6563,199.5781 465.0313,199.5781 Q463.6875,199.5781 463,200.6563 Q462.3125,201.7188 462.3125,203.8125 Q462.3125,205.9063 463,206.9844 Q463.6875,208.0469 465.0313,208.0469 Q465.6563,208.0469 466.25,207.7813 Q466.8438,207.5 467.4688,206.9219 L467.4688,209.6406 Z " fill="#000000"/><text fill="#000000" font-family="sans-serif" font-size="14" lengthAdjust="spacing" textLength="217.7725" x="478.5" y="208.8467">CharacterCustomisationScreen</text><line style="stroke:#181818;stroke-width:0.5;" x1="450.5" x2="698.2725" y1="220" y2="220"/><text fill="#000000" font-family="sans-serif" font-size="14" lengthAdjust="spacing" textLength="229.4551" x="455.5" y="236.9951">availableSkins : Array&lt;Texture&gt;</text><text fill="#000000" font-family="sans-serif" font-size="14" lengthAdjust="spacing" textLength="159.5098" x="455.5" y="253.292">selectedSkinIndex : int</text><text fill="#000000" font-family="sans-serif" font-size="14" lengthAdjust="spacing" textLength="160.7539" x="455.5" y="269.5889">confirmButton : Button</text><line style="stroke:#181818;stroke-width:0.5;" x1="450.5" x2="698.2725" y1="276.8906" y2="276.8906"/><text fill="#000000" font-family="sans-serif" font-size="14" lengthAdjust="spacing" textLength="79.208" x="455.5" y="293.8857">applySkin()</text></g><!--class Button--><g class="entity" data-entity="Button" data-source-line="51" data-uid="ent0011" id="entity_Button"><rect fill="#F1F1F1" height="96.8906" rx="2.5" ry="2.5" style="stroke:#181818;stroke-width:0.5;" width="148.3906" x="705.5" y="15"/><ellipse cx="751.998" cy="31" fill="#A9DCDF" rx="11" ry="11" style="stroke:#181818;stroke-width:1;"/><path d="M752.1074,26.3438 L750.9512,31.4219 L753.2793,31.4219 L752.1074,26.3438 Z M750.623,24.1094 L753.6074,24.1094 L756.9668,36.5 L754.5137,36.5 L753.748,33.4375 L750.4668,33.4375 L749.7168,36.5 L747.2793,36.5 L750.623,24.1094 Z " fill="#000000"/><text fill="#000000" font-family="sans-serif" font-size="14" font-style="italic" lengthAdjust="spacing" textLength="46.8945" x="772.498" y="35.8467">Button</text><line style="stroke:#181818;stroke-width:0.5;" x1="706.5" x2="852.8906" y1="47" y2="47"/><text fill="#000000" font-family="sans-serif" font-size="14" lengthAdjust="spacing" textLength="135.3652" x="711.5" y="63.9951">bounds : Rectangle</text><text fill="#000000" font-family="sans-serif" font-size="14" lengthAdjust="spacing" textLength="136.3906" x="711.5" y="80.292">isPressed : Boolean</text><line style="stroke:#181818;stroke-width:0.5;" x1="706.5" x2="852.8906" y1="87.5938" y2="87.5938"/><text fill="#000000" font-family="sans-serif" font-size="14" lengthAdjust="spacing" textLength="61.7217" x="711.5" y="104.5889">onClick()</text></g><!--class Player--><g class="entity" data-entity="Player" data-source-line="70" data-uid="ent0019" id="entity_Player"><rect fill="#F1F1F1" height="80.5938" rx="2.5" ry="2.5" style="stroke:#181818;stroke-width:0.5;" width="135.6758" x="1161.5" y="23"/><ellipse cx="1203.5497" cy="39" fill="#ADD1B2" rx="11" ry="11" style="stroke:#181818;stroke-width:1;"/><path d="M1206.5184,44.6406 Q1205.9403,44.9375 1205.2997,45.0781 Q1204.659,45.2344 1203.9559,45.2344 Q1201.4559,45.2344 1200.1278,43.5938 Q1198.8153,41.9375 1198.8153,38.8125 Q1198.8153,35.6875 1200.1278,34.0313 Q1201.4559,32.375 1203.9559,32.375 Q1204.659,32.375 1205.2997,32.5313 Q1205.9559,32.6875 1206.5184,32.9844 L1206.5184,35.7031 Q1205.8934,35.125 1205.2997,34.8594 Q1204.7059,34.5781 1204.0809,34.5781 Q1202.7372,34.5781 1202.0497,35.6563 Q1201.3622,36.7188 1201.3622,38.8125 Q1201.3622,40.9063 1202.0497,41.9844 Q1202.7372,43.0469 1204.0809,43.0469 Q1204.7059,43.0469 1205.2997,42.7813 Q1205.8934,42.5 1206.5184,41.9219 L1206.5184,44.6406 Z " fill="#000000"/><text fill="#000000" font-family="sans-serif" font-size="14" lengthAdjust="spacing" textLength="43.5654" x="1223.5607" y="43.8467">Player</text><line style="stroke:#181818;stroke-width:0.5;" x1="1162.5" x2="1296.1758" y1="55" y2="55"/><text fill="#000000" font-family="sans-serif" font-size="14" lengthAdjust="spacing" textLength="123.6758" x="1167.5" y="71.9951">position : Vector2</text><line style="stroke:#181818;stroke-width:0.5;" x1="1162.5" x2="1296.1758" y1="79.2969" y2="79.2969"/><text fill="#000000" font-family="sans-serif" font-size="14" lengthAdjust="spacing" textLength="50.0254" x="1167.5" y="96.292">move()</text></g><!--class Energy--><g class="entity" data-entity="Energy" data-source-line="75" data-uid="ent0020" id="entity_Energy"><rect fill="#F1F1F1" height="80.5938" rx="2.5" ry="2.5" style="stroke:#181818;stroke-width:0.5;" width="157.3867" x="1151" y="204"/><ellipse cx="1200.8135" cy="220" fill="#ADD1B2" rx="11" ry="11" style="stroke:#181818;stroke-width:1;"/><path d="M1203.7822,225.6406 Q1203.2041,225.9375 1202.5635,226.0781 Q1201.9229,226.2344 1201.2197,226.2344 Q1198.7197,226.2344 1197.3916,224.5938 Q1196.0791,222.9375 1196.0791,219.8125 Q1196.0791,216.6875 1197.3916,215.0313 Q1198.7197,213.375 1201.2197,213.375 Q1201.9229,213.375 1202.5635,213.5313 Q1203.2197,213.6875 1203.7822,213.9844 L1203.7822,216.7031 Q1203.1572,216.125 1202.5635,215.8594 Q1201.9697,215.5781 1201.3447,215.5781 Q1200.001,215.5781 1199.3135,216.6563 Q1198.626,217.7188 1198.626,219.8125 Q1198.626,221.9063 1199.3135,222.9844 Q1200.001,224.0469 1201.3447,224.0469 Q1201.9697,224.0469 1202.5635,223.7813 Q1203.1572,223.5 1203.7822,222.9219 L1203.7822,225.6406 Z " fill="#000000"/><text fill="#000000" font-family="sans-serif" font-size="14" lengthAdjust="spacing" textLength="49.2598" x="1221.3135" y="224.8467">Energy</text><line style="stroke:#181818;stroke-width:0.5;" x1="1152" x2="1307.3867" y1="236" y2="236"/><text fill="#000000" font-family="sans-serif" font-size="14" lengthAdjust="spacing" textLength="145.3867" x="1157" y="252.9951">currentEnergy : float</text><text fill="#000000" font-family="sans-serif" font-size="14" lengthAdjust="spacing" textLength="124.8311" x="1157" y="269.292">maxEnergy : float</text><line style="stroke:#181818;stroke-width:0.5;" x1="1152" x2="1307.3867" y1="276.5938" y2="276.5938"/></g><!--class Room--><g class="entity" data-entity="Room" data-source-line="84" data-uid="ent0022" id="entity_Room"><rect fill="#F1F1F1" height="64.2969" rx="2.5" ry="2.5" style="stroke:#181818;stroke-width:0.5;" width="162.9102" x="1333" y="31.5"/><ellipse cx="1389.957" cy="47.5" fill="#ADD1B2" rx="11" ry="11" style="stroke:#181818;stroke-width:1;"/><path d="M1392.9258,53.1406 Q1392.3477,53.4375 1391.707,53.5781 Q1391.0664,53.7344 1390.3633,53.7344 Q1387.8633,53.7344 1386.5352,52.0938 Q1385.2227,50.4375 1385.2227,47.3125 Q1385.2227,44.1875 1386.5352,42.5313 Q1387.8633,40.875 1390.3633,40.875 Q1391.0664,40.875 1391.707,41.0313 Q1392.3633,41.1875 1392.9258,41.4844 L1392.9258,44.2031 Q1392.3008,43.625 1391.707,43.3594 Q1391.1133,43.0781 1390.4883,43.0781 Q1389.1445,43.0781 1388.457,44.1563 Q1387.7695,45.2188 1387.7695,47.3125 Q1387.7695,49.4063 1388.457,50.4844 Q1389.1445,51.5469 1390.4883,51.5469 Q1391.1133,51.5469 1391.707,51.2813 Q1392.3008,51 1392.9258,50.4219 L1392.9258,53.1406 Z " fill="#000000"/><text fill="#000000" font-family="sans-serif" font-size="14" lengthAdjust="spacing" textLength="40.4961" x="1410.457" y="52.3467">Room</text><line style="stroke:#181818;stroke-width:0.5;" x1="1334" x2="1494.9102" y1="63.5" y2="63.5"/><text fill="#000000" font-family="sans-serif" font-size="14" lengthAdjust="spacing" textLength="150.9102" x="1339" y="80.4951">background : Texture</text><line style="stroke:#181818;stroke-width:0.5;" x1="1334" x2="1494.9102" y1="87.7969" y2="87.7969"/></g><!--class Door--><g class="entity" data-entity="Door" data-source-line="88" data-uid="ent0023" id="entity_Door"><rect fill="#F1F1F1" height="48" rx="2.5" ry="2.5" style="stroke:#181818;stroke-width:0.5;" width="65.667" x="1381.5" y="220.5"/><ellipse cx="1396.5" cy="236.5" fill="#ADD1B2" rx="11" ry="11" style="stroke:#181818;stroke-width:1;"/><path d="M1399.4688,242.1406 Q1398.8906,242.4375 1398.25,242.5781 Q1397.6094,242.7344 1396.9063,242.7344 Q1394.4063,242.7344 1393.0781,241.0938 Q1391.7656,239.4375 1391.7656,236.3125 Q1391.7656,233.1875 1393.0781,231.5313 Q1394.4063,229.875 1396.9063,229.875 Q1397.6094,229.875 1398.25,230.0313 Q1398.9063,230.1875 1399.4688,230.4844 L1399.4688,233.2031 Q1398.8438,232.625 1398.25,232.3594 Q1397.6563,232.0781 1397.0313,232.0781 Q1395.6875,232.0781 1395,233.1563 Q1394.3125,234.2188 1394.3125,236.3125 Q1394.3125,238.4063 1395,239.4844 Q1395.6875,240.5469 1397.0313,240.5469 Q1397.6563,240.5469 1398.25,240.2813 Q1398.8438,240 1399.4688,239.4219 L1399.4688,242.1406 Z " fill="#000000"/><text fill="#000000" font-family="sans-serif" font-size="14" lengthAdjust="spacing" textLength="33.667" x="1410.5" y="241.3467">Door</text><line style="stroke:#181818;stroke-width:0.5;" x1="1382.5" x2="1446.167" y1="252.5" y2="252.5"/><line style="stroke:#181818;stroke-width:0.5;" x1="1382.5" x2="1446.167" y1="260.5" y2="260.5"/></g><!--class Event--><g class="entity" data-entity="Event" data-source-line="91" data-uid="ent0025" id="entity_Event"><rect fill="#F1F1F1" height="96.8906" rx="2.5" ry="2.5" style="stroke:#181818;stroke-width:0.5;" width="146.3672" x="1663.5" y="15"/><ellipse cx="1712.3804" cy="31" fill="#A9DCDF" rx="11" ry="11" style="stroke:#181818;stroke-width:1;"/><path d="M1712.4897,26.3438 L1711.3335,31.4219 L1713.6616,31.4219 L1712.4897,26.3438 Z M1711.0054,24.1094 L1713.9897,24.1094 L1717.3491,36.5 L1714.896,36.5 L1714.1304,33.4375 L1710.8491,33.4375 L1710.0991,36.5 L1707.6616,36.5 L1711.0054,24.1094 Z " fill="#000000"/><text fill="#000000" font-family="sans-serif" font-size="14" font-style="italic" lengthAdjust="spacing" textLength="40.1064" x="1732.8804" y="35.8467">Event</text><line style="stroke:#181818;stroke-width:0.5;" x1="1664.5" x2="1808.8672" y1="47" y2="47"/><text fill="#000000" font-family="sans-serif" font-size="14" lengthAdjust="spacing" textLength="123.6758" x="1669.5" y="63.9951">position : Vector2</text><text fill="#000000" font-family="sans-serif" font-size="14" lengthAdjust="spacing" textLength="134.3672" x="1669.5" y="80.292">triggered : boolean</text><text fill="#000000" font-family="sans-serif" font-size="14" lengthAdjust="spacing" textLength="66.582" x="1669.5" y="96.5889">id : string</text><line style="stroke:#181818;stroke-width:0.5;" x1="1664.5" x2="1808.8672" y1="103.8906" y2="103.8906"/></g><!--class Item--><g class="entity" data-entity="Item" data-source-line="97" data-uid="ent0026" id="entity_Item"><rect fill="#F1F1F1" height="96.8906" rx="2.5" ry="2.5" style="stroke:#181818;stroke-width:0.5;" width="160.1279" x="1482.5" y="196"/><ellipse cx="1542.3794" cy="212" fill="#B4A7E5" rx="11" ry="11" style="stroke:#181818;stroke-width:1;"/><path d="M1538.3013,207.7656 L1538.3013,205.6094 L1545.6919,205.6094 L1545.6919,207.7656 L1543.2231,207.7656 L1543.2231,215.8438 L1545.6919,215.8438 L1545.6919,218 L1538.3013,218 L1538.3013,215.8438 L1540.77,215.8438 L1540.77,207.7656 L1538.3013,207.7656 Z " fill="#000000"/><text fill="#000000" font-family="sans-serif" font-size="14" font-style="italic" lengthAdjust="spacing" textLength="31.8691" x="1562.8794" y="216.8467">Item</text><line style="stroke:#181818;stroke-width:0.5;" x1="1483.5" x2="1641.6279" y1="228" y2="228"/><text fill="#000000" font-family="sans-serif" font-size="14" lengthAdjust="spacing" textLength="100.0439" x="1488.5" y="244.9951">itemId : String</text><text fill="#000000" font-family="sans-serif" font-size="14" lengthAdjust="spacing" textLength="145.3799" x="1488.5" y="261.292">icon : TextureRegion</text><text fill="#000000" font-family="sans-serif" font-size="14" lengthAdjust="spacing" textLength="148.1279" x="1488.5" y="277.5889">pickupSound : Sound</text><line style="stroke:#181818;stroke-width:0.5;" x1="1483.5" x2="1641.6279" y1="284.8906" y2="284.8906"/></g><!--class Obstacle--><g class="entity" data-entity="Obstacle" data-source-line="103" data-uid="ent0027" id="entity_Obstacle"><rect fill="#F1F1F1" height="64.2969" rx="2.5" ry="2.5" style="stroke:#181818;stroke-width:0.5;" width="178.9951" x="1754" y="212.5"/><ellipse cx="1808.5132" cy="228.5" fill="#B4A7E5" rx="11" ry="11" style="stroke:#181818;stroke-width:1;"/><path d="M1804.4351,224.2656 L1804.4351,222.1094 L1811.8257,222.1094 L1811.8257,224.2656 L1809.3569,224.2656 L1809.3569,232.3438 L1811.8257,232.3438 L1811.8257,234.5 L1804.4351,234.5 L1804.4351,232.3438 L1806.9038,232.3438 L1806.9038,224.2656 L1804.4351,224.2656 Z " fill="#000000"/><text fill="#000000" font-family="sans-serif" font-size="14" font-style="italic" lengthAdjust="spacing" textLength="61.4688" x="1829.0132" y="233.3467">Obstacle</text><line style="stroke:#181818;stroke-width:0.5;" x1="1755" x2="1931.9951" y1="244.5" y2="244.5"/><text fill="#000000" font-family="sans-serif" font-size="14" lengthAdjust="spacing" textLength="166.9951" x="1760" y="261.4951">collisionBox : Rectangle</text><line style="stroke:#181818;stroke-width:0.5;" x1="1755" x2="1931.9951" y1="268.7969" y2="268.7969"/></g><!--class Keys--><g class="entity" data-entity="Keys" data-source-line="107" data-uid="ent0028" id="entity_Keys"><rect fill="#F1F1F1" height="64.2969" rx="2.5" ry="2.5" style="stroke:#181818;stroke-width:0.5;" width="127.8145" x="1297.5" y="369"/><ellipse cx="1340.5986" cy="385" fill="#ADD1B2" rx="11" ry="11" style="stroke:#181818;stroke-width:1;"/><path d="M1343.5674,390.6406 Q1342.9893,390.9375 1342.3486,391.0781 Q1341.708,391.2344 1341.0049,391.2344 Q1338.5049,391.2344 1337.1768,389.5938 Q1335.8643,387.9375 1335.8643,384.8125 Q1335.8643,381.6875 1337.1768,380.0313 Q1338.5049,378.375 1341.0049,378.375 Q1341.708,378.375 1342.3486,378.5313 Q1343.0049,378.6875 1343.5674,378.9844 L1343.5674,381.7031 Q1342.9424,381.125 1342.3486,380.8594 Q1341.7549,380.5781 1341.1299,380.5781 Q1339.7861,380.5781 1339.0986,381.6563 Q1338.4111,382.7188 1338.4111,384.8125 Q1338.4111,386.9063 1339.0986,387.9844 Q1339.7861,389.0469 1341.1299,389.0469 Q1341.7549,389.0469 1342.3486,388.7813 Q1342.9424,388.5 1343.5674,387.9219 L1343.5674,390.6406 Z " fill="#000000"/><text fill="#000000" font-family="sans-serif" font-size="14" lengthAdjust="spacing" textLength="33.373" x="1360.8428" y="389.8467">Keys</text><line style="stroke:#181818;stroke-width:0.5;" x1="1298.5" x2="1424.3145" y1="401" y2="401"/><text fill="#000000" font-family="sans-serif" font-size="14" lengthAdjust="spacing" textLength="115.8145" x="1303.5" y="417.9951">isUsed : boolean</text><line style="stroke:#181818;stroke-width:0.5;" x1="1298.5" x2="1424.3145" y1="425.2969" y2="425.2969"/></g><!--class Drink--><g class="entity" data-entity="Drink" data-source-line="111" data-uid="ent0029" id="entity_Drink"><rect fill="#F1F1F1" height="64.2969" rx="2.5" ry="2.5" style="stroke:#181818;stroke-width:0.5;" width="154.0303" x="1460.5" y="369"/><ellipse cx="1514.562" cy="385" fill="#ADD1B2" rx="11" ry="11" style="stroke:#181818;stroke-width:1;"/><path d="M1517.5308,390.6406 Q1516.9526,390.9375 1516.312,391.0781 Q1515.6714,391.2344 1514.9683,391.2344 Q1512.4683,391.2344 1511.1401,389.5938 Q1509.8276,387.9375 1509.8276,384.8125 Q1509.8276,381.6875 1511.1401,380.0313 Q1512.4683,378.375 1514.9683,378.375 Q1515.6714,378.375 1516.312,378.5313 Q1516.9683,378.6875 1517.5308,378.9844 L1517.5308,381.7031 Q1516.9058,381.125 1516.312,380.8594 Q1515.7183,380.5781 1515.0933,380.5781 Q1513.7495,380.5781 1513.062,381.6563 Q1512.3745,382.7188 1512.3745,384.8125 Q1512.3745,386.9063 1513.062,387.9844 Q1513.7495,389.0469 1515.0933,389.0469 Q1515.7183,389.0469 1516.312,388.7813 Q1516.9058,388.5 1517.5308,387.9219 L1517.5308,390.6406 Z " fill="#000000"/><text fill="#000000" font-family="sans-serif" font-size="14" lengthAdjust="spacing" textLength="37.4063" x="1535.062" y="389.8467">Drink</text><line style="stroke:#181818;stroke-width:0.5;" x1="1461.5" x2="1613.5303" y1="401" y2="401"/><text fill="#000000" font-family="sans-serif" font-size="14" lengthAdjust="spacing" textLength="142.0303" x="1466.5" y="417.9951">consumed : boolean</text><line style="stroke:#181818;stroke-width:0.5;" x1="1461.5" x2="1613.5303" y1="425.2969" y2="425.2969"/></g><!--class Map--><g class="entity" data-entity="Map" data-source-line="117" data-uid="ent0032" id="entity_Map"><rect fill="#F1F1F1" height="48" rx="2.5" ry="2.5" style="stroke:#181818;stroke-width:0.5;" width="61.5449" x="1762.5" y="377"/><ellipse cx="1777.5" cy="393" fill="#ADD1B2" rx="11" ry="11" style="stroke:#181818;stroke-width:1;"/><path d="M1780.4688,398.6406 Q1779.8906,398.9375 1779.25,399.0781 Q1778.6094,399.2344 1777.9063,399.2344 Q1775.4063,399.2344 1774.0781,397.5938 Q1772.7656,395.9375 1772.7656,392.8125 Q1772.7656,389.6875 1774.0781,388.0313 Q1775.4063,386.375 1777.9063,386.375 Q1778.6094,386.375 1779.25,386.5313 Q1779.9063,386.6875 1780.4688,386.9844 L1780.4688,389.7031 Q1779.8438,389.125 1779.25,388.8594 Q1778.6563,388.5781 1778.0313,388.5781 Q1776.6875,388.5781 1776,389.6563 Q1775.3125,390.7188 1775.3125,392.8125 Q1775.3125,394.9063 1776,395.9844 Q1776.6875,397.0469 1778.0313,397.0469 Q1778.6563,397.0469 1779.25,396.7813 Q1779.8438,396.5 1780.4688,395.9219 L1780.4688,398.6406 Z " fill="#000000"/><text fill="#000000" font-family="sans-serif" font-size="14" lengthAdjust="spacing" textLength="29.5449" x="1791.5" y="397.8467">Map</text><line style="stroke:#181818;stroke-width:0.5;" x1="1763.5" x2="1823.0449" y1="409" y2="409"/><line style="stroke:#181818;stroke-width:0.5;" x1="1763.5" x2="1823.0449" y1="417" y2="417"/></g><!--class Dean--><g class="entity" data-entity="Dean" data-source-line="118" data-uid="ent0034" id="entity_Dean"><rect fill="#F1F1F1" height="48" rx="2.5" ry="2.5" style="stroke:#181818;stroke-width:0.5;" width="68.8457" x="1860" y="377"/><ellipse cx="1875" cy="393" fill="#ADD1B2" rx="11" ry="11" style="stroke:#181818;stroke-width:1;"/><path d="M1877.9688,398.6406 Q1877.3906,398.9375 1876.75,399.0781 Q1876.1094,399.2344 1875.4063,399.2344 Q1872.9063,399.2344 1871.5781,397.5938 Q1870.2656,395.9375 1870.2656,392.8125 Q1870.2656,389.6875 1871.5781,388.0313 Q1872.9063,386.375 1875.4063,386.375 Q1876.1094,386.375 1876.75,386.5313 Q1877.4063,386.6875 1877.9688,386.9844 L1877.9688,389.7031 Q1877.3438,389.125 1876.75,388.8594 Q1876.1563,388.5781 1875.5313,388.5781 Q1874.1875,388.5781 1873.5,389.6563 Q1872.8125,390.7188 1872.8125,392.8125 Q1872.8125,394.9063 1873.5,395.9844 Q1874.1875,397.0469 1875.5313,397.0469 Q1876.1563,397.0469 1876.75,396.7813 Q1877.3438,396.5 1877.9688,395.9219 L1877.9688,398.6406 Z " fill="#000000"/><text fill="#000000" font-family="sans-serif" font-size="14" lengthAdjust="spacing" textLength="36.8457" x="1889" y="397.8467">Dean</text><line style="stroke:#181818;stroke-width:0.5;" x1="1861" x2="1927.8457" y1="409" y2="409"/><line style="stroke:#181818;stroke-width:0.5;" x1="1861" x2="1927.8457" y1="417" y2="417"/></g><!--class Duck--><g class="entity" data-entity="Duck" data-source-line="119" data-uid="ent0036" id="entity_Duck"><rect fill="#F1F1F1" height="48" rx="2.5" ry="2.5" style="stroke:#181818;stroke-width:0.5;" width="67.458" x="1964" y="377"/><ellipse cx="1979" cy="393" fill="#ADD1B2" rx="11" ry="11" style="stroke:#181818;stroke-width:1;"/><path d="M1981.9688,398.6406 Q1981.3906,398.9375 1980.75,399.0781 Q1980.1094,399.2344 1979.4063,399.2344 Q1976.9063,399.2344 1975.5781,397.5938 Q1974.2656,395.9375 1974.2656,392.8125 Q1974.2656,389.6875 1975.5781,388.0313 Q1976.9063,386.375 1979.4063,386.375 Q1980.1094,386.375 1980.75,386.5313 Q1981.4063,386.6875 1981.9688,386.9844 L1981.9688,389.7031 Q1981.3438,389.125 1980.75,388.8594 Q1980.1563,388.5781 1979.5313,388.5781 Q1978.1875,388.5781 1977.5,389.6563 Q1976.8125,390.7188 1976.8125,392.8125 Q1976.8125,394.9063 1977.5,395.9844 Q1978.1875,397.0469 1979.5313,397.0469 Q1980.1563,397.0469 1980.75,396.7813 Q1981.3438,396.5 1981.9688,395.9219 L1981.9688,398.6406 Z " fill="#000000"/><text fill="#000000" font-family="sans-serif" font-size="14" lengthAdjust="spacing" textLength="35.458" x="1993" y="397.8467">Duck</text><line style="stroke:#181818;stroke-width:0.5;" x1="1965" x2="2030.458" y1="409" y2="409"/><line style="stroke:#181818;stroke-width:0.5;" x1="1965" x2="2030.458" y1="417" y2="417"/></g><!--class Statue--><g class="entity" data-entity="Statue" data-source-line="122" data-uid="ent0040" id="entity_Statue"><rect fill="#F1F1F1" height="48" rx="2.5" ry="2.5" style="stroke:#181818;stroke-width:0.5;" width="77.9307" x="1649.5" y="377"/><ellipse cx="1664.5" cy="393" fill="#ADD1B2" rx="11" ry="11" style="stroke:#181818;stroke-width:1;"/><path d="M1667.4688,398.6406 Q1666.8906,398.9375 1666.25,399.0781 Q1665.6094,399.2344 1664.9063,399.2344 Q1662.4063,399.2344 1661.0781,397.5938 Q1659.7656,395.9375 1659.7656,392.8125 Q1659.7656,389.6875 1661.0781,388.0313 Q1662.4063,386.375 1664.9063,386.375 Q1665.6094,386.375 1666.25,386.5313 Q1666.9063,386.6875 1667.4688,386.9844 L1667.4688,389.7031 Q1666.8438,389.125 1666.25,388.8594 Q1665.6563,388.5781 1665.0313,388.5781 Q1663.6875,388.5781 1663,389.6563 Q1662.3125,390.7188 1662.3125,392.8125 Q1662.3125,394.9063 1663,395.9844 Q1663.6875,397.0469 1665.0313,397.0469 Q1665.6563,397.0469 1666.25,396.7813 Q1666.8438,396.5 1667.4688,395.9219 L1667.4688,398.6406 Z " fill="#000000"/><text fill="#000000" font-family="sans-serif" font-size="14" lengthAdjust="spacing" textLength="45.9307" x="1678.5" y="397.8467">Statue</text><line style="stroke:#181818;stroke-width:0.5;" x1="1650.5" x2="1726.4307" y1="409" y2="409"/><line style="stroke:#181818;stroke-width:0.5;" x1="1650.5" x2="1726.4307" y1="417" y2="417"/></g><!--class HiddenEvent--><g class="entity" data-entity="HiddenEvent" data-source-line="125" data-uid="ent0042" id="entity_HiddenEvent"><rect fill="#F1F1F1" height="80.5938" rx="2.5" ry="2.5" style="stroke:#181818;stroke-width:0.5;" width="157.9814" x="2084.5" y="23"/><ellipse cx="2115.7892" cy="39" fill="#A9DCDF" rx="11" ry="11" style="stroke:#181818;stroke-width:1;"/><path d="M2115.8986,34.3438 L2114.7423,39.4219 L2117.0705,39.4219 L2115.8986,34.3438 Z M2114.4142,32.1094 L2117.3986,32.1094 L2120.758,44.5 L2118.3048,44.5 L2117.5392,41.4375 L2114.258,41.4375 L2113.508,44.5 L2111.0705,44.5 L2114.4142,32.1094 Z " fill="#000000"/><text fill="#000000" font-family="sans-serif" font-size="14" font-style="italic" lengthAdjust="spacing" textLength="89.7832" x="2133.409" y="43.8467">HiddenEvent</text><line style="stroke:#181818;stroke-width:0.5;" x1="2085.5" x2="2241.4814" y1="55" y2="55"/><text fill="#000000" font-family="sans-serif" font-size="14" lengthAdjust="spacing" textLength="145.9814" x="2090.5" y="71.9951">isRevealed : boolean</text><line style="stroke:#181818;stroke-width:0.5;" x1="2085.5" x2="2241.4814" y1="79.2969" y2="79.2969"/><text fill="#000000" font-family="sans-serif" font-size="14" lengthAdjust="spacing" textLength="67.5459" x="2090.5" y="96.292">activate()</text></g><!--class LongBoiSpirit--><g class="entity" data-entity="LongBoiSpirit" data-source-line="130" data-uid="ent0043" id="entity_LongBoiSpirit"><rect fill="#F1F1F1" height="64.2969" rx="2.5" ry="2.5" style="stroke:#181818;stroke-width:0.5;" width="174.8252" x="1968" y="212.5"/><ellipse cx="2005.4292" cy="228.5" fill="#ADD1B2" rx="11" ry="11" style="stroke:#181818;stroke-width:1;"/><path d="M2008.398,234.1406 Q2007.8199,234.4375 2007.1792,234.5781 Q2006.5386,234.7344 2005.8355,234.7344 Q2003.3355,234.7344 2002.0074,233.0938 Q2000.6949,231.4375 2000.6949,228.3125 Q2000.6949,225.1875 2002.0074,223.5313 Q2003.3355,221.875 2005.8355,221.875 Q2006.5386,221.875 2007.1792,222.0313 Q2007.8355,222.1875 2008.398,222.4844 L2008.398,225.2031 Q2007.773,224.625 2007.1792,224.3594 Q2006.5855,224.0781 2005.9605,224.0781 Q2004.6167,224.0781 2003.9292,225.1563 Q2003.2417,226.2188 2003.2417,228.3125 Q2003.2417,230.4063 2003.9292,231.4844 Q2004.6167,232.5469 2005.9605,232.5469 Q2006.5855,232.5469 2007.1792,232.2813 Q2007.773,232 2008.398,231.4219 L2008.398,234.1406 Z " fill="#000000"/><text fill="#000000" font-family="sans-serif" font-size="14" lengthAdjust="spacing" textLength="92.9824" x="2024.4135" y="233.3467">LongBoiSpirit</text><line style="stroke:#181818;stroke-width:0.5;" x1="1969" x2="2141.8252" y1="244.5" y2="244.5"/><text fill="#000000" font-family="sans-serif" font-size="14" lengthAdjust="spacing" textLength="162.8252" x="1974" y="261.4951">appearanceTime : float</text><line style="stroke:#181818;stroke-width:0.5;" x1="1969" x2="2141.8252" y1="268.7969" y2="268.7969"/></g><!--class PowerCut--><g class="entity" data-entity="PowerCut" data-source-line="134" data-uid="ent0044" id="entity_PowerCut"><rect fill="#F1F1F1" height="80.5938" rx="2.5" ry="2.5" style="stroke:#181818;stroke-width:0.5;" width="187.8066" x="2178.5" y="204"/><ellipse cx="2234.6709" cy="220" fill="#ADD1B2" rx="11" ry="11" style="stroke:#181818;stroke-width:1;"/><path d="M2237.6396,225.6406 Q2237.0615,225.9375 2236.4209,226.0781 Q2235.7803,226.2344 2235.0771,226.2344 Q2232.5771,226.2344 2231.249,224.5938 Q2229.9365,222.9375 2229.9365,219.8125 Q2229.9365,216.6875 2231.249,215.0313 Q2232.5771,213.375 2235.0771,213.375 Q2235.7803,213.375 2236.4209,213.5313 Q2237.0771,213.6875 2237.6396,213.9844 L2237.6396,216.7031 Q2237.0146,216.125 2236.4209,215.8594 Q2235.8271,215.5781 2235.2021,215.5781 Q2233.8584,215.5781 2233.1709,216.6563 Q2232.4834,217.7188 2232.4834,219.8125 Q2232.4834,221.9063 2233.1709,222.9844 Q2233.8584,224.0469 2235.2021,224.0469 Q2235.8271,224.0469 2236.4209,223.7813 Q2237.0146,223.5 2237.6396,222.9219 L2237.6396,225.6406 Z " fill="#000000"/><text fill="#000000" font-family="sans-serif" font-size="14" lengthAdjust="spacing" textLength="66.9648" x="2255.1709" y="224.8467">PowerCut</text><line style="stroke:#181818;stroke-width:0.5;" x1="2179.5" x2="2365.3066" y1="236" y2="236"/><text fill="#000000" font-family="sans-serif" font-size="14" lengthAdjust="spacing" textLength="103.9814" x="2184.5" y="252.9951">duration : float</text><text fill="#000000" font-family="sans-serif" font-size="14" lengthAdjust="spacing" textLength="175.8066" x="2184.5" y="269.292">powerRestored : boolean</text><line style="stroke:#181818;stroke-width:0.5;" x1="2179.5" x2="2365.3066" y1="276.5938" y2="276.5938"/></g><!--reverse link Screen to InstructionScreen--><g class="link" data-entity-1="Screen" data-entity-2="InstructionScreen" data-source-line="50" data-uid="lnk10" id="link_Screen_InstructionScreen"><path codeLine="50" d="M659.4886,115.1779 C693.6686,142.2579 725.1,167.15 761.31,195.82" fill="none" id="Screen-backto-InstructionScreen" style="stroke:#181818;stroke-width:1;"/><polygon fill="none" points="645.38,104,655.7627,119.8808,663.2146,110.4751,645.38,104" style="stroke:#181818;stroke-width:1;"/></g><!--reverse link Button to InstructionScreen--><g class="link" data-entity-1="Button" data-entity-2="InstructionScreen" data-source-line="51" data-uid="lnk12" id="link_Button_InstructionScreen"><path codeLine="51" d="M794.8725,129.9939 C800.9225,155.7739 804.24,169.95 810.29,195.71" fill="none" id="Button-backto-InstructionScreen" style="stroke:#181818;stroke-width:1;"/><polygon fill="none" points="790.76,112.47,789.0312,131.3647,800.7138,128.6231,790.76,112.47" style="stroke:#181818;stroke-width:1;"/></g><!--reverse link Button to PauseScreen--><g class="link" data-entity-1="Button" data-entity-2="PauseScreen" data-source-line="53" data-uid="lnk13" id="link_Button_PauseScreen"><path codeLine="53" d="M860.8035,122.7114 C896.9635,148.6114 926.89,170.03 963.02,195.9" fill="none" id="Button-backto-PauseScreen" style="stroke:#181818;stroke-width:1;"/><polygon fill="none" points="846.17,112.23,857.3097,127.5893,864.2973,117.8336,846.17,112.23" style="stroke:#181818;stroke-width:1;"/></g><!--reverse link Screen to PauseScreen--><g class="link" data-entity-1="Screen" data-entity-2="PauseScreen" data-source-line="54" data-uid="lnk14" id="link_Screen_PauseScreen"><path codeLine="54" d="M664.5946,109.5398 C676.8646,116.7398 674.59,114.62 687.5,120 C788.19,161.97 824.92,137.76 925.5,180 C936.23,184.5 947.15,190 957.68,195.86" fill="none" id="Screen-backto-PauseScreen" style="stroke:#181818;stroke-width:1;"/><polygon fill="none" points="649.07,100.43,661.558,114.7146,667.6312,104.3649,649.07,100.43" style="stroke:#181818;stroke-width:1;"/></g><!--reverse link Button to HomeScreen--><g class="link" data-entity-1="Button" data-entity-2="HomeScreen" data-source-line="56" data-uid="lnk15" id="link_Button_HomeScreen"><path codeLine="56" d="M689.069,111.2026 C676.299,117.1626 679.32,115.27 666.5,120 C565.36,157.29 533.05,143.85 431.5,180 C425.82,182.02 420.05,184.19 414.26,186.47" fill="none" id="Button-backto-HomeScreen" style="stroke:#181818;stroke-width:1;"/><polygon fill="none" points="705.38,103.59,686.5315,105.7656,691.6066,116.6396,705.38,103.59" style="stroke:#181818;stroke-width:1;"/></g><!--reverse link Screen to HomeScreen--><g class="link" data-entity-1="Screen" data-entity-2="HomeScreen" data-source-line="57" data-uid="lnk16" id="link_Screen_HomeScreen"><path codeLine="57" d="M526.2184,105.6994 C487.3184,128.8294 448.96,151.64 401.46,179.89" fill="none" id="Screen-backto-HomeScreen" style="stroke:#181818;stroke-width:1;"/><polygon fill="none" points="541.69,96.5,523.1519,100.5422,529.2849,110.8566,541.69,96.5" style="stroke:#181818;stroke-width:1;"/></g><!--reverse link Button to CharacterCustomisationScreen--><g class="link" data-entity-1="Button" data-entity-2="CharacterCustomisationScreen" data-source-line="59" data-uid="lnk17" id="link_Button_CharacterCustomisationScreen"><path codeLine="59" d="M711.2748,124.073 C684.5948,147.383 665.88,163.71 638.1,187.97" fill="none" id="Button-backto-CharacterCustomisationScreen" style="stroke:#181818;stroke-width:1;"/><polygon fill="none" points="724.83,112.23,707.3271,119.5546,715.2225,128.5914,724.83,112.23" style="stroke:#181818;stroke-width:1;"/></g><!--reverse link Screen to CharacterCustomisationScreen--><g class="link" data-entity-1="Screen" data-entity-2="CharacterCustomisationScreen" data-source-line="60" data-uid="lnk18" id="link_Screen_CharacterCustomisationScreen"><path codeLine="60" d="M588.7407,122.1072 C585.8507,146.7172 584.2,160.82 581.02,187.93" fill="none" id="Screen-backto-CharacterCustomisationScreen" style="stroke:#181818;stroke-width:1;"/><polygon fill="none" points="590.84,104.23,582.7816,121.4074,594.6997,122.8069,590.84,104.23" style="stroke:#181818;stroke-width:1;"/></g><!--reverse link Player to Energy--><g class="link" data-entity-1="Player" data-entity-2="Energy" data-source-line="80" data-uid="lnk21" id="link_Player_Energy"><path codeLine="80" d="M1229.5,122.23 C1229.5,151.89 1229.5,174.25 1229.5,203.89" fill="none" id="Player-backto-Energy" style="stroke:#181818;stroke-width:1;"/><polygon fill="none" points="1229.5,104.23,1223.5,122.23,1235.5,122.23,1229.5,104.23" style="stroke:#181818;stroke-width:1;"/></g><!--reverse link Room to Door--><g class="link" data-entity-1="Room" data-entity-2="Door" data-source-line="88" data-uid="lnk24" id="link_Room_Door"><path codeLine="88" d="M1414.5,113.68 C1414.5,149.24 1414.5,188.55 1414.5,220.36" fill="none" id="Room-backto-Door" style="stroke:#181818;stroke-width:1;"/><polygon fill="none" points="1414.5,95.68,1408.5,113.68,1420.5,113.68,1414.5,95.68" style="stroke:#181818;stroke-width:1;"/></g><!--reverse link Event to Item--><g class="link" data-entity-1="Event" data-entity-2="Item" data-source-line="115" data-uid="lnk30" id="link_Event_Item"><path codeLine="115" d="M1677.3236,125.3769 C1652.2636,151.1569 1633.99,169.95 1608.96,195.71" fill="none" id="Event-backto-Item" style="stroke:#181818;stroke-width:1;"/><polygon fill="none" points="1689.87,112.47,1673.0213,121.1947,1681.6259,129.559,1689.87,112.47" style="stroke:#181818;stroke-width:1;"/></g><!--reverse link Event to Obstacle--><g class="link" data-entity-1="Event" data-entity-2="Obstacle" data-source-line="116" data-uid="lnk31" id="link_Event_Obstacle"><path codeLine="116" d="M1774.408,127.9186 C1793.358,159.6086 1808.39,184.77 1824.86,212.32" fill="none" id="Event-backto-Obstacle" style="stroke:#181818;stroke-width:1;"/><polygon fill="none" points="1765.17,112.47,1769.2584,130.9979,1779.5575,124.8393,1765.17,112.47" style="stroke:#181818;stroke-width:1;"/></g><!--reverse link Obstacle to Map--><g class="link" data-entity-1="Obstacle" data-entity-2="Map" data-source-line="117" data-uid="lnk33" id="link_Obstacle_Map"><path codeLine="117" d="M1827.8355,293.8948 C1818.2455,323.5148 1809.61,350.21 1801,376.83" fill="none" id="Obstacle-backto-Map" style="stroke:#181818;stroke-width:1;"/><polygon fill="none" points="1833.38,276.77,1822.1273,292.0467,1833.5438,295.743,1833.38,276.77" style="stroke:#181818;stroke-width:1;"/></g><!--reverse link Obstacle to Dean--><g class="link" data-entity-1="Obstacle" data-entity-2="Dean" data-source-line="118" data-uid="lnk35" id="link_Obstacle_Dean"><path codeLine="118" d="M1859.4636,293.8624 C1869.2436,323.4824 1878.06,350.21 1886.85,376.83" fill="none" id="Obstacle-backto-Dean" style="stroke:#181818;stroke-width:1;"/><polygon fill="none" points="1853.82,276.77,1853.7661,295.7436,1865.1611,291.9812,1853.82,276.77" style="stroke:#181818;stroke-width:1;"/></g><!--reverse link Obstacle to Duck--><g class="link" data-entity-1="Obstacle" data-entity-2="Duck" data-source-line="119" data-uid="lnk37" id="link_Obstacle_Duck"><path codeLine="119" d="M1887.3685,289.5173 C1916.8985,319.1373 1947.87,350.21 1974.4,376.83" fill="none" id="Obstacle-backto-Duck" style="stroke:#181818;stroke-width:1;"/><polygon fill="none" points="1874.66,276.77,1883.1194,293.7535,1891.6176,285.2811,1874.66,276.77" style="stroke:#181818;stroke-width:1;"/></g><!--reverse link Item to Keys--><g class="link" data-entity-1="Item" data-entity-2="Keys" data-source-line="120" data-uid="lnk38" id="link_Item_Keys"><path codeLine="120" d="M1486.2781,304.0888 C1454.2181,328.7288 1430.25,347.16 1401.99,368.88" fill="none" id="Item-backto-Keys" style="stroke:#181818;stroke-width:1;"/><polygon fill="none" points="1500.55,293.12,1482.6219,299.3315,1489.9344,308.8461,1500.55,293.12" style="stroke:#181818;stroke-width:1;"/></g><!--reverse link Item to Drink--><g class="link" data-entity-1="Item" data-entity-2="Drink" data-source-line="121" data-uid="lnk39" id="link_Item_Drink"><path codeLine="121" d="M1551.9227,310.8885 C1547.9327,335.5285 1546.05,347.16 1542.54,368.88" fill="none" id="Item-backto-Drink" style="stroke:#181818;stroke-width:1;"/><polygon fill="none" points="1554.8,293.12,1545.9999,309.9294,1557.8456,311.8476,1554.8,293.12" style="stroke:#181818;stroke-width:1;"/></g><!--reverse link Item to Statue--><g class="link" data-entity-1="Item" data-entity-2="Statue" data-source-line="122" data-uid="lnk41" id="link_Item_Statue"><path codeLine="122" d="M1612.7078,307.068 C1635.4178,334.908 1651.68,354.85 1669.66,376.9" fill="none" id="Item-backto-Statue" style="stroke:#181818;stroke-width:1;"/><polygon fill="none" points="1601.33,293.12,1608.0585,310.8606,1617.3571,303.2754,1601.33,293.12" style="stroke:#181818;stroke-width:1;"/></g><!--reverse link HiddenEvent to LongBoiSpirit--><g class="link" data-entity-1="HiddenEvent" data-entity-2="LongBoiSpirit" data-source-line="139" data-uid="lnk45" id="link_HiddenEvent_LongBoiSpirit"><path codeLine="139" d="M2130.2309,119.6419 C2110.5309,152.2919 2092.31,182.48 2074.21,212.49" fill="none" id="HiddenEvent-backto-LongBoiSpirit" style="stroke:#181818;stroke-width:1;"/><polygon fill="none" points="2139.53,104.23,2125.0936,116.5422,2135.3682,122.7416,2139.53,104.23" style="stroke:#181818;stroke-width:1;"/></g><!--reverse link HiddenEvent to PowerCut--><g class="link" data-entity-1="HiddenEvent" data-entity-2="PowerCut" data-source-line="140" data-uid="lnk46" id="link_HiddenEvent_PowerCut"><path codeLine="140" d="M2197.0513,119.6042 C2215.1113,149.2642 2230.33,174.25 2248.38,203.89" fill="none" id="HiddenEvent-backto-PowerCut" style="stroke:#181818;stroke-width:1;"/><polygon fill="none" points="2187.69,104.23,2191.9266,122.7246,2202.1761,116.4837,2187.69,104.23" style="stroke:#181818;stroke-width:1;"/></g><!--SRC=[VLN9Sjim3BthAtHBUiYbnqocdMPfusaopTXTpX25o1nJXCh5iQVjlnUaA8LIbFXY4WGU7bQTt4ihYk9aPKktbRQ4qWg3g3yMGe6rvNVPeYd_52N_79_Ns8BKKZVbUVbP4RZu8ktQwoIjY1I27YtC7LIe-27-Hx7lQd0OeK_V5V_O_QyjE4Q979BdgoqO40xDZS8MjOjQQB2i2HFPXfBkIkzPWyoHbJQHVm6LTS6-x3LwQGgaWHQPq1V-YtU3kXwe381ixOMJf2UMybd-7G-EGJRESDpniGAnk_JEaMPvVuXokwMd3D3cZXx0MvouC6XzYqiulxrqh-7Ve_OvxYsrKrZhm2nQjzvAiGXBNjTB3qzWQaFL8aVgC6NiDBdNdAV-cD4RYtlbhQDMMfYd6lOW5LGADpjEEZlvP0mSBqBMlS4FGSMYGiQeWyQAAtXWBQbZHmhIZzAq2moXwzGnMFJPIYul_fwTlInwaUnVUPqyPuMSWERoYS5pXIRwcNYY_bR69W1lAXOdAHEpyKYU-bQfGk53ojUSNj2DmZJa3zoR5kkGpsp8ILyfANPfaXyK7D4CtHql2ROZAmCLDl_9m6JUz_r7UymxzqQZQOx9HdZ3m-cIxBny75TE2uUPb16IlvY7_hLWIckYDe67un0bJsjZGgYCaDegO4ILY71DPDZy9koMUSAYyEt0U34q3I-iUhOKPH3OVcsmF-vOD8yWi5mv7CX9FgxgwNgH8hf8LDVOo3Hp7MVVTviKIloV0dzZxY0K3aabfQHbwqiwJAeyrk0h7kt0nFwman16fMjcjXiXTTXQCxq-IVtqS43vVQ1KZDoY-1wwcUGwOCr4NkoAcAnu3MIpQwILtJSEd4UkuwsiQnwInNBsRtbH-PE6UmJredni9FVy-SfxzevqSqboqqaZ1m1UDCYJg4NyqELTccQ3diAC3kgrDv2QwBd9kw2pHfvZCyzjpZZ6EU7mydbmzny0]--></g></svg>