<svg xmlns="http://www.w3.org/2000/svg" xmlns:xlink="http://www.w3.org/1999/xlink" contentStyleType="text/css" data-diagram-type="CLASS" height="278px" preserveAspectRatio="none" style="width:2065px;height:278px;background:#FFFFFF;" version="1.1" viewBox="0 0 2065 278" width="2065px" zoomAndPan="magnify"><defs/><g><!--class Screen--><g class="entity" data-entity="Screen" data-source-line="2" data-uid="ent0002" id="entity_Screen"><rect fill="#F1F1F1" height="48" rx="2.5" ry="2.5" style="stroke:#181818;stroke-width:0.5;" width="80.4395" x="325.5" y="7"/><ellipse cx="340.5" cy="23" fill="#A9DCDF" rx="11" ry="11" style="stroke:#181818;stroke-width:1;"/><path d="M340.6094,18.3438 L339.4531,23.4219 L341.7813,23.4219 L340.6094,18.3438 Z M339.125,16.1094 L342.1094,16.1094 L345.4688,28.5 L343.0156,28.5 L342.25,25.4375 L338.9688,25.4375 L338.2188,28.5 L335.7813,28.5 L339.125,16.1094 Z " fill="#000000"/><text fill="#000000" font-family="sans-serif" font-size="14" font-style="italic" lengthAdjust="spacing" textLength="48.4395" x="354.5" y="27.8467">Screen</text><line style="stroke:#181818;stroke-width:0.5;" x1="326.5" x2="404.9395" y1="39" y2="39"/><line style="stroke:#181818;stroke-width:0.5;" x1="326.5" x2="404.9395" y1="47" y2="47"/></g><!--class Button--><g class="entity" data-entity="Button" data-source-line="3" data-uid="ent0003" id="entity_Button"><rect fill="#F1F1F1" height="48" rx="2.5" ry="2.5" style="stroke:#181818;stroke-width:0.5;" width="78.8945" x="717" y="7"/><ellipse cx="732" cy="23" fill="#A9DCDF" rx="11" ry="11" style="stroke:#181818;stroke-width:1;"/><path d="M732.1094,18.3438 L730.9531,23.4219 L733.2813,23.4219 L732.1094,18.3438 Z M730.625,16.1094 L733.6094,16.1094 L736.9688,28.5 L734.5156,28.5 L733.75,25.4375 L730.4688,25.4375 L729.7188,28.5 L727.2813,28.5 L730.625,16.1094 Z " fill="#000000"/><text fill="#000000" font-family="sans-serif" font-size="14" font-style="italic" lengthAdjust="spacing" textLength="46.8945" x="746" y="27.8467">Button</text><line style="stroke:#181818;stroke-width:0.5;" x1="718" x2="794.8945" y1="39" y2="39"/><line style="stroke:#181818;stroke-width:0.5;" x1="718" x2="794.8945" y1="47" y2="47"/></g><!--class InstructionScreen--><g class="entity" data-entity="InstructionScreen" data-source-line="5" data-uid="ent0004" id="entity_InstructionScreen"><rect fill="#F1F1F1" height="48" rx="2.5" ry="2.5" style="stroke:#181818;stroke-width:0.5;" width="155.3682" x="7" y="115"/><ellipse cx="22" cy="131" fill="#ADD1B2" rx="11" ry="11" style="stroke:#181818;stroke-width:1;"/><path d="M24.9688,136.6406 Q24.3906,136.9375 23.75,137.0781 Q23.1094,137.2344 22.4063,137.2344 Q19.9063,137.2344 18.5781,135.5938 Q17.2656,133.9375 17.2656,130.8125 Q17.2656,127.6875 18.5781,126.0313 Q19.9063,124.375 22.4063,124.375 Q23.1094,124.375 23.75,124.5313 Q24.4063,124.6875 24.9688,124.9844 L24.9688,127.7031 Q24.3438,127.125 23.75,126.8594 Q23.1563,126.5781 22.5313,126.5781 Q21.1875,126.5781 20.5,127.6563 Q19.8125,128.7188 19.8125,130.8125 Q19.8125,132.9063 20.5,133.9844 Q21.1875,135.0469 22.5313,135.0469 Q23.1563,135.0469 23.75,134.7813 Q24.3438,134.5 24.9688,133.9219 L24.9688,136.6406 Z " fill="#000000"/><text fill="#000000" font-family="sans-serif" font-size="14" lengthAdjust="spacing" textLength="123.3682" x="36" y="135.8467">InstructionScreen</text><line style="stroke:#181818;stroke-width:0.5;" x1="8" x2="161.3682" y1="147" y2="147"/><line style="stroke:#181818;stroke-width:0.5;" x1="8" x2="161.3682" y1="155" y2="155"/></g><!--class Timer--><g class="entity" data-entity="Timer" data-source-line="6" data-uid="ent0006" id="entity_Timer"><rect fill="#F1F1F1" height="48" rx="2.5" ry="2.5" style="stroke:#181818;stroke-width:0.5;" width="72.4482" x="197.5" y="115"/><ellipse cx="212.5" cy="131" fill="#ADD1B2" rx="11" ry="11" style="stroke:#181818;stroke-width:1;"/><path d="M215.4688,136.6406 Q214.8906,136.9375 214.25,137.0781 Q213.6094,137.2344 212.9063,137.2344 Q210.4063,137.2344 209.0781,135.5938 Q207.7656,133.9375 207.7656,130.8125 Q207.7656,127.6875 209.0781,126.0313 Q210.4063,124.375 212.9063,124.375 Q213.6094,124.375 214.25,124.5313 Q214.9063,124.6875 215.4688,124.9844 L215.4688,127.7031 Q214.8438,127.125 214.25,126.8594 Q213.6563,126.5781 213.0313,126.5781 Q211.6875,126.5781 211,127.6563 Q210.3125,128.7188 210.3125,130.8125 Q210.3125,132.9063 211,133.9844 Q211.6875,135.0469 213.0313,135.0469 Q213.6563,135.0469 214.25,134.7813 Q214.8438,134.5 215.4688,133.9219 L215.4688,136.6406 Z " fill="#000000"/><text fill="#000000" font-family="sans-serif" font-size="14" lengthAdjust="spacing" textLength="40.4482" x="226.5" y="135.8467">Timer</text><line style="stroke:#181818;stroke-width:0.5;" x1="198.5" x2="268.9482" y1="147" y2="147"/><line style="stroke:#181818;stroke-width:0.5;" x1="198.5" x2="268.9482" y1="155" y2="155"/></g><!--class PauseScreen--><g class="entity" data-entity="PauseScreen" data-source-line="7" data-uid="ent0008" id="entity_PauseScreen"><rect fill="#F1F1F1" height="48" rx="2.5" ry="2.5" style="stroke:#181818;stroke-width:0.5;" width="122.2412" x="304.5" y="115"/><ellipse cx="319.5" cy="131" fill="#ADD1B2" rx="11" ry="11" style="stroke:#181818;stroke-width:1;"/><path d="M322.4688,136.6406 Q321.8906,136.9375 321.25,137.0781 Q320.6094,137.2344 319.9063,137.2344 Q317.4063,137.2344 316.0781,135.5938 Q314.7656,133.9375 314.7656,130.8125 Q314.7656,127.6875 316.0781,126.0313 Q317.4063,124.375 319.9063,124.375 Q320.6094,124.375 321.25,124.5313 Q321.9063,124.6875 322.4688,124.9844 L322.4688,127.7031 Q321.8438,127.125 321.25,126.8594 Q320.6563,126.5781 320.0313,126.5781 Q318.6875,126.5781 318,127.6563 Q317.3125,128.7188 317.3125,130.8125 Q317.3125,132.9063 318,133.9844 Q318.6875,135.0469 320.0313,135.0469 Q320.6563,135.0469 321.25,134.7813 Q321.8438,134.5 322.4688,133.9219 L322.4688,136.6406 Z " fill="#000000"/><text fill="#000000" font-family="sans-serif" font-size="14" lengthAdjust="spacing" textLength="90.2412" x="333.5" y="135.8467">PauseScreen</text><line style="stroke:#181818;stroke-width:0.5;" x1="305.5" x2="425.7412" y1="147" y2="147"/><line style="stroke:#181818;stroke-width:0.5;" x1="305.5" x2="425.7412" y1="155" y2="155"/></g><!--class HomeScreen--><g class="entity" data-entity="HomeScreen" data-source-line="8" data-uid="ent0010" id="entity_HomeScreen"><rect fill="#F1F1F1" height="48" rx="2.5" ry="2.5" style="stroke:#181818;stroke-width:0.5;" width="121.7832" x="461.5" y="115"/><ellipse cx="476.5" cy="131" fill="#ADD1B2" rx="11" ry="11" style="stroke:#181818;stroke-width:1;"/><path d="M479.4688,136.6406 Q478.8906,136.9375 478.25,137.0781 Q477.6094,137.2344 476.9063,137.2344 Q474.4063,137.2344 473.0781,135.5938 Q471.7656,133.9375 471.7656,130.8125 Q471.7656,127.6875 473.0781,126.0313 Q474.4063,124.375 476.9063,124.375 Q477.6094,124.375 478.25,124.5313 Q478.9063,124.6875 479.4688,124.9844 L479.4688,127.7031 Q478.8438,127.125 478.25,126.8594 Q477.6563,126.5781 477.0313,126.5781 Q475.6875,126.5781 475,127.6563 Q474.3125,128.7188 474.3125,130.8125 Q474.3125,132.9063 475,133.9844 Q475.6875,135.0469 477.0313,135.0469 Q477.6563,135.0469 478.25,134.7813 Q478.8438,134.5 479.4688,133.9219 L479.4688,136.6406 Z " fill="#000000"/><text fill="#000000" font-family="sans-serif" font-size="14" lengthAdjust="spacing" textLength="89.7832" x="490.5" y="135.8467">HomeScreen</text><line style="stroke:#181818;stroke-width:0.5;" x1="462.5" x2="582.2832" y1="147" y2="147"/><line style="stroke:#181818;stroke-width:0.5;" x1="462.5" x2="582.2832" y1="155" y2="155"/></g><!--class CharacterCustomisationMenu--><g class="entity" data-entity="CharacterCustomisationMenu" data-source-line="10" data-uid="ent0013" id="entity_CharacterCustomisationMenu"><rect fill="#F1F1F1" height="48" rx="2.5" ry="2.5" style="stroke:#181818;stroke-width:0.5;" width="239.7715" x="402.5" y="223"/><ellipse cx="417.5" cy="239" fill="#ADD1B2" rx="11" ry="11" style="stroke:#181818;stroke-width:1;"/><path d="M420.4688,244.6406 Q419.8906,244.9375 419.25,245.0781 Q418.6094,245.2344 417.9063,245.2344 Q415.4063,245.2344 414.0781,243.5938 Q412.7656,241.9375 412.7656,238.8125 Q412.7656,235.6875 414.0781,234.0313 Q415.4063,232.375 417.9063,232.375 Q418.6094,232.375 419.25,232.5313 Q419.9063,232.6875 420.4688,232.9844 L420.4688,235.7031 Q419.8438,235.125 419.25,234.8594 Q418.6563,234.5781 418.0313,234.5781 Q416.6875,234.5781 416,235.6563 Q415.3125,236.7188 415.3125,238.8125 Q415.3125,240.9063 416,241.9844 Q416.6875,243.0469 418.0313,243.0469 Q418.6563,243.0469 419.25,242.7813 Q419.8438,242.5 420.4688,241.9219 L420.4688,244.6406 Z " fill="#000000"/><text fill="#000000" font-family="sans-serif" font-size="14" lengthAdjust="spacing" textLength="207.7715" x="431.5" y="243.8467">CharacterCustomisationMenu</text><line style="stroke:#181818;stroke-width:0.5;" x1="403.5" x2="641.2715" y1="255" y2="255"/><line style="stroke:#181818;stroke-width:0.5;" x1="403.5" x2="641.2715" y1="263" y2="263"/></g><!--class MusicButton--><g class="entity" data-entity="MusicButton" data-source-line="12" data-uid="ent0015" id="entity_MusicButton"><rect fill="#F1F1F1" height="48" rx="2.5" ry="2.5" style="stroke:#181818;stroke-width:0.5;" width="118.7275" x="619" y="115"/><ellipse cx="634" cy="131" fill="#ADD1B2" rx="11" ry="11" style="stroke:#181818;stroke-width:1;"/><path d="M636.9688,136.6406 Q636.3906,136.9375 635.75,137.0781 Q635.1094,137.2344 634.4063,137.2344 Q631.9063,137.2344 630.5781,135.5938 Q629.2656,133.9375 629.2656,130.8125 Q629.2656,127.6875 630.5781,126.0313 Q631.9063,124.375 634.4063,124.375 Q635.1094,124.375 635.75,124.5313 Q636.4063,124.6875 636.9688,124.9844 L636.9688,127.7031 Q636.3438,127.125 635.75,126.8594 Q635.1563,126.5781 634.5313,126.5781 Q633.1875,126.5781 632.5,127.6563 Q631.8125,128.7188 631.8125,130.8125 Q631.8125,132.9063 632.5,133.9844 Q633.1875,135.0469 634.5313,135.0469 Q635.1563,135.0469 635.75,134.7813 Q636.3438,134.5 636.9688,133.9219 L636.9688,136.6406 Z " fill="#000000"/><text fill="#000000" font-family="sans-serif" font-size="14" lengthAdjust="spacing" textLength="86.7275" x="648" y="135.8467">MusicButton</text><line style="stroke:#181818;stroke-width:0.5;" x1="620" x2="736.7275" y1="147" y2="147"/><line style="stroke:#181818;stroke-width:0.5;" x1="620" x2="736.7275" y1="155" y2="155"/></g><!--class SoundButton--><g class="entity" data-entity="SoundButton" data-source-line="13" data-uid="ent0017" id="entity_SoundButton"><rect fill="#F1F1F1" height="48" rx="2.5" ry="2.5" style="stroke:#181818;stroke-width:0.5;" width="122.9795" x="773" y="115"/><ellipse cx="788" cy="131" fill="#ADD1B2" rx="11" ry="11" style="stroke:#181818;stroke-width:1;"/><path d="M790.9688,136.6406 Q790.3906,136.9375 789.75,137.0781 Q789.1094,137.2344 788.4063,137.2344 Q785.9063,137.2344 784.5781,135.5938 Q783.2656,133.9375 783.2656,130.8125 Q783.2656,127.6875 784.5781,126.0313 Q785.9063,124.375 788.4063,124.375 Q789.1094,124.375 789.75,124.5313 Q790.4063,124.6875 790.9688,124.9844 L790.9688,127.7031 Q790.3438,127.125 789.75,126.8594 Q789.1563,126.5781 788.5313,126.5781 Q787.1875,126.5781 786.5,127.6563 Q785.8125,128.7188 785.8125,130.8125 Q785.8125,132.9063 786.5,133.9844 Q787.1875,135.0469 788.5313,135.0469 Q789.1563,135.0469 789.75,134.7813 Q790.3438,134.5 790.9688,133.9219 L790.9688,136.6406 Z " fill="#000000"/><text fill="#000000" font-family="sans-serif" font-size="14" lengthAdjust="spacing" textLength="90.9795" x="802" y="135.8467">SoundButton</text><line style="stroke:#181818;stroke-width:0.5;" x1="774" x2="894.9795" y1="147" y2="147"/><line style="stroke:#181818;stroke-width:0.5;" x1="774" x2="894.9795" y1="155" y2="155"/></g><!--class Player--><g class="entity" data-entity="Player" data-source-line="16" data-uid="ent0019" id="entity_Player"><rect fill="#F1F1F1" height="48" rx="2.5" ry="2.5" style="stroke:#181818;stroke-width:0.5;" width="75.5654" x="1127.5" y="7"/><ellipse cx="1142.5" cy="23" fill="#ADD1B2" rx="11" ry="11" style="stroke:#181818;stroke-width:1;"/><path d="M1145.4688,28.6406 Q1144.8906,28.9375 1144.25,29.0781 Q1143.6094,29.2344 1142.9063,29.2344 Q1140.4063,29.2344 1139.0781,27.5938 Q1137.7656,25.9375 1137.7656,22.8125 Q1137.7656,19.6875 1139.0781,18.0313 Q1140.4063,16.375 1142.9063,16.375 Q1143.6094,16.375 1144.25,16.5313 Q1144.9063,16.6875 1145.4688,16.9844 L1145.4688,19.7031 Q1144.8438,19.125 1144.25,18.8594 Q1143.6563,18.5781 1143.0313,18.5781 Q1141.6875,18.5781 1141,19.6563 Q1140.3125,20.7188 1140.3125,22.8125 Q1140.3125,24.9063 1141,25.9844 Q1141.6875,27.0469 1143.0313,27.0469 Q1143.6563,27.0469 1144.25,26.7813 Q1144.8438,26.5 1145.4688,25.9219 L1145.4688,28.6406 Z " fill="#000000"/><text fill="#000000" font-family="sans-serif" font-size="14" lengthAdjust="spacing" textLength="43.5654" x="1156.5" y="27.8467">Player</text><line style="stroke:#181818;stroke-width:0.5;" x1="1128.5" x2="1202.0654" y1="39" y2="39"/><line style="stroke:#181818;stroke-width:0.5;" x1="1128.5" x2="1202.0654" y1="47" y2="47"/></g><!--class CharacterElement--><g class="entity" data-entity="CharacterElement" data-source-line="16" data-uid="ent0020" id="entity_CharacterElement"><rect fill="#F1F1F1" height="48" rx="2.5" ry="2.5" style="stroke:#181818;stroke-width:0.5;" width="159.0801" x="931" y="115"/><ellipse cx="946" cy="131" fill="#ADD1B2" rx="11" ry="11" style="stroke:#181818;stroke-width:1;"/><path d="M948.9688,136.6406 Q948.3906,136.9375 947.75,137.0781 Q947.1094,137.2344 946.4063,137.2344 Q943.9063,137.2344 942.5781,135.5938 Q941.2656,133.9375 941.2656,130.8125 Q941.2656,127.6875 942.5781,126.0313 Q943.9063,124.375 946.4063,124.375 Q947.1094,124.375 947.75,124.5313 Q948.4063,124.6875 948.9688,124.9844 L948.9688,127.7031 Q948.3438,127.125 947.75,126.8594 Q947.1563,126.5781 946.5313,126.5781 Q945.1875,126.5781 944.5,127.6563 Q943.8125,128.7188 943.8125,130.8125 Q943.8125,132.9063 944.5,133.9844 Q945.1875,135.0469 946.5313,135.0469 Q947.1563,135.0469 947.75,134.7813 Q948.3438,134.5 948.9688,133.9219 L948.9688,136.6406 Z " fill="#000000"/><text fill="#000000" font-family="sans-serif" font-size="14" lengthAdjust="spacing" textLength="127.0801" x="960" y="135.8467">CharacterElement</text><line style="stroke:#181818;stroke-width:0.5;" x1="932" x2="1089.0801" y1="147" y2="147"/><line style="stroke:#181818;stroke-width:0.5;" x1="932" x2="1089.0801" y1="155" y2="155"/></g><!--class Energy--><g class="entity" data-entity="Energy" data-source-line="17" data-uid="ent0022" id="entity_Energy"><rect fill="#F1F1F1" height="48" rx="2.5" ry="2.5" style="stroke:#181818;stroke-width:0.5;" width="81.2598" x="1125" y="115"/><ellipse cx="1140" cy="131" fill="#ADD1B2" rx="11" ry="11" style="stroke:#181818;stroke-width:1;"/><path d="M1142.9688,136.6406 Q1142.3906,136.9375 1141.75,137.0781 Q1141.1094,137.2344 1140.4063,137.2344 Q1137.9063,137.2344 1136.5781,135.5938 Q1135.2656,133.9375 1135.2656,130.8125 Q1135.2656,127.6875 1136.5781,126.0313 Q1137.9063,124.375 1140.4063,124.375 Q1141.1094,124.375 1141.75,124.5313 Q1142.4063,124.6875 1142.9688,124.9844 L1142.9688,127.7031 Q1142.3438,127.125 1141.75,126.8594 Q1141.1563,126.5781 1140.5313,126.5781 Q1139.1875,126.5781 1138.5,127.6563 Q1137.8125,128.7188 1137.8125,130.8125 Q1137.8125,132.9063 1138.5,133.9844 Q1139.1875,135.0469 1140.5313,135.0469 Q1141.1563,135.0469 1141.75,134.7813 Q1142.3438,134.5 1142.9688,133.9219 L1142.9688,136.6406 Z " fill="#000000"/><text fill="#000000" font-family="sans-serif" font-size="14" lengthAdjust="spacing" textLength="49.2598" x="1154" y="135.8467">Energy</text><line style="stroke:#181818;stroke-width:0.5;" x1="1126" x2="1205.2598" y1="147" y2="147"/><line style="stroke:#181818;stroke-width:0.5;" x1="1126" x2="1205.2598" y1="155" y2="155"/></g><!--class Inventory--><g class="entity" data-entity="Inventory" data-source-line="18" data-uid="ent0024" id="entity_Inventory"><rect fill="#F1F1F1" height="48" rx="2.5" ry="2.5" style="stroke:#181818;stroke-width:0.5;" width="98.8691" x="1241" y="115"/><ellipse cx="1256" cy="131" fill="#ADD1B2" rx="11" ry="11" style="stroke:#181818;stroke-width:1;"/><path d="M1258.9688,136.6406 Q1258.3906,136.9375 1257.75,137.0781 Q1257.1094,137.2344 1256.4063,137.2344 Q1253.9063,137.2344 1252.5781,135.5938 Q1251.2656,133.9375 1251.2656,130.8125 Q1251.2656,127.6875 1252.5781,126.0313 Q1253.9063,124.375 1256.4063,124.375 Q1257.1094,124.375 1257.75,124.5313 Q1258.4063,124.6875 1258.9688,124.9844 L1258.9688,127.7031 Q1258.3438,127.125 1257.75,126.8594 Q1257.1563,126.5781 1256.5313,126.5781 Q1255.1875,126.5781 1254.5,127.6563 Q1253.8125,128.7188 1253.8125,130.8125 Q1253.8125,132.9063 1254.5,133.9844 Q1255.1875,135.0469 1256.5313,135.0469 Q1257.1563,135.0469 1257.75,134.7813 Q1258.3438,134.5 1258.9688,133.9219 L1258.9688,136.6406 Z " fill="#000000"/><text fill="#000000" font-family="sans-serif" font-size="14" lengthAdjust="spacing" textLength="66.8691" x="1270" y="135.8467">Inventory</text><line style="stroke:#181818;stroke-width:0.5;" x1="1242" x2="1338.8691" y1="147" y2="147"/><line style="stroke:#181818;stroke-width:0.5;" x1="1242" x2="1338.8691" y1="155" y2="155"/></g><!--class Room--><g class="entity" data-entity="Room" data-source-line="21" data-uid="ent0026" id="entity_Room"><rect fill="#F1F1F1" height="48" rx="2.5" ry="2.5" style="stroke:#181818;stroke-width:0.5;" width="72.4961" x="1372.5" y="7"/><ellipse cx="1387.5" cy="23" fill="#ADD1B2" rx="11" ry="11" style="stroke:#181818;stroke-width:1;"/><path d="M1390.4688,28.6406 Q1389.8906,28.9375 1389.25,29.0781 Q1388.6094,29.2344 1387.9063,29.2344 Q1385.4063,29.2344 1384.0781,27.5938 Q1382.7656,25.9375 1382.7656,22.8125 Q1382.7656,19.6875 1384.0781,18.0313 Q1385.4063,16.375 1387.9063,16.375 Q1388.6094,16.375 1389.25,16.5313 Q1389.9063,16.6875 1390.4688,16.9844 L1390.4688,19.7031 Q1389.8438,19.125 1389.25,18.8594 Q1388.6563,18.5781 1388.0313,18.5781 Q1386.6875,18.5781 1386,19.6563 Q1385.3125,20.7188 1385.3125,22.8125 Q1385.3125,24.9063 1386,25.9844 Q1386.6875,27.0469 1388.0313,27.0469 Q1388.6563,27.0469 1389.25,26.7813 Q1389.8438,26.5 1390.4688,25.9219 L1390.4688,28.6406 Z " fill="#000000"/><text fill="#000000" font-family="sans-serif" font-size="14" lengthAdjust="spacing" textLength="40.4961" x="1401.5" y="27.8467">Room</text><line style="stroke:#181818;stroke-width:0.5;" x1="1373.5" x2="1443.9961" y1="39" y2="39"/><line style="stroke:#181818;stroke-width:0.5;" x1="1373.5" x2="1443.9961" y1="47" y2="47"/></g><!--class Door--><g class="entity" data-entity="Door" data-source-line="21" data-uid="ent0027" id="entity_Door"><rect fill="#F1F1F1" height="48" rx="2.5" ry="2.5" style="stroke:#181818;stroke-width:0.5;" width="65.667" x="1375.5" y="115"/><ellipse cx="1390.5" cy="131" fill="#ADD1B2" rx="11" ry="11" style="stroke:#181818;stroke-width:1;"/><path d="M1393.4688,136.6406 Q1392.8906,136.9375 1392.25,137.0781 Q1391.6094,137.2344 1390.9063,137.2344 Q1388.4063,137.2344 1387.0781,135.5938 Q1385.7656,133.9375 1385.7656,130.8125 Q1385.7656,127.6875 1387.0781,126.0313 Q1388.4063,124.375 1390.9063,124.375 Q1391.6094,124.375 1392.25,124.5313 Q1392.9063,124.6875 1393.4688,124.9844 L1393.4688,127.7031 Q1392.8438,127.125 1392.25,126.8594 Q1391.6563,126.5781 1391.0313,126.5781 Q1389.6875,126.5781 1389,127.6563 Q1388.3125,128.7188 1388.3125,130.8125 Q1388.3125,132.9063 1389,133.9844 Q1389.6875,135.0469 1391.0313,135.0469 Q1391.6563,135.0469 1392.25,134.7813 Q1392.8438,134.5 1393.4688,133.9219 L1393.4688,136.6406 Z " fill="#000000"/><text fill="#000000" font-family="sans-serif" font-size="14" lengthAdjust="spacing" textLength="33.667" x="1404.5" y="135.8467">Door</text><line style="stroke:#181818;stroke-width:0.5;" x1="1376.5" x2="1440.167" y1="147" y2="147"/><line style="stroke:#181818;stroke-width:0.5;" x1="1376.5" x2="1440.167" y1="155" y2="155"/></g><!--class Item--><g class="entity" data-entity="Item" data-source-line="24" data-uid="ent0029" id="entity_Item"><rect fill="#F1F1F1" height="48" rx="2.5" ry="2.5" style="stroke:#181818;stroke-width:0.5;" width="63.8691" x="1476.5" y="115"/><ellipse cx="1491.5" cy="131" fill="#B4A7E5" rx="11" ry="11" style="stroke:#181818;stroke-width:1;"/><path d="M1487.4219,126.7656 L1487.4219,124.6094 L1494.8125,124.6094 L1494.8125,126.7656 L1492.3438,126.7656 L1492.3438,134.8438 L1494.8125,134.8438 L1494.8125,137 L1487.4219,137 L1487.4219,134.8438 L1489.8906,134.8438 L1489.8906,126.7656 L1487.4219,126.7656 Z " fill="#000000"/><text fill="#000000" font-family="sans-serif" font-size="14" font-style="italic" lengthAdjust="spacing" textLength="31.8691" x="1505.5" y="135.8467">Item</text><line style="stroke:#181818;stroke-width:0.5;" x1="1477.5" x2="1539.3691" y1="147" y2="147"/><line style="stroke:#181818;stroke-width:0.5;" x1="1477.5" x2="1539.3691" y1="155" y2="155"/></g><!--class Obstacle--><g class="entity" data-entity="Obstacle" data-source-line="25" data-uid="ent0030" id="entity_Obstacle"><rect fill="#F1F1F1" height="48" rx="2.5" ry="2.5" style="stroke:#181818;stroke-width:0.5;" width="93.4688" x="1672" y="115"/><ellipse cx="1687" cy="131" fill="#B4A7E5" rx="11" ry="11" style="stroke:#181818;stroke-width:1;"/><path d="M1682.9219,126.7656 L1682.9219,124.6094 L1690.3125,124.6094 L1690.3125,126.7656 L1687.8438,126.7656 L1687.8438,134.8438 L1690.3125,134.8438 L1690.3125,137 L1682.9219,137 L1682.9219,134.8438 L1685.3906,134.8438 L1685.3906,126.7656 L1682.9219,126.7656 Z " fill="#000000"/><text fill="#000000" font-family="sans-serif" font-size="14" font-style="italic" lengthAdjust="spacing" textLength="61.4688" x="1701" y="135.8467">Obstacle</text><line style="stroke:#181818;stroke-width:0.5;" x1="1673" x2="1764.4688" y1="147" y2="147"/><line style="stroke:#181818;stroke-width:0.5;" x1="1673" x2="1764.4688" y1="155" y2="155"/></g><!--class Event--><g class="entity" data-entity="Event" data-source-line="26" data-uid="ent0031" id="entity_Event"><rect fill="#F1F1F1" height="48" rx="2.5" ry="2.5" style="stroke:#181818;stroke-width:0.5;" width="72.1064" x="1583.5" y="7"/><ellipse cx="1598.5" cy="23" fill="#A9DCDF" rx="11" ry="11" style="stroke:#181818;stroke-width:1;"/><path d="M1598.6094,18.3438 L1597.4531,23.4219 L1599.7813,23.4219 L1598.6094,18.3438 Z M1597.125,16.1094 L1600.1094,16.1094 L1603.4688,28.5 L1601.0156,28.5 L1600.25,25.4375 L1596.9688,25.4375 L1596.2188,28.5 L1593.7813,28.5 L1597.125,16.1094 Z " fill="#000000"/><text fill="#000000" font-family="sans-serif" font-size="14" font-style="italic" lengthAdjust="spacing" textLength="40.1064" x="1612.5" y="27.8467">Event</text><line style="stroke:#181818;stroke-width:0.5;" x1="1584.5" x2="1654.6064" y1="39" y2="39"/><line style="stroke:#181818;stroke-width:0.5;" x1="1584.5" x2="1654.6064" y1="47" y2="47"/></g><!--class Map--><g class="entity" data-entity="Map" data-source-line="30" data-uid="ent0034" id="entity_Map"><rect fill="#F1F1F1" height="48" rx="2.5" ry="2.5" style="stroke:#181818;stroke-width:0.5;" width="61.5449" x="1636.5" y="223"/><ellipse cx="1651.5" cy="239" fill="#ADD1B2" rx="11" ry="11" style="stroke:#181818;stroke-width:1;"/><path d="M1654.4688,244.6406 Q1653.8906,244.9375 1653.25,245.0781 Q1652.6094,245.2344 1651.9063,245.2344 Q1649.4063,245.2344 1648.0781,243.5938 Q1646.7656,241.9375 1646.7656,238.8125 Q1646.7656,235.6875 1648.0781,234.0313 Q1649.4063,232.375 1651.9063,232.375 Q1652.6094,232.375 1653.25,232.5313 Q1653.9063,232.6875 1654.4688,232.9844 L1654.4688,235.7031 Q1653.8438,235.125 1653.25,234.8594 Q1652.6563,234.5781 1652.0313,234.5781 Q1650.6875,234.5781 1650,235.6563 Q1649.3125,236.7188 1649.3125,238.8125 Q1649.3125,240.9063 1650,241.9844 Q1650.6875,243.0469 1652.0313,243.0469 Q1652.6563,243.0469 1653.25,242.7813 Q1653.8438,242.5 1654.4688,241.9219 L1654.4688,244.6406 Z " fill="#000000"/><text fill="#000000" font-family="sans-serif" font-size="14" lengthAdjust="spacing" textLength="29.5449" x="1665.5" y="243.8467">Map</text><line style="stroke:#181818;stroke-width:0.5;" x1="1637.5" x2="1697.0449" y1="255" y2="255"/><line style="stroke:#181818;stroke-width:0.5;" x1="1637.5" x2="1697.0449" y1="263" y2="263"/></g><!--class Dean--><g class="entity" data-entity="Dean" data-source-line="31" data-uid="ent0036" id="entity_Dean"><rect fill="#F1F1F1" height="48" rx="2.5" ry="2.5" style="stroke:#181818;stroke-width:0.5;" width="68.8457" x="1734" y="223"/><ellipse cx="1749" cy="239" fill="#ADD1B2" rx="11" ry="11" style="stroke:#181818;stroke-width:1;"/><path d="M1751.9688,244.6406 Q1751.3906,244.9375 1750.75,245.0781 Q1750.1094,245.2344 1749.4063,245.2344 Q1746.9063,245.2344 1745.5781,243.5938 Q1744.2656,241.9375 1744.2656,238.8125 Q1744.2656,235.6875 1745.5781,234.0313 Q1746.9063,232.375 1749.4063,232.375 Q1750.1094,232.375 1750.75,232.5313 Q1751.4063,232.6875 1751.9688,232.9844 L1751.9688,235.7031 Q1751.3438,235.125 1750.75,234.8594 Q1750.1563,234.5781 1749.5313,234.5781 Q1748.1875,234.5781 1747.5,235.6563 Q1746.8125,236.7188 1746.8125,238.8125 Q1746.8125,240.9063 1747.5,241.9844 Q1748.1875,243.0469 1749.5313,243.0469 Q1750.1563,243.0469 1750.75,242.7813 Q1751.3438,242.5 1751.9688,241.9219 L1751.9688,244.6406 Z " fill="#000000"/><text fill="#000000" font-family="sans-serif" font-size="14" lengthAdjust="spacing" textLength="36.8457" x="1763" y="243.8467">Dean</text><line style="stroke:#181818;stroke-width:0.5;" x1="1735" x2="1801.8457" y1="255" y2="255"/><line style="stroke:#181818;stroke-width:0.5;" x1="1735" x2="1801.8457" y1="263" y2="263"/></g><!--class Duck--><g class="entity" data-entity="Duck" data-source-line="32" data-uid="ent0038" id="entity_Duck"><rect fill="#F1F1F1" height="48" rx="2.5" ry="2.5" style="stroke:#181818;stroke-width:0.5;" width="67.458" x="1838" y="223"/><ellipse cx="1853" cy="239" fill="#ADD1B2" rx="11" ry="11" style="stroke:#181818;stroke-width:1;"/><path d="M1855.9688,244.6406 Q1855.3906,244.9375 1854.75,245.0781 Q1854.1094,245.2344 1853.4063,245.2344 Q1850.9063,245.2344 1849.5781,243.5938 Q1848.2656,241.9375 1848.2656,238.8125 Q1848.2656,235.6875 1849.5781,234.0313 Q1850.9063,232.375 1853.4063,232.375 Q1854.1094,232.375 1854.75,232.5313 Q1855.4063,232.6875 1855.9688,232.9844 L1855.9688,235.7031 Q1855.3438,235.125 1854.75,234.8594 Q1854.1563,234.5781 1853.5313,234.5781 Q1852.1875,234.5781 1851.5,235.6563 Q1850.8125,236.7188 1850.8125,238.8125 Q1850.8125,240.9063 1851.5,241.9844 Q1852.1875,243.0469 1853.5313,243.0469 Q1854.1563,243.0469 1854.75,242.7813 Q1855.3438,242.5 1855.9688,241.9219 L1855.9688,244.6406 Z " fill="#000000"/><text fill="#000000" font-family="sans-serif" font-size="14" lengthAdjust="spacing" textLength="35.458" x="1867" y="243.8467">Duck</text><line style="stroke:#181818;stroke-width:0.5;" x1="1839" x2="1904.458" y1="255" y2="255"/><line style="stroke:#181818;stroke-width:0.5;" x1="1839" x2="1904.458" y1="263" y2="263"/></g><!--class Keys--><g class="entity" data-entity="Keys" data-source-line="33" data-uid="ent0040" id="entity_Keys"><rect fill="#F1F1F1" height="48" rx="2.5" ry="2.5" style="stroke:#181818;stroke-width:0.5;" width="65.373" x="1319" y="223"/><ellipse cx="1334" cy="239" fill="#ADD1B2" rx="11" ry="11" style="stroke:#181818;stroke-width:1;"/><path d="M1336.9688,244.6406 Q1336.3906,244.9375 1335.75,245.0781 Q1335.1094,245.2344 1334.4063,245.2344 Q1331.9063,245.2344 1330.5781,243.5938 Q1329.2656,241.9375 1329.2656,238.8125 Q1329.2656,235.6875 1330.5781,234.0313 Q1331.9063,232.375 1334.4063,232.375 Q1335.1094,232.375 1335.75,232.5313 Q1336.4063,232.6875 1336.9688,232.9844 L1336.9688,235.7031 Q1336.3438,235.125 1335.75,234.8594 Q1335.1563,234.5781 1334.5313,234.5781 Q1333.1875,234.5781 1332.5,235.6563 Q1331.8125,236.7188 1331.8125,238.8125 Q1331.8125,240.9063 1332.5,241.9844 Q1333.1875,243.0469 1334.5313,243.0469 Q1335.1563,243.0469 1335.75,242.7813 Q1336.3438,242.5 1336.9688,241.9219 L1336.9688,244.6406 Z " fill="#000000"/><text fill="#000000" font-family="sans-serif" font-size="14" lengthAdjust="spacing" textLength="33.373" x="1348" y="243.8467">Keys</text><line style="stroke:#181818;stroke-width:0.5;" x1="1320" x2="1383.373" y1="255" y2="255"/><line style="stroke:#181818;stroke-width:0.5;" x1="1320" x2="1383.373" y1="263" y2="263"/></g><!--class Drink--><g class="entity" data-entity="Drink" data-source-line="34" data-uid="ent0042" id="entity_Drink"><rect fill="#F1F1F1" height="48" rx="2.5" ry="2.5" style="stroke:#181818;stroke-width:0.5;" width="69.4063" x="1419" y="223"/><ellipse cx="1434" cy="239" fill="#ADD1B2" rx="11" ry="11" style="stroke:#181818;stroke-width:1;"/><path d="M1436.9688,244.6406 Q1436.3906,244.9375 1435.75,245.0781 Q1435.1094,245.2344 1434.4063,245.2344 Q1431.9063,245.2344 1430.5781,243.5938 Q1429.2656,241.9375 1429.2656,238.8125 Q1429.2656,235.6875 1430.5781,234.0313 Q1431.9063,232.375 1434.4063,232.375 Q1435.1094,232.375 1435.75,232.5313 Q1436.4063,232.6875 1436.9688,232.9844 L1436.9688,235.7031 Q1436.3438,235.125 1435.75,234.8594 Q1435.1563,234.5781 1434.5313,234.5781 Q1433.1875,234.5781 1432.5,235.6563 Q1431.8125,236.7188 1431.8125,238.8125 Q1431.8125,240.9063 1432.5,241.9844 Q1433.1875,243.0469 1434.5313,243.0469 Q1435.1563,243.0469 1435.75,242.7813 Q1436.3438,242.5 1436.9688,241.9219 L1436.9688,244.6406 Z " fill="#000000"/><text fill="#000000" font-family="sans-serif" font-size="14" lengthAdjust="spacing" textLength="37.4063" x="1448" y="243.8467">Drink</text><line style="stroke:#181818;stroke-width:0.5;" x1="1420" x2="1487.4063" y1="255" y2="255"/><line style="stroke:#181818;stroke-width:0.5;" x1="1420" x2="1487.4063" y1="263" y2="263"/></g><!--class Statue--><g class="entity" data-entity="Statue" data-source-line="35" data-uid="ent0044" id="entity_Statue"><rect fill="#F1F1F1" height="48" rx="2.5" ry="2.5" style="stroke:#181818;stroke-width:0.5;" width="77.9307" x="1523.5" y="223"/><ellipse cx="1538.5" cy="239" fill="#ADD1B2" rx="11" ry="11" style="stroke:#181818;stroke-width:1;"/><path d="M1541.4688,244.6406 Q1540.8906,244.9375 1540.25,245.0781 Q1539.6094,245.2344 1538.9063,245.2344 Q1536.4063,245.2344 1535.0781,243.5938 Q1533.7656,241.9375 1533.7656,238.8125 Q1533.7656,235.6875 1535.0781,234.0313 Q1536.4063,232.375 1538.9063,232.375 Q1539.6094,232.375 1540.25,232.5313 Q1540.9063,232.6875 1541.4688,232.9844 L1541.4688,235.7031 Q1540.8438,235.125 1540.25,234.8594 Q1539.6563,234.5781 1539.0313,234.5781 Q1537.6875,234.5781 1537,235.6563 Q1536.3125,236.7188 1536.3125,238.8125 Q1536.3125,240.9063 1537,241.9844 Q1537.6875,243.0469 1539.0313,243.0469 Q1539.6563,243.0469 1540.25,242.7813 Q1540.8438,242.5 1541.4688,241.9219 L1541.4688,244.6406 Z " fill="#000000"/><text fill="#000000" font-family="sans-serif" font-size="14" lengthAdjust="spacing" textLength="45.9307" x="1552.5" y="243.8467">Statue</text><line style="stroke:#181818;stroke-width:0.5;" x1="1524.5" x2="1600.4307" y1="255" y2="255"/><line style="stroke:#181818;stroke-width:0.5;" x1="1524.5" x2="1600.4307" y1="263" y2="263"/></g><!--class HiddenEvent--><g class="entity" data-entity="HiddenEvent" data-source-line="38" data-uid="ent0046" id="entity_HiddenEvent"><rect fill="#F1F1F1" height="48" rx="2.5" ry="2.5" style="stroke:#181818;stroke-width:0.5;" width="121.7832" x="1874.5" y="7"/><ellipse cx="1889.5" cy="23" fill="#A9DCDF" rx="11" ry="11" style="stroke:#181818;stroke-width:1;"/><path d="M1889.6094,18.3438 L1888.4531,23.4219 L1890.7813,23.4219 L1889.6094,18.3438 Z M1888.125,16.1094 L1891.1094,16.1094 L1894.4688,28.5 L1892.0156,28.5 L1891.25,25.4375 L1887.9688,25.4375 L1887.2188,28.5 L1884.7813,28.5 L1888.125,16.1094 Z " fill="#000000"/><text fill="#000000" font-family="sans-serif" font-size="14" font-style="italic" lengthAdjust="spacing" textLength="89.7832" x="1903.5" y="27.8467">HiddenEvent</text><line style="stroke:#181818;stroke-width:0.5;" x1="1875.5" x2="1995.2832" y1="39" y2="39"/><line style="stroke:#181818;stroke-width:0.5;" x1="1875.5" x2="1995.2832" y1="47" y2="47"/></g><!--class LongBoiSpirit--><g class="entity" data-entity="LongBoiSpirit" data-source-line="40" data-uid="ent0047" id="entity_LongBoiSpirit"><rect fill="#F1F1F1" height="48" rx="2.5" ry="2.5" style="stroke:#181818;stroke-width:0.5;" width="124.9824" x="1800" y="115"/><ellipse cx="1815" cy="131" fill="#ADD1B2" rx="11" ry="11" style="stroke:#181818;stroke-width:1;"/><path d="M1817.9688,136.6406 Q1817.3906,136.9375 1816.75,137.0781 Q1816.1094,137.2344 1815.4063,137.2344 Q1812.9063,137.2344 1811.5781,135.5938 Q1810.2656,133.9375 1810.2656,130.8125 Q1810.2656,127.6875 1811.5781,126.0313 Q1812.9063,124.375 1815.4063,124.375 Q1816.1094,124.375 1816.75,124.5313 Q1817.4063,124.6875 1817.9688,124.9844 L1817.9688,127.7031 Q1817.3438,127.125 1816.75,126.8594 Q1816.1563,126.5781 1815.5313,126.5781 Q1814.1875,126.5781 1813.5,127.6563 Q1812.8125,128.7188 1812.8125,130.8125 Q1812.8125,132.9063 1813.5,133.9844 Q1814.1875,135.0469 1815.5313,135.0469 Q1816.1563,135.0469 1816.75,134.7813 Q1817.3438,134.5 1817.9688,133.9219 L1817.9688,136.6406 Z " fill="#000000"/><text fill="#000000" font-family="sans-serif" font-size="14" lengthAdjust="spacing" textLength="92.9824" x="1829" y="135.8467">LongBoiSpirit</text><line style="stroke:#181818;stroke-width:0.5;" x1="1801" x2="1923.9824" y1="147" y2="147"/><line style="stroke:#181818;stroke-width:0.5;" x1="1801" x2="1923.9824" y1="155" y2="155"/></g><!--class PowerCut--><g class="entity" data-entity="PowerCut" data-source-line="41" data-uid="ent0049" id="entity_PowerCut"><rect fill="#F1F1F1" height="48" rx="2.5" ry="2.5" style="stroke:#181818;stroke-width:0.5;" width="98.9648" x="1960" y="115"/><ellipse cx="1975" cy="131" fill="#ADD1B2" rx="11" ry="11" style="stroke:#181818;stroke-width:1;"/><path d="M1977.9688,136.6406 Q1977.3906,136.9375 1976.75,137.0781 Q1976.1094,137.2344 1975.4063,137.2344 Q1972.9063,137.2344 1971.5781,135.5938 Q1970.2656,133.9375 1970.2656,130.8125 Q1970.2656,127.6875 1971.5781,126.0313 Q1972.9063,124.375 1975.4063,124.375 Q1976.1094,124.375 1976.75,124.5313 Q1977.4063,124.6875 1977.9688,124.9844 L1977.9688,127.7031 Q1977.3438,127.125 1976.75,126.8594 Q1976.1563,126.5781 1975.5313,126.5781 Q1974.1875,126.5781 1973.5,127.6563 Q1972.8125,128.7188 1972.8125,130.8125 Q1972.8125,132.9063 1973.5,133.9844 Q1974.1875,135.0469 1975.5313,135.0469 Q1976.1563,135.0469 1976.75,134.7813 Q1977.3438,134.5 1977.9688,133.9219 L1977.9688,136.6406 Z " fill="#000000"/><text fill="#000000" font-family="sans-serif" font-size="14" lengthAdjust="spacing" textLength="66.9648" x="1989" y="135.8467">PowerCut</text><line style="stroke:#181818;stroke-width:0.5;" x1="1961" x2="2057.9648" y1="147" y2="147"/><line style="stroke:#181818;stroke-width:0.5;" x1="1961" x2="2057.9648" y1="155" y2="155"/></g><!--reverse link Screen to InstructionScreen--><g class="link" data-entity-1="Screen" data-entity-2="InstructionScreen" data-source-line="5" data-uid="lnk5" id="link_Screen_InstructionScreen"><path codeLine="5" d="M308.3974,53.5405 C261.4274,71.2505 200.12,94.39 145.64,114.93" fill="none" id="Screen-backto-InstructionScreen" style="stroke:#181818;stroke-width:1;"/><polygon fill="none" points="325.24,47.19,306.2806,47.9263,310.5143,59.1547,325.24,47.19" style="stroke:#181818;stroke-width:1;"/></g><!--reverse link Screen to Timer--><g class="link" data-entity-1="Screen" data-entity-2="Timer" data-source-line="6" data-uid="lnk7" id="link_Screen_Timer"><path codeLine="6" d="M322.8256,66.271 C300.8356,83.931 284.63,96.94 262.54,114.68" fill="none" id="Screen-backto-Timer" style="stroke:#181818;stroke-width:1;"/><polygon fill="none" points="336.86,55,319.0686,61.5928,326.5825,70.9491,336.86,55" style="stroke:#181818;stroke-width:1;"/></g><!--reverse link Screen to PauseScreen--><g class="link" data-entity-1="Screen" data-entity-2="PauseScreen" data-source-line="7" data-uid="lnk9" id="link_Screen_PauseScreen"><path codeLine="7" d="M365.5,73 C365.5,90.66 365.5,96.94 365.5,114.68" fill="none" id="Screen-backto-PauseScreen" style="stroke:#181818;stroke-width:1;"/><polygon fill="none" points="365.5,55,359.5,73,371.5,73,365.5,55" style="stroke:#181818;stroke-width:1;"/></g><!--reverse link Screen to HomeScreen--><g class="link" data-entity-1="Screen" data-entity-2="HomeScreen" data-source-line="8" data-uid="lnk11" id="link_Screen_HomeScreen"><path codeLine="8" d="M403.2231,65.8225 C426.7731,83.5425 448.51,97.11 477.48,114.86" fill="none" id="Screen-backto-HomeScreen" style="stroke:#181818;stroke-width:1;"/><polygon fill="none" points="388.84,55,399.6156,70.6168,406.8306,61.0281,388.84,55" style="stroke:#181818;stroke-width:1;"/></g><!--reverse link Screen to HomeScreen--><g class="link" data-entity-1="Screen" data-entity-2="HomeScreen" data-source-line="9" data-uid="lnk12" id="link_Screen_HomeScreen"><path codeLine="9" d="M421.294,61.1857 C451.144,79.0557 474.72,96.03 499.57,114.83" fill="none" id="Screen-backto-HomeScreen-1" style="stroke:#181818;stroke-width:1;"/><polygon fill="none" points="405.85,51.94,418.2121,66.3337,424.3759,56.0377,405.85,51.94" style="stroke:#181818;stroke-width:1;"/></g><!--reverse link HomeScreen to CharacterCustomisationMenu--><g class="link" data-entity-1="HomeScreen" data-entity-2="CharacterCustomisationMenu" data-source-line="10" data-uid="lnk14" id="link_HomeScreen_CharacterCustomisationMenu"><path codeLine="10" d="M522.5,181 C522.5,198.66 522.5,204.94 522.5,222.68" fill="none" id="HomeScreen-backto-CharacterCustomisationMenu" style="stroke:#181818;stroke-width:1;"/><polygon fill="none" points="522.5,163,516.5,181,528.5,181,522.5,163" style="stroke:#181818;stroke-width:1;"/></g><!--reverse link Button to MusicButton--><g class="link" data-entity-1="Button" data-entity-2="MusicButton" data-source-line="12" data-uid="lnk16" id="link_Button_MusicButton"><path codeLine="12" d="M728.9091,69.496 C715.9091,87.156 708.71,96.94 695.66,114.68" fill="none" id="Button-backto-MusicButton" style="stroke:#181818;stroke-width:1;"/><polygon fill="none" points="739.58,55,724.0772,65.939,733.7411,73.0529,739.58,55" style="stroke:#181818;stroke-width:1;"/></g><!--reverse link Button to SoundButton--><g class="link" data-entity-1="Button" data-entity-2="SoundButton" data-source-line="13" data-uid="lnk18" id="link_Button_SoundButton"><path codeLine="13" d="M784.0909,69.496 C797.0909,87.156 804.29,96.94 817.34,114.68" fill="none" id="Button-backto-SoundButton" style="stroke:#181818;stroke-width:1;"/><polygon fill="none" points="773.42,55,779.2589,73.0529,788.9228,65.939,773.42,55" style="stroke:#181818;stroke-width:1;"/></g><!--reverse link Player to CharacterElement--><g class="link" data-entity-1="Player" data-entity-2="CharacterElement" data-source-line="16" data-uid="lnk21" id="link_Player_CharacterElement"><path codeLine="16" d="M1117.0124,65.1612 C1091.1024,82.8812 1070.29,97.11 1044.33,114.86" fill="none" id="Player-backto-CharacterElement" style="stroke:#181818;stroke-width:1;"/><polygon fill="none" points="1131.87,55,1113.6253,60.2087,1120.3994,70.1138,1131.87,55" style="stroke:#181818;stroke-width:1;"/></g><!--reverse link Player to Energy--><g class="link" data-entity-1="Player" data-entity-2="Energy" data-source-line="17" data-uid="lnk23" id="link_Player_Energy"><path codeLine="17" d="M1165.5,73 C1165.5,90.66 1165.5,96.94 1165.5,114.68" fill="none" id="Player-backto-Energy" style="stroke:#181818;stroke-width:1;"/><polygon fill="none" points="1165.5,55,1159.5,73,1171.5,73,1165.5,55" style="stroke:#181818;stroke-width:1;"/></g><!--reverse link Player to Inventory--><g class="link" data-entity-1="Player" data-entity-2="Inventory" data-source-line="18" data-uid="lnk25" id="link_Player_Inventory"><path codeLine="18" d="M1206.3497,66.6403 C1227.1797,84.3003 1242.08,96.94 1263,114.68" fill="none" id="Player-backto-Inventory" style="stroke:#181818;stroke-width:1;"/><polygon fill="none" points="1192.62,55,1202.4696,71.2168,1210.2298,62.0637,1192.62,55" style="stroke:#181818;stroke-width:1;"/></g><!--reverse link Room to Door--><g class="link" data-entity-1="Room" data-entity-2="Door" data-source-line="21" data-uid="lnk28" id="link_Room_Door"><path codeLine="21" d="M1408.5,73 C1408.5,90.66 1408.5,96.94 1408.5,114.68" fill="none" id="Room-backto-Door" style="stroke:#181818;stroke-width:1;"/><polygon fill="none" points="1408.5,55,1402.5,73,1414.5,73,1408.5,55" style="stroke:#181818;stroke-width:1;"/></g><!--reverse link Event to Item--><g class="link" data-entity-1="Event" data-entity-2="Item" data-source-line="28" data-uid="lnk32" id="link_Event_Item"><path codeLine="28" d="M1582.3933,67.4324 C1563.9033,85.0924 1551.5,96.94 1532.92,114.68" fill="none" id="Event-backto-Item" style="stroke:#181818;stroke-width:1;"/><polygon fill="none" points="1595.41,55,1578.2491,63.0935,1586.5374,71.7713,1595.41,55" style="stroke:#181818;stroke-width:1;"/></g><!--reverse link Event to Obstacle--><g class="link" data-entity-1="Event" data-entity-2="Obstacle" data-source-line="29" data-uid="lnk33" id="link_Event_Obstacle"><path codeLine="29" d="M1653.2646,68.1563 C1669.7546,85.8163 1680.15,96.94 1696.72,114.68" fill="none" id="Event-backto-Obstacle" style="stroke:#181818;stroke-width:1;"/><polygon fill="none" points="1640.98,55,1648.8792,72.2512,1657.6501,64.0614,1640.98,55" style="stroke:#181818;stroke-width:1;"/></g><!--reverse link Obstacle to Map--><g class="link" data-entity-1="Obstacle" data-entity-2="Map" data-source-line="30" data-uid="lnk35" id="link_Obstacle_Map"><path codeLine="30" d="M1699.631,179.2227 C1691.141,196.8827 1687.25,204.94 1678.72,222.68" fill="none" id="Obstacle-backto-Map" style="stroke:#181818;stroke-width:1;"/><polygon fill="none" points="1707.43,163,1694.2234,176.623,1705.0385,181.8224,1707.43,163" style="stroke:#181818;stroke-width:1;"/></g><!--reverse link Obstacle to Dean--><g class="link" data-entity-1="Obstacle" data-entity-2="Dean" data-source-line="31" data-uid="lnk37" id="link_Obstacle_Dean"><path codeLine="31" d="M1737.029,179.2798 C1745.359,196.9398 1749.13,204.94 1757.5,222.68" fill="none" id="Obstacle-backto-Dean" style="stroke:#181818;stroke-width:1;"/><polygon fill="none" points="1729.35,163,1731.6024,181.8395,1742.4556,176.7202,1729.35,163" style="stroke:#181818;stroke-width:1;"/></g><!--reverse link Obstacle to Duck--><g class="link" data-entity-1="Obstacle" data-entity-2="Duck" data-source-line="32" data-uid="lnk39" id="link_Obstacle_Duck"><path codeLine="32" d="M1766.4947,173.2527 C1792.0647,190.9727 1812.48,205.11 1838.1,222.86" fill="none" id="Obstacle-backto-Duck" style="stroke:#181818;stroke-width:1;"/><polygon fill="none" points="1751.7,163,1763.0771,178.1843,1769.9122,168.3211,1751.7,163" style="stroke:#181818;stroke-width:1;"/></g><!--reverse link Item to Keys--><g class="link" data-entity-1="Item" data-entity-2="Keys" data-source-line="33" data-uid="lnk41" id="link_Item_Keys"><path codeLine="33" d="M1461.4322,171.7827 C1434.5222,189.9527 1411.2,205.69 1384.15,223.96" fill="none" id="Item-backto-Keys" style="stroke:#181818;stroke-width:1;"/><polygon fill="none" points="1476.35,161.71,1458.0746,166.8101,1464.7898,176.7553,1476.35,161.71" style="stroke:#181818;stroke-width:1;"/></g><!--reverse link Item to Drink--><g class="link" data-entity-1="Item" data-entity-2="Drink" data-source-line="34" data-uid="lnk43" id="link_Item_Drink"><path codeLine="34" d="M1488.2751,178.9748 C1479.1051,196.6348 1474.8,204.94 1465.6,222.68" fill="none" id="Item-backto-Drink" style="stroke:#181818;stroke-width:1;"/><polygon fill="none" points="1496.57,163,1482.9501,176.2098,1493.6,181.7398,1496.57,163" style="stroke:#181818;stroke-width:1;"/></g><!--reverse link Item to Statue--><g class="link" data-entity-1="Item" data-entity-2="Statue" data-source-line="35" data-uid="lnk45" id="link_Item_Statue"><path codeLine="35" d="M1528.3859,179.0411 C1537.3759,196.7011 1541.58,204.94 1550.62,222.68" fill="none" id="Item-backto-Statue" style="stroke:#181818;stroke-width:1;"/><polygon fill="none" points="1520.22,163,1523.0389,181.7631,1533.7329,176.3192,1520.22,163" style="stroke:#181818;stroke-width:1;"/></g><!--reverse link HiddenEvent to LongBoiSpirit--><g class="link" data-entity-1="HiddenEvent" data-entity-2="LongBoiSpirit" data-source-line="40" data-uid="lnk48" id="link_HiddenEvent_LongBoiSpirit"><path codeLine="40" d="M1909.4518,69.8254 C1897.2918,87.4854 1890.78,96.94 1878.56,114.68" fill="none" id="HiddenEvent-backto-LongBoiSpirit" style="stroke:#181818;stroke-width:1;"/><polygon fill="none" points="1919.66,55,1904.51,66.4227,1914.3936,73.2281,1919.66,55" style="stroke:#181818;stroke-width:1;"/></g><!--reverse link HiddenEvent to PowerCut--><g class="link" data-entity-1="HiddenEvent" data-entity-2="PowerCut" data-source-line="41" data-uid="lnk50" id="link_HiddenEvent_PowerCut"><path codeLine="41" d="M1961.8587,69.7627 C1974.1787,87.4227 1980.84,96.94 1993.22,114.68" fill="none" id="HiddenEvent-backto-PowerCut" style="stroke:#181818;stroke-width:1;"/><polygon fill="none" points="1951.56,55,1956.9379,73.1956,1966.7796,66.3297,1951.56,55" style="stroke:#181818;stroke-width:1;"/></g><!--SRC=[XL7DJiCm3BxdANhRQM_0QMkbLJ1HhRo0ISs8QEmfSK2LU7WIqa5Q9d59yltO-PniUkqGIS6p5mTQAZs2zzLjTXT4c9JAQdNtkTrMBKLBq6AOvg9IVJ8MtOBf87YyuJom_OV-FMPf_mef6xfzyCBMU4WXZaX1gPmq-ux16pr7B_cU0mtNaJRT25ECchVL1Ss85aaMOaFepjE2QkazkjXDiTs9sQgqPAbcTf5jaa4PYZrVG6FL2je2FiRd1ZtY-jrpcVhUvgjIOO5_Ag-7UNIuh9WQWTPKq6ygDSpm7YTVmDePAkLUG0B6MGvc6E9Nv6ohm5cROnSWjtXWEk_Oz1VZZFoLE_v8VofV]--></g></svg>